<svg width="584" height="432" viewBox="0 0 584 432" fill="none" xmlns="http://www.w3.org/2000/svg">
<path d="M6.08246 0.400911V0.000911256C6.08247 0.400911 6.08319 0.400911 6.08463 0.400911L6.09111 0.400911L6.11695 0.400911L6.21982 0.40091L6.62714 0.400906L8.22338 0.400892L14.344 0.40084L36.712 0.400662L109.267 0.40021C165.168 0.399941 229.685 0.399835 264.153 0.400486C264.605 0.400494 265.165 0.72345 265.837 1.4765C266.494 2.21304 267.187 3.28216 267.911 4.59309C269.227 6.9759 270.605 10.0852 272.022 13.2822C272.164 13.6009 272.305 13.9205 272.447 14.2404C274.009 17.7553 275.613 21.2978 277.212 23.9621C278.011 25.2936 278.821 26.4263 279.638 27.2306C280.447 28.0281 281.317 28.5554 282.234 28.5554L577.917 28.5558C581.048 28.5558 583.6 31.1514 583.6 34.3716C583.6 36.088 583.579 133.941 583.558 231.365L583.53 365.109L583.52 409.106L583.518 421.426L583.517 424.671L583.517 425.503V425.713L583.517 425.766V425.78C583.517 425.783 583.517 425.784 583.917 425.784L583.517 425.784C583.517 429.004 580.964 431.6 577.834 431.6H6.08248C2.95227 431.6 0.4 429.004 0.4 425.784V14.5045V6.21672C0.4 2.99652 2.95226 0.400911 6.08246 0.400911Z" fill="#E8E8E8" stroke="#C7C7C6" stroke-width="0.8"/>
</svg>
