<svg width="584" height="432" viewBox="0 0 584 432" fill="none" xmlns="http://www.w3.org/2000/svg">
<path d="M6.08246 0.400911V0.000911256C6.08247 0.400911 6.08319 0.400911 6.08463 0.400911L6.09111 0.400911L6.11695 0.400911L6.21982 0.40091L6.62714 0.400906L8.22338 0.400892L14.344 0.40084L36.712 0.400662L109.267 0.40021C165.168 0.399941 229.685 0.399835 264.153 0.400486C264.656 0.400495 265.231 0.65064 265.886 1.17272C266.537 1.6911 267.225 2.4442 267.945 3.37094C269.256 5.05778 270.631 7.26004 272.049 9.53251C272.19 9.75857 272.332 9.98533 272.474 10.2123C274.034 12.7082 275.644 15.2328 277.25 17.1332C278.053 18.0841 278.868 18.8939 279.689 19.4684C280.509 20.0422 281.362 20.4 282.234 20.4L577.917 20.4004C581.048 20.4004 583.6 22.996 583.6 26.2162C583.6 27.9326 583.579 127.825 583.558 227.287L583.53 363.834L583.52 408.756L583.518 421.334L583.517 424.648L583.517 425.497V425.712L583.517 425.766V425.78C583.517 425.78 583.517 425.781 583.526 425.782C583.55 425.783 583.632 425.784 583.912 425.784L583.517 425.784C583.517 429.004 580.964 431.6 577.834 431.6H6.08248C2.95227 431.6 0.4 429.004 0.4 425.784V14.5045V6.21672C0.4 2.99652 2.95226 0.400911 6.08246 0.400911Z" fill="#E8E8E8" stroke="#C7C7C6" stroke-width="0.8"/>
</svg>
