<svg width="584" height="423" viewBox="0 0 584 423" fill="none" xmlns="http://www.w3.org/2000/svg">
  <!-- Fill path -->
  <path d="M584 416.709V20.2784C584 16.9187 581.276 14.1951 577.917 14.1951L256 14.1947C249.917 14.1947 243.069 0.000333777 238 0.000240103C169.056 -0.00103387 6.08333 0.000656664 6.08333 0.000656664C2.7236 0.000656664 0 2.72426 0 6.08399V14.1951V416.709C0 420.069 2.72361 422.792 6.08334 422.792H577.917C581.276 422.792 584 420.069 584 416.709Z" 
    fill="#ECECEC" 
  />
  
  <!-- Stroke path -->
  <path d="M583.25 416.709V20.2784C583.25 17.3725 580.823 15.0451 577.917 15.0451L256 15.0447C250.133 15.0447 243.388 0.750333777 238.319 0.750240103C169.375 0.74896613 6.08333 0.750656664 6.08333 0.750656664C3.17741 0.750656664 0.75 3.178 0.75 6.08399V14.1951V416.709C0.75 419.615 3.17741 422.042 6.08334 422.042H577.917C580.823 422.042 583.25 419.615 583.25 416.709Z" 
    stroke="#D8D8D8" 
    stroke-width="var(--folder-stroke-width, 0.8)"
  />
</svg>
