<svg width="584" height="373" viewBox="0 0 584 373" fill="none" xmlns="http://www.w3.org/2000/svg">
<path d="M0.680115 43.964C0.680115 45.4145 0.610046 126.361 0.540039 206.944L0.443787 317.565L0.412048 353.955L0.403137 364.144L0.400818 366.828L0.400208 367.516L0.400024 367.69V367.734V367.745C0.400024 367.747 0.400024 367.748 0.209534 367.748H0.400024C0.400024 370.375 2.88733 372.6 6.08337 372.6H577.917C581.113 372.6 583.6 370.375 583.6 367.748V12.255V5.25263C583.6 2.62622 581.113 0.400839 577.917 0.400839V0.000839377C577.917 0.400839 577.916 0.400839 577.915 0.400839L577.908 0.400839L577.883 0.400839L577.782 0.400838L577.381 0.400835L575.811 0.400822L569.791 0.400775L547.781 0.400615L476.312 0.400205C421.201 0.399956 357.472 0.399845 323 0.400395C322.814 0.400398 322.575 0.48986 322.275 0.741398C321.978 0.991294 321.655 1.37335 321.31 1.88697C320.62 2.91334 319.885 4.39742 319.116 6.20566C317.719 9.49036 316.236 13.7741 314.715 18.1667C314.563 18.6061 314.411 19.0465 314.258 19.4872C312.582 24.3221 310.866 29.1803 309.186 32.8304C308.346 34.6538 307.507 36.1974 306.673 37.2909C306.256 37.8379 305.83 38.2867 305.394 38.6015C304.957 38.9167 304.49 39.1119 304 39.1119L6.36346 39.1122C3.16742 39.1122 0.680115 41.3376 0.680115 43.964Z" fill="url(#paint0_linear_3509_31229)" stroke="#C7C7C6" stroke-width="0.8"/>
<line x1="3.90833e-08" y1="344.6" x2="584" y2="344.6" stroke="#C7C7C6" stroke-width="0.8"/>
<line x1="3.90833e-08" y1="360.6" x2="584" y2="360.6" stroke="#C7C7C6" stroke-width="0.8"/>
<defs>
<linearGradient id="paint0_linear_3509_31229" x1="73" y1="10.2192" x2="504.547" y2="363.789" gradientUnits="userSpaceOnUse">
<stop offset="0.32" stop-color="#F2F2F2"/>
<stop offset="0.769423" stop-color="#EBEBEB"/>
</linearGradient>
</defs>
</svg>
