<svg width="584" height="423" viewBox="0 0 584 423" fill="none" xmlns="http://www.w3.org/2000/svg">
<path d="M6.08333 0.400892V0.000892272C6.08334 0.400892 6.08396 0.400892 6.0852 0.400892L6.09078 0.400892L6.11306 0.400892L6.20172 0.400891L6.55295 0.400887L7.93042 0.400874L13.2207 0.400822L32.625 0.400648L96.1875 0.400206C145.549 0.399942 203.528 0.399838 238 0.400476C238.536 0.400485 239.125 0.599256 239.774 0.988102C240.421 1.37622 241.103 1.93908 241.817 2.63132C243.118 3.89308 244.48 5.54073 245.89 7.24581C246.03 7.41522 246.171 7.5852 246.312 7.75542C247.862 9.62713 249.465 11.5254 251.068 12.9549C252.658 14.3736 254.323 15.4 256 15.4L577.917 15.4004C581.055 15.4004 583.6 17.946 583.6 21.0867V416.914C583.6 420.054 581.055 422.6 577.917 422.6H6.08334C2.94471 422.6 0.4 420.054 0.4 416.914V14.2023V6.08721C0.4 2.94656 2.9447 0.400892 6.08333 0.400892Z" fill="#E9E9E9" stroke="#C7C7C6" stroke-width="0.8"/>
</svg>
