<svg width="28" height="358" viewBox="0 0 28 358" fill="none" xmlns="http://www.w3.org/2000/svg">
<path d="M0.5 399V-42M0 -41.5L28 -41.5M0 -36L8.5 -36M0 -30.5L13 -30.5M0 -25H8.5M0 -19.5L21 -19.5M0 -14H8.5M0 -8.49998H13M0 -2.99998H8.5M0 2.50002L28 2.50003M0 8.00003H8.5M0 13.5L13 13.5M0 19H8.5M0 24.5H21M0 30L8.5 30M0 35.5H13M0 41H8.5M0 46.5H28M0 52H8.5M0 57.5001H13M0 63.0001H8.5M0 68.5001H21M0 74.0001H8.5M0 79.5001H13M0 85.0001L8.5 85.0001M0 90.5001L28 90.5001M0 96.0001H8.5M0 101.5H13M0 107L8.5 107M0 112.5H21M0 118H8.5M0 123.5H13M0 129H8.5M0 134.5H28M0 140H8.5M0 145.5H13M0 151L8.5 151M0 156.5H21M0 162H8.5M0 167.5H13M0 173H8.5M0 178.5H28M0 184H8.5M0 189.5H13M0 195L8.5 195M0 200.5H21M0 206H8.5M0 211.5H13M0 217H8.5M0 222.5H28M0 228H8.5M0 233.5H13M0 239H8.5M0 244.5H21M0 250H8.5M0 255.5H13M0 261H8.5M0 266.5H28M0 272H8.5M0 277.5H13M0 283H8.5M0 288.5H21M0 294H8.5M0 299.5L13 299.5M0 305H8.5M0 310.5H28M0 316H8.5M0 321.5H13M0 327H8.5M0 332.5H21M0 338H8.5M0 343.5H13M0 349H8.5M0 354.5H28M0 360H8.5M0 365.5H13M0 371H8.5M0 376.5H21M0 382H8.5M0 387.5L13 387.5M0 393H8.5M0 398.5H28" stroke="#C2C2C2"/>
<mask id="mask0_4524_20300" style="mask-type:alpha" maskUnits="userSpaceOnUse" x="0" y="-42" width="28" height="441">
<path d="M0.5 399V-42M0 -41.5L28 -41.5M0 -36L8.5 -36M0 -30.5L13 -30.5M0 -25H8.5M0 -19.5L21 -19.5M0 -14H8.5M0 -8.49998H13M0 -2.99998H8.5M0 2.50002L28 2.50003M0 8.00003H8.5M0 13.5L13 13.5M0 19H8.5M0 24.5H21M0 30L8.5 30M0 35.5H13M0 41H8.5M0 46.5H28M0 52H8.5M0 57.5001H13M0 63.0001H8.5M0 68.5001H21M0 74.0001H8.5M0 79.5001H13M0 85.0001L8.5 85.0001M0 90.5001L28 90.5001M0 96.0001H8.5M0 101.5H13M0 107L8.5 107M0 112.5H21M0 118H8.5M0 123.5H13M0 129H8.5M0 134.5H28M0 140H8.5M0 145.5H13M0 151L8.5 151M0 156.5H21M0 162H8.5M0 167.5H13M0 173H8.5M0 178.5H28M0 184H8.5M0 189.5H13M0 195L8.5 195M0 200.5H21M0 206H8.5M0 211.5H13M0 217H8.5M0 222.5H28M0 228H8.5M0 233.5H13M0 239H8.5M0 244.5H21M0 250H8.5M0 255.5H13M0 261H8.5M0 266.5H28M0 272H8.5M0 277.5H13M0 283H8.5M0 288.5H21M0 294H8.5M0 299.5L13 299.5M0 305H8.5M0 310.5H28M0 316H8.5M0 321.5H13M0 327H8.5M0 332.5H21M0 338H8.5M0 343.5H13M0 349H8.5M0 354.5H28M0 360H8.5M0 365.5H13M0 371H8.5M0 376.5H21M0 382H8.5M0 387.5L13 387.5M0 393H8.5M0 398.5H28" stroke="#B1B1B1"/>
</mask>
<g mask="url(#mask0_4524_20300)">
<rect x="0.231201" y="178" width="27.7703" height="1" fill="#1A1A1A"/>
</g>
</svg>
