<svg width="24" height="24" viewBox="0 0 24 24" fill="none" xmlns="http://www.w3.org/2000/svg">
<path fill-rule="evenodd" clip-rule="evenodd" d="M6 12C6 11.8347 6.06773 11.6761 6.18829 11.5592C6.30886 11.4423 6.47238 11.3766 6.64288 11.3766H15.7615L12.1974 8.08512C12.1336 8.02907 12.0822 7.96118 12.046 7.88548C12.0098 7.80979 11.9897 7.72782 11.9868 7.64444C11.9839 7.56106 11.9982 7.47796 12.0291 7.40007C12.0599 7.32218 12.1065 7.25108 12.1662 7.19098C12.2259 7.13088 12.2974 7.08302 12.3765 7.05021C12.4556 7.01741 12.5407 7.00033 12.6267 7C12.7128 6.99967 12.798 7.01609 12.8774 7.04829C12.9567 7.08049 13.0286 7.1278 13.0888 7.18744L17.8033 11.5512C17.8655 11.6093 17.915 11.679 17.9488 11.7561C17.9826 11.8333 18 11.9162 18 12C18 12.0838 17.9826 12.1667 17.9488 12.2438C17.915 12.321 17.8655 12.3907 17.8033 12.4488L13.0888 16.8126C13.0286 16.8722 12.9567 16.9195 12.8774 16.9517C12.798 16.9839 12.7128 17.0003 12.6267 17C12.5407 16.9997 12.4556 16.9826 12.3765 16.9498C12.2974 16.917 12.2259 16.8691 12.1662 16.809C12.1065 16.7489 12.0599 16.6778 12.0291 16.5999C11.9982 16.522 11.9839 16.4389 11.9868 16.3556C11.9897 16.2722 12.0098 16.1902 12.046 16.1145C12.0822 16.0388 12.1336 15.9709 12.1974 15.9149L15.7615 12.6234H6.64288C6.47238 12.6234 6.30886 12.5577 6.18829 12.4408C6.06773 12.3239 6 12.1653 6 12Z" fill="#0A0A0A"/>
</svg>
