<svg width="100%" height="100%" viewBox="0 0 24 24" fill="none" xmlns="http://www.w3.org/2000/svg">
<path fill-rule="evenodd" clip-rule="evenodd" d="M18 12C18 12.1653 17.9323 12.3239 17.8117 12.4408C17.6911 12.5577 17.5276 12.6234 17.3571 12.6234L8.23852 12.6234L11.8026 15.9149C11.8664 15.9709 11.9178 16.0388 11.954 16.1145C11.9902 16.1902 12.0103 16.2722 12.0132 16.3556C12.0161 16.4389 12.0018 16.522 11.9709 16.5999C11.9401 16.6778 11.8935 16.7489 11.8338 16.809C11.7741 16.8691 11.7026 16.917 11.6235 16.9498C11.5444 16.9826 11.4593 16.9997 11.3733 17C11.2872 17.0003 11.202 16.9839 11.1226 16.9517C11.0433 16.9195 10.9714 16.8722 10.9112 16.8126L6.19674 12.4488C6.13452 12.3907 6.08503 12.321 6.05123 12.2438C6.01742 12.1667 6 12.0838 6 12C6 11.9162 6.01742 11.8333 6.05123 11.7561C6.08503 11.679 6.13452 11.6093 6.19674 11.5512L10.9112 7.18744C10.9714 7.1278 11.0433 7.08049 11.1226 7.04829C11.202 7.01609 11.2872 6.99967 11.3733 7C11.4593 7.00033 11.5444 7.01741 11.6235 7.05021C11.7026 7.08302 11.7741 7.13088 11.8338 7.19098C11.8935 7.25108 11.9401 7.32218 11.9709 7.40007C12.0018 7.47796 12.0161 7.56106 12.0132 7.64444C12.0103 7.72782 11.9902 7.80979 11.954 7.88549C11.9178 7.96118 11.8664 8.02907 11.8026 8.08512L8.23852 11.3766L17.3571 11.3766C17.5276 11.3766 17.6911 11.4423 17.8117 11.5592C17.9323 11.6761 18 11.8347 18 12Z" fill="#5A5A5A"/>
</svg>
