<svg width="100%" height="100%" viewBox="0 0 24 24" fill="none" xmlns="http://www.w3.org/2000/svg">
<path fill-rule="evenodd" clip-rule="evenodd" d="M18 10.5435C18 10.7088 17.9323 10.8674 17.8117 10.9843C17.6911 11.1012 17.5276 11.1668 17.3571 11.1668L8.23852 11.1668L11.8026 14.4583C11.8664 14.5144 11.9178 14.5823 11.954 14.658C11.9902 14.7337 12.0103 14.8156 12.0132 14.899C12.0161 14.9824 12.0018 15.0655 11.9709 15.1434C11.9401 15.2213 11.8935 15.2924 11.8338 15.3525C11.7741 15.4126 11.7026 15.4604 11.6235 15.4932C11.5444 15.526 11.4593 15.5431 11.3733 15.5435C11.2872 15.5438 11.202 15.5274 11.1226 15.4952C11.0433 15.463 10.9714 15.4157 10.9112 15.356L6.19674 10.9923C6.13452 10.9341 6.08503 10.8644 6.05123 10.7873C6.01742 10.7102 6 10.6273 6 10.5435C6 10.4597 6.01742 10.3767 6.05123 10.2996C6.08503 10.2225 6.13452 10.1528 6.19674 10.0946L10.9112 5.7309C10.9714 5.67126 11.0433 5.62394 11.1226 5.59175C11.202 5.55955 11.2872 5.54313 11.3733 5.54346C11.4593 5.54379 11.5444 5.56087 11.6235 5.59367C11.7026 5.62647 11.7741 5.67434 11.8338 5.73444C11.8935 5.79453 11.9401 5.86563 11.9709 5.94352C12.0018 6.02142 12.0161 6.10451 12.0132 6.1879C12.0103 6.27128 11.9902 6.35325 11.954 6.42894C11.9178 6.50464 11.8664 6.57252 11.8026 6.62858L8.23852 9.92007L17.3571 9.92007C17.5276 9.92007 17.6911 9.98575 17.8117 10.1027C17.9323 10.2196 18 10.3781 18 10.5435Z" fill="currentColor"/>
</svg>
