<svg width="100%" height="100%" viewBox="0 0 24 24" fill="none" xmlns="http://www.w3.org/2000/svg">
<path fill-rule="evenodd" clip-rule="evenodd" d="M18 11.25C18 11.4153 17.9323 11.5739 17.8117 11.6908C17.6911 11.8077 17.5276 11.8734 17.3571 11.8734L8.23852 11.8734L11.8026 15.1649C11.8664 15.2209 11.9178 15.2888 11.954 15.3645C11.9902 15.4402 12.0103 15.5222 12.0132 15.6056C12.0161 15.6889 12.0018 15.772 11.9709 15.8499C11.9401 15.9278 11.8935 15.9989 11.8338 16.059C11.7741 16.1191 11.7026 16.167 11.6235 16.1998C11.5444 16.2326 11.4593 16.2497 11.3733 16.25C11.2872 16.2503 11.202 16.2339 11.1226 16.2017C11.0433 16.1695 10.9714 16.1222 10.9112 16.0626L6.19674 11.6988C6.13452 11.6407 6.08503 11.571 6.05123 11.4938C6.01742 11.4167 6 11.3338 6 11.25C6 11.1662 6.01742 11.0833 6.05123 11.0061C6.08503 10.929 6.13452 10.8593 6.19674 10.8012L10.9112 6.43744C10.9714 6.3778 11.0433 6.33049 11.1226 6.29829C11.202 6.26609 11.2872 6.24967 11.3733 6.25C11.4593 6.25033 11.5444 6.26741 11.6235 6.30021C11.7026 6.33302 11.7741 6.38088 11.8338 6.44098C11.8935 6.50108 11.9401 6.57218 11.9709 6.65007C12.0018 6.72796 12.0161 6.81106 12.0132 6.89444C12.0103 6.97782 11.9902 7.05979 11.954 7.13549C11.9178 7.21118 11.8664 7.27907 11.8026 7.33512L8.23852 10.6266L17.3571 10.6266C17.5276 10.6266 17.6911 10.6923 17.8117 10.8092C17.9323 10.9261 18 11.0847 18 11.25Z" fill="currentColor"/>
</svg>
