<svg width="100%" height="100%" viewBox="0 0 24 24" fill="none" xmlns="http://www.w3.org/2000/svg">
<path fill-rule="evenodd" clip-rule="evenodd" d="M18 11.5435C18 11.7088 17.9323 11.8674 17.8117 11.9843C17.6911 12.1012 17.5276 12.1668 17.3571 12.1668L8.23852 12.1668L11.8026 15.4583C11.8664 15.5144 11.9178 15.5823 11.954 15.658C11.9902 15.7337 12.0103 15.8156 12.0132 15.899C12.0161 15.9824 12.0018 16.0655 11.9709 16.1434C11.9401 16.2213 11.8935 16.2924 11.8338 16.3525C11.7741 16.4126 11.7026 16.4604 11.6235 16.4932C11.5444 16.526 11.4593 16.5431 11.3733 16.5435C11.2872 16.5438 11.202 16.5274 11.1226 16.4952C11.0433 16.463 10.9714 16.4157 10.9112 16.356L6.19674 11.9923C6.13452 11.9341 6.08503 11.8644 6.05123 11.7873C6.01742 11.7102 6 11.6273 6 11.5435C6 11.4597 6.01742 11.3767 6.05123 11.2996C6.08503 11.2225 6.13452 11.1528 6.19674 11.0946L10.9112 6.7309C10.9714 6.67126 11.0433 6.62394 11.1226 6.59175C11.202 6.55955 11.2872 6.54313 11.3733 6.54346C11.4593 6.54379 11.5444 6.56087 11.6235 6.59367C11.7026 6.62647 11.7741 6.67434 11.8338 6.73444C11.8935 6.79453 11.9401 6.86563 11.9709 6.94352C12.0018 7.02142 12.0161 7.10451 12.0132 7.1879C12.0103 7.27128 11.9902 7.35325 11.954 7.42894C11.9178 7.50464 11.8664 7.57252 11.8026 7.62858L8.23852 10.92007L17.3571 10.92007C17.5276 10.92007 17.6911 10.98575 17.8117 11.1027C17.9323 11.2196 18 11.3781 18 11.5435Z" fill="currentColor"/>
</svg>
