<svg width="100%" height="100%" viewBox="0 0 24 24" fill="none" xmlns="http://www.w3.org/2000/svg">
<path fill-rule="evenodd" clip-rule="evenodd" d="M10.0706 16.7811C9.92447 16.6407 9.84241 16.4504 9.84241 16.252C9.84241 16.0536 9.92447 15.8633 10.0706 15.723L13.9402 12.0097L10.0706 8.29637C9.99392 8.22783 9.93244 8.14518 9.8898 8.05334C9.84716 7.96151 9.82423 7.86238 9.82239 7.76186C9.82054 7.66133 9.83981 7.56149 9.87905 7.46827C9.91828 7.37504 9.97669 7.29036 10.0508 7.21927C10.1249 7.14818 10.2131 7.09214 10.3102 7.05449C10.4074 7.01683 10.5114 6.99834 10.6162 7.00012C10.7209 7.00189 10.8242 7.02389 10.9199 7.06481C11.0156 7.10573 11.1018 7.16472 11.1732 7.23828L15.5941 11.4806C15.7402 11.621 15.8223 11.8113 15.8223 12.0097C15.8223 12.2081 15.7402 12.3983 15.5941 12.5387L11.1732 16.7811C11.0269 16.9213 10.8286 17 10.6219 17C10.4151 17 10.2169 16.9213 10.0706 16.7811Z" fill="#C7C7C6"/>
</svg>
