<svg width="100%" height="100%" viewBox="0 0 24 24" fill="none" xmlns="http://www.w3.org/2000/svg">
<path fill-rule="evenodd" clip-rule="evenodd" d="M7.21894 10.0703C7.35932 9.92423 7.5496 9.84217 7.74799 9.84217C7.94638 9.84217 8.13666 9.92423 8.27704 10.0703L11.9903 13.9399L15.7036 10.0703C15.7722 9.99368 15.8548 9.9322 15.9467 9.88956C16.0385 9.84692 16.1376 9.82399 16.2381 9.82214C16.3387 9.82029 16.4385 9.83956 16.5317 9.8788C16.625 9.91804 16.7096 9.97644 16.7807 10.0505C16.8518 10.1246 16.9079 10.2129 16.9455 10.31C16.9832 10.4071 17.0017 10.5112 16.9999 10.6159C16.9981 10.7207 16.9761 10.824 16.9352 10.9197C16.8943 11.0154 16.8353 11.1015 16.7617 11.173L12.5194 15.5939C12.379 15.74 12.1887 15.822 11.9903 15.822C11.7919 15.822 11.6017 15.74 11.4613 15.5939L7.21894 11.173C7.07875 11.0267 7 10.8284 7 10.6216C7 10.4149 7.07875 10.2166 7.21894 10.0703Z" fill="currentColor"/>
</svg>
