<svg width="24" height="24" viewBox="0 0 24 24" fill="none" xmlns="http://www.w3.org/2000/svg">
<path fill-rule="evenodd" clip-rule="evenodd" d="M16.7811 13.9297C16.6407 14.0758 16.4504 14.1578 16.252 14.1578C16.0536 14.1578 15.8633 14.0758 15.723 13.9297L12.0097 10.0601L8.29637 13.9297C8.22783 14.0063 8.14518 14.0678 8.05335 14.1104C7.96151 14.1531 7.86238 14.176 7.76186 14.1779C7.66133 14.1797 7.56149 14.1604 7.46827 14.1212C7.37505 14.082 7.29036 14.0236 7.21927 13.9495C7.14818 13.8754 7.09214 13.7871 7.05449 13.69C7.01683 13.5929 6.99834 13.4888 7.00012 13.3841C7.00189 13.2793 7.02389 13.176 7.06481 13.0803C7.10573 12.9846 7.16472 12.8985 7.23828 12.827L11.4806 8.40614C11.621 8.26004 11.8113 8.17798 12.0097 8.17798C12.2081 8.17798 12.3983 8.26004 12.5387 8.40614L16.7811 12.827C16.9213 12.9733 17 13.1716 17 13.3784C17 13.5851 16.9213 13.7834 16.7811 13.9297Z" fill="#0A0A0A"/>
</svg>
