<svg width="6" height="6" viewBox="0 0 6 6" fill="none" xmlns="http://www.w3.org/2000/svg">
<g clip-path="url(#clip0_3540_32759)">
<path fill-rule="evenodd" clip-rule="evenodd" d="M0.171475 5.82846C0.0935367 5.75052 0.0507192 5.64384 0.0524423 5.5319C0.0541654 5.41995 0.100288 5.31191 0.180663 5.23153L4.47921 0.932985L1.24744 1.0615C1.19098 1.06512 1.13471 1.05739 1.08198 1.03875C1.02924 1.02012 0.981109 0.990975 0.940433 0.953038C0.899758 0.915102 0.867366 0.869148 0.845177 0.8179C0.822988 0.766652 0.811453 0.711152 0.811257 0.65469C0.811061 0.598228 0.822206 0.541951 0.844034 0.489196C0.865861 0.43644 0.897926 0.388279 0.938328 0.347565C0.978731 0.306851 1.02665 0.274413 1.07924 0.252174C1.13184 0.229935 1.18804 0.218347 1.24451 0.218096L5.524 0.0527612C5.58075 0.0508439 5.63694 0.0603797 5.68923 0.0807989C5.74152 0.101218 5.78883 0.132102 5.82833 0.171603C5.86783 0.211105 5.89871 0.258414 5.91913 0.310703C5.93955 0.362992 5.94909 0.419188 5.94717 0.475931L5.78184 4.75542C5.78159 4.8119 5.77 4.8681 5.74776 4.92069C5.72552 4.97328 5.69308 5.0212 5.65237 5.06161C5.61166 5.10201 5.56349 5.13407 5.51074 5.1559C5.45798 5.17773 5.40171 5.18887 5.34524 5.18868C5.28878 5.18848 5.23328 5.17695 5.18203 5.15476C5.13079 5.13257 5.08483 5.10018 5.04689 5.0595C5.00896 5.01882 4.97981 4.97069 4.96118 4.91796C4.94255 4.86522 4.93481 4.80895 4.93843 4.75249L5.06695 1.52072L0.7684 5.81927C0.688024 5.89965 0.579979 5.94577 0.468034 5.94749C0.356089 5.94921 0.249414 5.9064 0.171475 5.82846Z" fill="#1F1F1F"/>
</g>
<defs>
<clipPath id="clip0_3540_32759">
<rect width="6" height="6" fill="white"/>
</clipPath>
</defs>
</svg>
