<svg width="82" height="82" viewBox="0 0 82 82" fill="none" xmlns="http://www.w3.org/2000/svg">
<rect width="82" height="82" rx="4" fill="#17822D"/>
<path d="M27.44 56.448C20.4064 56.448 16.24 50.4448 16.24 40.32C16.24 30.1952 20.4064 24.192 27.44 24.192C34.4736 24.192 38.64 30.1952 38.64 40.32C38.64 50.4448 34.4736 56.448 27.44 56.448ZM21.7952 43.8144L31.9648 32.5248C30.9792 30.2848 29.456 29.12 27.44 29.12C23.7216 29.12 21.616 33.1968 21.616 40.32C21.616 41.5744 21.6608 42.7392 21.7952 43.8144ZM27.44 51.52C31.1584 51.52 33.264 47.4432 33.264 40.32C33.264 39.0656 33.2192 37.9008 33.0848 36.8256L22.9152 48.1152C23.9008 50.3552 25.424 51.52 27.44 51.52ZM44.4913 56V53.536C44.4913 49.728 46.5969 46.5472 52.1521 41.9328C56.6321 38.2592 58.3345 35.9296 58.3345 33.4208C58.3345 30.8224 56.4529 29.12 53.7649 29.12C51.2561 29.12 49.2849 30.6432 49.1057 32.704H43.6849C43.6849 27.8656 47.9857 24.192 53.8993 24.192C59.8129 24.192 63.9345 27.9104 63.9345 33.2416C63.9345 37.184 61.6497 40.6784 56.0945 45.2928C53.3169 47.6224 51.7041 49.3696 50.9425 51.072H64.8305V56H44.4913Z" fill="white"/>
</svg>
