<svg width="82" height="82" viewBox="0 0 82 82" fill="none" xmlns="http://www.w3.org/2000/svg">
<rect width="82" height="82" rx="4" fill="#17822D"/>
<mask id="path-2-outside-1_3669_26881" maskUnits="userSpaceOnUse" x="15" y="23" width="51" height="35" fill="black">
<rect fill="white" x="15" y="23" width="51" height="35"/>
<path d="M27.44 56.448C20.4064 56.448 16.24 50.4448 16.24 40.32C16.24 30.1952 20.4064 24.192 27.44 24.192C34.4736 24.192 38.64 30.1952 38.64 40.32C38.64 50.4448 34.4736 56.448 27.44 56.448ZM21.7952 43.8144L31.9648 32.5248C30.9792 30.2848 29.456 29.12 27.44 29.12C23.7216 29.12 21.616 33.1968 21.616 40.32C21.616 41.5744 21.6608 42.7392 21.7952 43.8144ZM27.44 51.52C31.1584 51.52 33.264 47.4432 33.264 40.32C33.264 39.0656 33.2192 37.9008 33.0848 36.8256L22.9152 48.1152C23.9008 50.3552 25.424 51.52 27.44 51.52ZM44.4913 56V53.536C44.4913 49.728 46.5969 46.5472 52.1521 41.9328C56.6321 38.2592 58.3345 35.9296 58.3345 33.4208C58.3345 30.8224 56.4529 29.12 53.7649 29.12C51.2561 29.12 49.2849 30.6432 49.1057 32.704H43.6849C43.6849 27.8656 47.9857 24.192 53.8993 24.192C59.8129 24.192 63.9345 27.9104 63.9345 33.2416C63.9345 37.184 61.6497 40.6784 56.0945 45.2928C53.3169 47.6224 51.7041 49.3696 50.9425 51.072H64.8305V56H44.4913Z"/>
</mask>
<path d="M27.44 56.448C20.4064 56.448 16.24 50.4448 16.24 40.32C16.24 30.1952 20.4064 24.192 27.44 24.192C34.4736 24.192 38.64 30.1952 38.64 40.32C38.64 50.4448 34.4736 56.448 27.44 56.448ZM21.7952 43.8144L31.9648 32.5248C30.9792 30.2848 29.456 29.12 27.44 29.12C23.7216 29.12 21.616 33.1968 21.616 40.32C21.616 41.5744 21.6608 42.7392 21.7952 43.8144ZM27.44 51.52C31.1584 51.52 33.264 47.4432 33.264 40.32C33.264 39.0656 33.2192 37.9008 33.0848 36.8256L22.9152 48.1152C23.9008 50.3552 25.424 51.52 27.44 51.52ZM44.4913 56V53.536C44.4913 49.728 46.5969 46.5472 52.1521 41.9328C56.6321 38.2592 58.3345 35.9296 58.3345 33.4208C58.3345 30.8224 56.4529 29.12 53.7649 29.12C51.2561 29.12 49.2849 30.6432 49.1057 32.704H43.6849C43.6849 27.8656 47.9857 24.192 53.8993 24.192C59.8129 24.192 63.9345 27.9104 63.9345 33.2416C63.9345 37.184 61.6497 40.6784 56.0945 45.2928C53.3169 47.6224 51.7041 49.3696 50.9425 51.072H64.8305V56H44.4913Z" fill="white"/>
<path d="M21.7952 43.8144L20.8029 43.9384L21.0742 46.1089L22.5382 44.4837L21.7952 43.8144ZM31.9648 32.5248L32.7078 33.1941L33.1405 32.7138L32.8801 32.1221L31.9648 32.5248ZM33.0848 36.8256L34.0771 36.7016L33.8058 34.5311L32.3418 36.1563L33.0848 36.8256ZM22.9152 48.1152L22.1722 47.4459L21.7395 47.9262L21.9999 48.5179L22.9152 48.1152ZM27.44 55.448C24.2503 55.448 21.7574 54.1072 20.0238 51.6105C18.2603 49.0706 17.24 45.2648 17.24 40.32H15.24C15.24 45.5 16.3029 49.7582 18.381 52.7511C20.489 55.7872 23.5961 57.448 27.44 57.448V55.448ZM17.24 40.32C17.24 35.3752 18.2603 31.5694 20.0238 29.0295C21.7574 26.5328 24.2503 25.192 27.44 25.192V23.192C23.5961 23.192 20.489 24.8528 18.381 27.8889C16.3029 30.8818 15.24 35.14 15.24 40.32H17.24ZM27.44 25.192C30.6297 25.192 33.1226 26.5328 34.8562 29.0295C36.6197 31.5694 37.64 35.3752 37.64 40.32H39.64C39.64 35.14 38.5771 30.8818 36.499 27.8889C34.391 24.8528 31.2839 23.192 27.44 23.192V25.192ZM37.64 40.32C37.64 45.2648 36.6197 49.0706 34.8562 51.6105C33.1226 54.1072 30.6297 55.448 27.44 55.448V57.448C31.2839 57.448 34.391 55.7872 36.499 52.7511C38.5771 49.7582 39.64 45.5 39.64 40.32H37.64ZM22.5382 44.4837L32.7078 33.1941L31.2218 31.8555L21.0522 43.1451L22.5382 44.4837ZM32.8801 32.1221C32.3384 30.8909 31.6183 29.8847 30.6916 29.1845C29.7532 28.4755 28.6542 28.12 27.44 28.12V30.12C28.2418 30.12 28.9124 30.3469 29.486 30.7803C30.0713 31.2225 30.6056 31.9187 31.0495 32.9275L32.8801 32.1221ZM27.44 28.12C25.1261 28.12 23.3682 29.4262 22.246 31.5881C21.1492 33.7012 20.616 36.6851 20.616 40.32H22.616C22.616 36.8317 23.1356 34.2156 24.0212 32.5095C24.8814 30.8522 26.0355 30.12 27.44 30.12V28.12ZM20.616 40.32C20.616 41.5948 20.6613 42.8055 20.8029 43.9384L22.7875 43.6904C22.6603 42.6729 22.616 41.554 22.616 40.32H20.616ZM27.44 52.52C29.7539 52.52 31.5118 51.2138 32.634 49.0519C33.7308 46.9388 34.264 43.9549 34.264 40.32H32.264C32.264 43.8083 31.7444 46.4244 30.8588 48.1305C29.9986 49.7878 28.8445 50.52 27.44 50.52V52.52ZM34.264 40.32C34.264 39.0452 34.2187 37.8345 34.0771 36.7016L32.0925 36.9496C32.2197 37.9671 32.264 39.086 32.264 40.32H34.264ZM32.3418 36.1563L22.1722 47.4459L23.6582 48.7845L33.8278 37.4949L32.3418 36.1563ZM21.9999 48.5179C22.5416 49.7491 23.2617 50.7553 24.1884 51.4555C25.1268 52.1645 26.2258 52.52 27.44 52.52V50.52C26.6382 50.52 25.9676 50.2931 25.394 49.8597C24.8087 49.4175 24.2744 48.7213 23.8305 47.7125L21.9999 48.5179ZM44.4913 56H43.4913V57H44.4913V56ZM52.1521 41.9328L51.518 41.1595L51.5131 41.1636L52.1521 41.9328ZM49.1057 32.704V33.704H50.0225L50.1019 32.7906L49.1057 32.704ZM43.6849 32.704H42.6849V33.704H43.6849V32.704ZM56.0945 45.2928L55.4555 44.5236L55.4519 44.5266L56.0945 45.2928ZM50.9425 51.072L50.0297 50.6636L49.3996 52.072H50.9425V51.072ZM64.8305 51.072H65.8305V50.072H64.8305V51.072ZM64.8305 56V57H65.8305V56H64.8305ZM45.4913 56V53.536H43.4913V56H45.4913ZM45.4913 53.536C45.4913 50.2052 47.2756 47.2834 52.7911 42.702L51.5131 41.1636C45.9182 45.811 43.4913 49.2508 43.4913 53.536H45.4913ZM52.7862 42.7061C57.244 39.0506 59.3345 36.4489 59.3345 33.4208H57.3345C57.3345 35.4103 56.0202 37.4678 51.518 41.1595L52.7862 42.7061ZM59.3345 33.4208C59.3345 31.8683 58.7658 30.5195 57.7389 29.5639C56.719 28.6148 55.3199 28.12 53.7649 28.12V30.12C54.8979 30.12 55.7836 30.4764 56.3765 31.0281C56.9624 31.5733 57.3345 32.3749 57.3345 33.4208H59.3345ZM53.7649 28.12C50.8994 28.12 48.3464 29.8928 48.1095 32.6174L50.1019 32.7906C50.2234 31.3936 51.6128 30.12 53.7649 30.12V28.12ZM49.1057 31.704H43.6849V33.704H49.1057V31.704ZM44.6849 32.704C44.6849 28.5746 48.367 25.192 53.8993 25.192V23.192C47.6044 23.192 42.6849 27.1566 42.6849 32.704H44.6849ZM53.8993 25.192C56.6473 25.192 58.9057 26.0541 60.4648 27.4602C62.0162 28.8594 62.9345 30.8483 62.9345 33.2416H64.9345C64.9345 30.3037 63.792 27.7678 61.8042 25.975C59.8241 24.1891 57.0649 23.192 53.8993 23.192V25.192ZM62.9345 33.2416C62.9345 36.7134 60.9615 39.9501 55.4555 44.5236L56.7335 46.062C62.3379 41.4067 64.9345 37.6546 64.9345 33.2416H62.9345ZM55.4519 44.5266C52.6643 46.8646 50.8919 48.7363 50.0297 50.6636L51.8553 51.4804C52.5163 50.0029 53.9695 48.3802 56.7371 46.059L55.4519 44.5266ZM50.9425 52.072H64.8305V50.072H50.9425V52.072ZM63.8305 51.072V56H65.8305V51.072H63.8305ZM64.8305 55H44.4913V57H64.8305V55Z" fill="white" mask="url(#path-2-outside-1_3669_26881)"/>
</svg>
