<svg width="525" height="351" viewBox="0 0 525 351" fill="none" xmlns="http://www.w3.org/2000/svg">
<g clip-path="url(#clip0_3741_29847)">
<rect width="525" height="351" rx="8" fill="#F8F8F8"/>
<rect width="525" height="56" fill="white"/>
<rect x="16" y="16" width="30" height="24" rx="4" fill="#1A1A1A"/>
<path d="M25.8 34.16C23.288 34.16 21.8 32.016 21.8 28.4C21.8 24.784 23.288 22.64 25.8 22.64C28.312 22.64 29.8 24.784 29.8 28.4C29.8 32.016 28.312 34.16 25.8 34.16ZM23.784 29.648L27.416 25.616C27.064 24.816 26.52 24.4 25.8 24.4C24.472 24.4 23.72 25.856 23.72 28.4C23.72 28.848 23.736 29.264 23.784 29.648ZM25.8 32.4C27.128 32.4 27.88 30.944 27.88 28.4C27.88 27.952 27.864 27.536 27.816 27.152L24.184 31.184C24.536 31.984 25.08 32.4 25.8 32.4ZM31.7938 34V32.24H34.5938V24.896L31.7938 26.576V24.592L34.7538 22.8H36.5938V32.24H39.3138V34H31.7938Z" fill="white"/>
<path d="M56.832 31.12H58.224C58.336 32.16 59.328 32.896 60.624 32.896C61.984 32.896 62.928 32.096 62.928 30.944C62.928 29.952 62.24 29.344 60.864 29.056L60.208 28.928C58.16 28.528 57.12 27.504 57.12 25.856C57.12 23.936 58.528 22.64 60.608 22.64C62.608 22.64 64.16 23.856 64.256 25.52H62.864C62.736 24.608 61.808 23.952 60.64 23.952C59.408 23.952 58.576 24.688 58.576 25.776C58.576 26.704 59.184 27.28 60.416 27.52L61.056 27.648C63.264 28.08 64.384 29.152 64.384 30.864C64.384 32.864 62.88 34.224 60.672 34.224C58.512 34.224 56.896 32.912 56.832 31.12ZM69.9458 34V24.128H66.6018V22.8H74.7618V24.128H71.4338V34H69.9458ZM76.8995 34H75.4275L78.7875 22.8H80.8195L84.1635 34H82.6755L81.7475 30.912H77.8115L76.8995 34ZM78.1955 29.584H81.3635L79.8115 24.352H79.7475L78.1955 29.584ZM87.7413 27.76H90.3653C91.3893 27.76 92.0933 27.024 92.0933 25.936C92.0933 24.848 91.3893 24.128 90.3653 24.128H87.7413V27.76ZM86.2373 34V22.8H90.2853C92.1893 22.8 93.5333 24.08 93.5333 25.936C93.5333 27.456 92.6373 28.576 91.2933 28.96L93.8533 34H92.2213L89.7253 29.088H87.7413V34H86.2373ZM98.439 34V24.128H95.095V22.8H103.255V24.128H99.927V34H98.439ZM112.529 22.8V30.48C112.529 32.624 110.961 34.16 108.769 34.16C106.577 34.16 105.009 32.624 105.009 30.48V22.8H106.513V30.48C106.513 31.856 107.425 32.784 108.769 32.784C110.129 32.784 111.041 31.856 111.041 30.48V22.8H112.529ZM115.547 34V22.8H119.627C121.579 22.8 122.955 24.144 122.955 26.064C122.955 27.968 121.579 29.328 119.627 29.328H117.051V34H115.547ZM117.051 28H119.707C120.779 28 121.515 27.216 121.515 26.064C121.515 24.896 120.779 24.128 119.707 24.128H117.051V28Z" fill="#0A0A0A"/>
<path d="M471.344 34V33.392C471.344 32.112 472.128 30.928 474.192 29.12C475.888 27.632 476.544 26.72 476.544 25.744C476.544 24.672 475.76 23.952 474.624 23.952C473.536 23.952 472.688 24.608 472.592 25.52H471.136C471.184 23.872 472.672 22.64 474.656 22.64C476.64 22.64 478.048 23.888 478.048 25.696C478.048 27.072 477.216 28.32 475.2 30.064C473.952 31.152 473.28 31.936 473.024 32.688H478.496V34H471.344ZM484.394 34.16C481.994 34.16 480.554 32.016 480.554 28.4C480.554 24.784 481.994 22.64 484.394 22.64C486.81 22.64 488.234 24.784 488.234 28.4C488.234 32.016 486.81 34.16 484.394 34.16ZM482.138 30.144L486.346 25.472C485.946 24.48 485.274 23.952 484.394 23.952C482.858 23.952 481.994 25.552 481.994 28.4C481.994 29.04 482.042 29.632 482.138 30.144ZM484.394 32.848C485.93 32.848 486.794 31.232 486.794 28.4C486.794 27.744 486.762 27.168 486.666 26.656L482.458 31.328C482.858 32.32 483.514 32.848 484.394 32.848ZM490.532 34V33.392C490.532 32.112 491.316 30.928 493.38 29.12C495.076 27.632 495.732 26.72 495.732 25.744C495.732 24.672 494.948 23.952 493.812 23.952C492.724 23.952 491.876 24.608 491.78 25.52H490.324C490.372 23.872 491.86 22.64 493.844 22.64C495.828 22.64 497.236 23.888 497.236 25.696C497.236 27.072 496.404 28.32 494.388 30.064C493.14 31.152 492.468 31.936 492.212 32.688H497.684V34H490.532ZM499.421 31.392V29.952L503.837 22.8H505.901V30.064H507.869V31.392H505.901V34H504.461V31.392H499.421ZM504.397 24.128L500.765 30.064H504.461V24.128H504.397Z" fill="#0A0A0A"/>
<rect x="35.3" y="88.3" width="557.4" height="105.627" rx="39.278" fill="white"/>
<rect x="35.3" y="88.3" width="557.4" height="105.627" rx="39.278" stroke="#CDCDCD" stroke-width="0.6"/>
<path fill-rule="evenodd" clip-rule="evenodd" d="M74.578 124.622C65.4704 124.622 58.0872 132.006 58.0872 141.113C58.0872 150.221 65.4704 157.604 74.578 157.604C83.6856 157.604 91.0688 150.221 91.0688 141.113C91.0688 132.006 83.6856 124.622 74.578 124.622ZM80.4825 137.774C80.9151 137.245 80.8371 136.466 80.3084 136.033C79.7797 135.601 79.0005 135.679 78.568 136.207L72.0125 144.22L69.6808 141.888C69.1978 141.405 68.4146 141.405 67.9316 141.888C67.4486 142.371 67.4486 143.154 67.9316 143.637L71.2298 146.935C71.4769 147.182 71.8169 147.313 72.166 147.296C72.515 147.278 72.8404 147.114 73.0617 146.844L80.4825 137.774Z" fill="#1A1A1A" fill-opacity="0.6"/>
<path d="M115.818 133.789V119.91H111.913V117.958H113.496C115.555 117.958 116.293 117.272 116.293 115.055H118.087V133.789H115.818ZM127.408 134.106C123.662 134.106 121.577 132.127 121.366 129.383L123.688 129.224C123.952 130.913 125.034 131.995 127.408 131.995C129.308 131.995 130.548 131.414 130.548 130.042C130.548 128.934 129.994 128.459 126.986 127.932C122.976 127.219 121.709 125.979 121.709 123.763C121.709 121.282 123.609 119.488 126.986 119.488C130.39 119.488 132.184 121.546 132.606 123.974L130.284 124.132C129.968 122.654 128.86 121.599 126.96 121.599C124.954 121.599 124.031 122.47 124.031 123.657C124.031 125.029 124.928 125.557 127.408 125.979C131.683 126.718 132.87 127.826 132.87 130.042C132.87 132.628 130.495 134.106 127.408 134.106ZM140.209 133.789C137.676 133.789 136.489 132.681 136.489 130.201V121.757H134.431V119.805H136.489V116.533H138.705V119.805H142.425V121.757H138.705V130.148C138.705 131.414 139.259 131.837 140.42 131.837H142.425V133.789H140.209ZM156.953 134.106C153.048 134.106 150.541 131.23 150.541 126.797C150.541 122.364 153.048 119.488 156.953 119.488C160.172 119.488 162.415 121.23 162.89 124.343L160.568 124.501C160.251 122.654 158.853 121.599 156.953 121.599C154.367 121.599 152.863 123.552 152.863 126.797C152.863 130.042 154.367 131.995 156.953 131.995C158.853 131.995 160.251 130.939 160.568 128.829L162.89 128.987C162.415 132.1 160.172 134.106 156.953 134.106ZM170.835 134.106C166.957 134.106 164.424 131.256 164.424 126.797C164.424 122.338 166.957 119.488 170.835 119.488C174.688 119.488 177.221 122.338 177.221 126.797C177.221 131.256 174.688 134.106 170.835 134.106ZM170.835 131.995C173.395 131.995 174.899 130.042 174.899 126.797C174.899 123.552 173.395 121.599 170.835 121.599C168.25 121.599 166.746 123.552 166.746 126.797C166.746 130.042 168.25 131.995 170.835 131.995ZM182.85 133.789C181.214 133.789 180.106 132.998 180.106 131.151V115.055H182.322V130.966C182.322 131.546 182.613 131.837 183.193 131.837H184.407V133.789H182.85ZM189.363 133.789C187.727 133.789 186.619 132.998 186.619 131.151V115.055H188.835V130.966C188.835 131.546 189.125 131.837 189.706 131.837H190.92V133.789H189.363ZM198.697 134.106C194.739 134.106 192.285 131.23 192.285 126.797C192.285 122.364 194.739 119.488 198.591 119.488C202.232 119.488 204.765 122.127 204.765 126.823V127.483H194.607C194.765 130.491 196.269 131.995 198.697 131.995C200.517 131.995 201.705 131.071 202.179 129.647L204.554 129.831C203.815 132.338 201.652 134.106 198.697 134.106ZM194.607 125.53H202.338C202.127 122.839 200.649 121.599 198.591 121.599C196.427 121.599 194.976 122.945 194.607 125.53ZM212.965 134.106C209.06 134.106 206.554 131.23 206.554 126.797C206.554 122.364 209.06 119.488 212.965 119.488C216.184 119.488 218.427 121.23 218.902 124.343L216.58 124.501C216.263 122.654 214.865 121.599 212.965 121.599C210.38 121.599 208.876 123.552 208.876 126.797C208.876 130.042 210.38 131.995 212.965 131.995C214.865 131.995 216.263 130.939 216.58 128.829L218.902 128.987C218.427 132.1 216.184 134.106 212.965 134.106ZM225.963 133.789C223.43 133.789 222.243 132.681 222.243 130.201V121.757H220.185V119.805H222.243V116.533H224.459V119.805H228.18V121.757H224.459V130.148C224.459 131.414 225.013 131.837 226.174 131.837H228.18V133.789H225.963ZM230.706 117.615V115.029H233.028V117.615H230.706ZM230.759 133.789V119.805H232.975V133.789H230.759ZM242.141 134.106C238.262 134.106 235.729 131.256 235.729 126.797C235.729 122.338 238.262 119.488 242.141 119.488C245.993 119.488 248.526 122.338 248.526 126.797C248.526 131.256 245.993 134.106 242.141 134.106ZM242.141 131.995C244.7 131.995 246.204 130.042 246.204 126.797C246.204 123.552 244.7 121.599 242.141 121.599C239.555 121.599 238.051 123.552 238.051 126.797C238.051 130.042 239.555 131.995 242.141 131.995ZM251.283 133.789V119.805H253.314L253.367 122.311C254.106 120.385 255.742 119.488 257.668 119.488C260.86 119.488 262.391 121.837 262.391 124.792V133.789H260.174V125.425C260.174 122.839 259.304 121.441 257.193 121.441C255.029 121.441 253.499 122.839 253.499 125.425V133.789H251.283Z" fill="#1A1A1A"/>
<path d="M112.243 166.438C112.243 163.295 113.672 161.14 118.112 158.832C120.486 157.601 121.497 156.788 121.497 155.029C121.497 153.249 120.31 151.952 118.024 151.952C115.672 151.952 114.265 153.249 113.891 155.623L112.331 155.513C112.682 152.413 114.749 150.479 118.024 150.479C121.19 150.479 123.058 152.369 123.058 154.985C123.058 157.381 121.871 158.59 118.706 160.217C115.716 161.778 114.177 163.514 114.067 164.987H123.058V166.438H112.243ZM133.745 166.438V150.831H135.24V164.987H143.241V166.438H133.745ZM146.002 166.438V150.831H147.497V166.438H146.002ZM152.484 166.438V150.831H153.979V159.184L161.629 150.831H163.519L157.32 157.601L163.959 166.438H162.156L156.331 158.7L153.979 161.25V166.438H152.484ZM167.038 166.438V150.831H176.644V152.282H168.533V157.909H176.38V159.338H168.533V164.987H176.82V166.438H167.038ZM186.18 166.79C182.684 166.79 180.332 164.57 180.156 161.514L181.717 161.404C181.915 163.756 183.542 165.317 186.223 165.317C188.532 165.317 190.026 164.306 190.026 162.481C190.026 160.965 189.257 159.997 185.366 159.052C181.827 158.195 180.486 157.184 180.486 154.809C180.486 152.303 182.399 150.479 185.63 150.479C189.059 150.479 191.016 152.699 191.235 155.381L189.675 155.491C189.499 153.491 188.114 151.952 185.586 151.952C183.388 151.952 182.047 153.095 182.047 154.766C182.047 156.37 182.882 156.964 186.223 157.777C190.334 158.766 191.609 160.217 191.609 162.415C191.609 165.097 189.279 166.79 186.18 166.79ZM200.969 168.856L207.454 149.951H208.861L202.376 168.856H200.969ZM223.916 166.79C221.476 166.79 219.827 165.449 219.255 163.536L220.838 163.405C221.234 164.614 222.267 165.317 223.916 165.317C226.487 165.317 227.982 163.339 228.224 159.052C227.345 160.547 225.872 161.382 224.091 161.382C221.058 161.382 218.926 159.206 218.926 156.019C218.926 152.655 221.146 150.479 224.245 150.479C228.048 150.479 229.807 153.249 229.807 157.579C229.807 162.811 228.334 166.79 223.916 166.79ZM224.179 159.909C226.466 159.909 228.158 158.437 228.158 156.084C228.158 153.732 226.641 151.952 224.245 151.952C221.959 151.952 220.508 153.644 220.508 156.019C220.508 158.371 222.003 159.909 224.179 159.909ZM240.514 166.438V150.831H245.218C249.966 150.831 252.626 153.644 252.626 158.656C252.626 163.646 250.032 166.438 245.35 166.438H240.514ZM242.009 164.987H245.218C249.065 164.987 251.065 162.811 251.065 158.656C251.065 154.458 249.065 152.282 245.218 152.282H242.009V164.987ZM256.313 166.438V150.831H257.807V166.438H256.313ZM267.748 166.79C264.252 166.79 261.9 164.57 261.724 161.514L263.285 161.404C263.483 163.756 265.11 165.317 267.792 165.317C270.1 165.317 271.594 164.306 271.594 162.481C271.594 160.965 270.825 159.997 266.934 159.052C263.395 158.195 262.054 157.184 262.054 154.809C262.054 152.303 263.967 150.479 267.198 150.479C270.627 150.479 272.584 152.699 272.803 155.381L271.243 155.491C271.067 153.491 269.682 151.952 267.154 151.952C264.956 151.952 263.615 153.095 263.615 154.766C263.615 156.37 264.45 156.964 267.792 157.777C271.902 158.766 273.177 160.217 273.177 162.415C273.177 165.097 270.847 166.79 267.748 166.79ZM277.113 166.438V150.831H278.607V164.987H286.609V166.438H277.113ZM289.369 166.438V150.831H290.864V166.438H289.369ZM295.852 166.438V150.831H297.346V159.184L304.996 150.831H306.887L300.688 157.601L307.326 166.438H305.524L299.698 158.7L297.346 161.25V166.438H295.852ZM310.405 166.438V150.831H320.012V152.282H311.9V157.909H319.748V159.338H311.9V164.987H320.188V166.438H310.405ZM329.547 166.79C326.052 166.79 323.7 164.57 323.524 161.514L325.085 161.404C325.282 163.756 326.909 165.317 329.591 165.317C331.899 165.317 333.394 164.306 333.394 162.481C333.394 160.965 332.625 159.997 328.734 159.052C325.195 158.195 323.854 157.184 323.854 154.809C323.854 152.303 325.766 150.479 328.997 150.479C332.427 150.479 334.383 152.699 334.603 155.381L333.042 155.491C332.866 153.491 331.481 151.952 328.953 151.952C326.755 151.952 325.414 153.095 325.414 154.766C325.414 156.37 326.25 156.964 329.591 157.777C333.702 158.766 334.977 160.217 334.977 162.415C334.977 165.097 332.646 166.79 329.547 166.79Z" fill="#1A1A1A" fill-opacity="0.6"/>
</g>
<rect x="0.4" y="0.4" width="524.2" height="350.2" rx="7.6" stroke="#CDCDCD" stroke-width="0.8"/>
<defs>
<clipPath id="clip0_3741_29847">
<rect width="525" height="351" rx="8" fill="white"/>
</clipPath>
</defs>
</svg>
