<svg width="584" height="365" viewBox="0 0 584 365" fill="none" xmlns="http://www.w3.org/2000/svg">
<path d="M0.400024 359.745C0.400024 359.747 0.400024 359.748 0.224304 359.748H0.400024C0.400024 362.375 2.88733 364.6 6.08337 364.6H577.917C581.113 364.6 583.6 362.375 583.6 359.748V12.255V5.25264C583.6 2.62624 581.113 0.400854 577.917 0.400854V0.000854323C577.917 0.400854 577.916 0.400854 577.915 0.400854L577.908 0.400854L577.883 0.400854L577.782 0.400853L577.381 0.40085L575.811 0.400837L569.791 0.40079L547.781 0.40063L476.312 0.40022C421.201 0.399971 357.472 0.39986 323 0.40041C322.814 0.400413 322.575 0.489875 322.275 0.741413C321.978 0.991309 321.655 1.37336 321.31 1.88698C320.62 2.91335 319.885 4.39743 319.116 6.20567C317.719 9.49038 316.236 13.7742 314.715 18.1667C314.563 18.6061 314.411 19.0466 314.258 19.4872C312.582 24.3221 310.866 29.1803 309.186 32.8305C308.346 34.6538 307.507 36.1974 306.673 37.2909C306.256 37.838 305.83 38.2867 305.394 38.6015C304.957 38.9167 304.49 39.1119 304 39.1119L6.36346 39.1122C3.16742 39.1122 0.680115 41.3376 0.680115 43.964C0.680115 45.4145 0.610046 124.361 0.540039 202.944L0.443787 310.815L0.412048 346.299L0.403137 356.234L0.400818 358.851L0.400208 359.522L0.400024 359.692V359.734V359.745Z" fill="url(#paint0_linear_3492_41067)" stroke="#C7C7C6" stroke-width="0.8"/>
<defs>
<linearGradient id="paint0_linear_3492_41067" x1="73" y1="10" x2="497" y2="365" gradientUnits="userSpaceOnUse">
<stop offset="0.32" stop-color="#F2F2F2"/>
<stop offset="0.769423" stop-color="#EBEBEB"/>
</linearGradient>
</defs>
</svg>
