<svg width="525" height="351" viewBox="0 0 525 351" fill="none" xmlns="http://www.w3.org/2000/svg">
<g clip-path="url(#clip0_3501_49058)">
<rect width="525" height="351" rx="8" fill="#F8F8F8"/>
<rect width="525" height="56" fill="white"/>
<rect x="35.8" y="87.8" width="1260.4" height="941.9" rx="8.95" stroke="#CDCDCD" stroke-width="0.4"/>
<path d="M36 102C36 97.0995 36 94.6493 36.9537 92.7776C37.7926 91.1312 39.1312 89.7926 40.7776 88.9537C42.6493 88 45.0995 88 50 88H1282C1286.9 88 1289.35 88 1291.22 88.9537C1292.87 89.7926 1294.21 91.1312 1295.05 92.7776C1296 94.6493 1296 97.0995 1296 102V133.5H36V102Z" fill="#FDFDFD"/>
<g clip-path="url(#clip1_3501_49058)">
<path d="M124.139 117.325H136.567C138.143 117.325 138.964 116.511 138.964 114.957V106.118C138.964 104.563 138.143 103.75 136.567 103.75H124.139C122.57 103.75 121.75 104.556 121.75 106.118V114.957C121.75 116.511 122.57 117.325 124.139 117.325ZM124.234 115.88C123.566 115.88 123.195 115.531 123.195 114.826V106.249C123.195 105.544 123.566 105.195 124.234 105.195H127.546V115.88H124.234ZM136.472 105.195C137.14 105.195 137.511 105.544 137.511 106.249V114.826C137.511 115.531 137.14 115.88 136.472 115.88H128.919V105.195H136.472ZM126.122 107.854C126.384 107.854 126.602 107.629 126.602 107.382C126.602 107.135 126.384 106.917 126.122 106.917H124.633C124.372 106.917 124.154 107.135 124.154 107.382C124.154 107.629 124.372 107.854 124.633 107.854H126.122ZM126.122 109.807C126.384 109.807 126.602 109.59 126.602 109.335C126.602 109.088 126.384 108.871 126.122 108.871H124.633C124.372 108.871 124.154 109.088 124.154 109.335C124.154 109.59 124.372 109.807 124.633 109.807H126.122ZM126.122 111.754C126.384 111.754 126.602 111.543 126.602 111.289C126.602 111.042 126.384 110.832 126.122 110.832H124.633C124.372 110.832 124.154 111.042 124.154 111.289C124.154 111.543 124.372 111.754 124.633 111.754H126.122Z" fill="#717171"/>
<path d="M166.724 116.082L161.405 110.88C161.221 110.696 161.125 110.49 161.125 110.251C161.125 110.012 161.221 109.793 161.412 109.615L166.73 104.42C166.881 104.27 167.072 104.188 167.291 104.188C167.749 104.188 168.104 104.543 168.104 104.994C168.104 105.213 168.016 105.425 167.858 105.582L163.073 110.244L167.858 114.92C168.016 115.077 168.104 115.282 168.104 115.508C168.104 115.959 167.749 116.315 167.291 116.315C167.072 116.315 166.881 116.233 166.724 116.082Z" fill="#717171"/>
<path d="M193.001 116.315C193.226 116.315 193.411 116.233 193.568 116.082L198.886 110.887C199.071 110.696 199.167 110.497 199.167 110.251C199.167 110.012 199.078 109.8 198.886 109.622L193.568 104.42C193.411 104.27 193.226 104.188 193.001 104.188C192.543 104.188 192.187 104.543 192.187 104.994C192.187 105.213 192.283 105.425 192.433 105.582L197.225 110.258L192.433 114.92C192.276 115.084 192.187 115.282 192.187 115.508C192.187 115.959 192.543 116.315 193.001 116.315Z" fill="#BDBCBC"/>
</g>
<g clip-path="url(#clip2_3501_49058)">
<circle cx="58.7495" cy="110.75" r="5.25" fill="#ED6A5E"/>
<circle cx="58.7495" cy="110.75" r="4.8125" stroke="black" stroke-opacity="0.1" stroke-width="0.875"/>
<circle cx="76.25" cy="110.75" r="5.25" fill="#F4BD50"/>
<circle cx="76.25" cy="110.75" r="4.8125" stroke="black" stroke-opacity="0.1" stroke-width="0.875"/>
<circle cx="93.7498" cy="110.75" r="5.25" fill="#61C454"/>
<circle cx="93.7498" cy="110.75" r="4.8125" stroke="black" stroke-opacity="0.1" stroke-width="0.875"/>
</g>
<path d="M421.219 106.9C421.219 103.96 421.219 102.49 421.791 101.367C422.294 100.379 423.097 99.5756 424.085 99.0722C425.208 98.5 426.678 98.5 429.619 98.5H901.944C904.884 98.5 906.354 98.5 907.477 99.0722C908.465 99.5756 909.268 100.379 909.772 101.367C910.344 102.49 910.344 103.96 910.344 106.9V114.6C910.344 117.54 910.344 119.01 909.772 120.133C909.268 121.121 908.465 121.924 907.477 122.428C906.354 123 904.884 123 901.944 123H429.619C426.678 123 425.208 123 424.085 122.428C423.097 121.924 422.294 121.121 421.791 120.133C421.219 119.01 421.219 117.54 421.219 114.6V106.9Z" fill="#F0F0F0"/>
<path d="M401.094 117.75C401.224 117.75 401.42 117.706 401.601 117.604C405.771 115.316 407.219 114.256 407.219 111.596V106.077C407.219 105.2 406.879 104.885 406.155 104.571C405.351 104.228 402.651 103.277 401.861 103.007C401.623 102.926 401.34 102.875 401.094 102.875C400.848 102.875 400.565 102.941 400.327 103.007C399.537 103.233 396.837 104.235 396.033 104.571C395.309 104.878 394.969 105.2 394.969 106.077V111.596C394.969 114.256 396.424 115.302 400.58 117.604C400.768 117.706 400.964 117.75 401.094 117.75ZM401.485 104.352C402.433 104.732 404.497 105.47 405.583 105.858C405.785 105.938 405.836 106.048 405.836 106.311V111.325C405.836 113.467 404.772 114.044 401.507 116.032C401.304 116.157 401.203 116.201 401.101 116.201V104.271C401.203 104.271 401.311 104.293 401.485 104.352Z" fill="#717171"/>
<g clip-path="url(#clip3_3501_49058)">
<rect width="1260" height="896" transform="translate(36 133.5)" fill="#F3F2F0"/>
<mask id="path-17-inside-1_3501_49058" fill="white">
<path d="M36 182.5H1296V252.5H36V182.5Z"/>
</mask>
<path d="M36 182.5H1296V252.5H36V182.5Z" fill="white"/>
<path d="M1296 251.625H36V253.375H1296V251.625Z" fill="black" fill-opacity="0.08" mask="url(#path-17-inside-1_3501_49058)"/>
<path d="M80.275 210.5L75.375 217.5L80.275 224.5H82.375L78.0875 218.375H93.75V216.625H78.0875L82.375 210.5H80.275Z" fill="black" fill-opacity="0.75"/>
<path d="M128.818 209.309C128.394 209.309 128.041 208.956 128.041 208.532C128.041 208.101 128.394 207.754 128.818 207.754C129.249 207.754 129.596 208.101 129.596 208.532C129.596 208.956 129.249 209.309 128.818 209.309ZM132.324 209.309C131.899 209.309 131.546 208.956 131.546 208.532C131.546 208.101 131.899 207.754 132.324 207.754C132.754 207.754 133.101 208.101 133.101 208.532C133.101 208.956 132.754 209.309 132.324 209.309ZM135.829 209.309C135.405 209.309 135.052 208.956 135.052 208.532C135.052 208.101 135.405 207.754 135.829 207.754C136.26 207.754 136.607 208.101 136.607 208.532C136.607 208.956 136.26 209.309 135.829 209.309Z" fill="black" fill-opacity="0.6"/>
<path d="M145.226 200.241L142.499 211.403H141.5L144.228 200.241H145.226Z" fill="black" fill-opacity="0.6"/>
<path d="M153.601 209.25V200.618H154.677V208.281H158.84V209.25H153.601ZM162.633 209.363C160.791 209.363 159.678 208.071 159.678 206.049V206.043C159.678 204.052 160.815 202.688 162.567 202.688C164.32 202.688 165.384 203.992 165.384 205.918V206.325H160.743C160.773 207.658 161.508 208.436 162.657 208.436C163.53 208.436 164.068 208.023 164.242 207.635L164.266 207.581H165.307L165.295 207.629C165.073 208.502 164.152 209.363 162.633 209.363ZM162.561 203.615C161.604 203.615 160.874 204.267 160.761 205.493H164.326C164.218 204.219 163.512 203.615 162.561 203.615ZM168.639 209.363C167.412 209.363 166.485 208.621 166.485 207.449V207.437C166.485 206.289 167.335 205.625 168.836 205.535L170.684 205.421V204.835C170.684 204.04 170.2 203.609 169.237 203.609C168.465 203.609 167.957 203.896 167.789 204.399L167.783 204.417H166.743L166.748 204.381C166.916 203.37 167.897 202.688 169.273 202.688C170.846 202.688 171.725 203.495 171.725 204.835V209.25H170.684V208.298H170.589C170.182 208.986 169.506 209.363 168.639 209.363ZM167.55 207.425C167.55 208.077 168.106 208.46 168.854 208.46C169.913 208.46 170.684 207.766 170.684 206.845V206.259L168.962 206.366C167.981 206.426 167.55 206.773 167.55 207.413V207.425ZM175.877 209.363C174.244 209.363 173.173 208.041 173.173 206.031V206.02C173.173 203.998 174.238 202.688 175.877 202.688C176.762 202.688 177.533 203.13 177.886 203.818H177.982V200.241H179.023V209.25H177.982V208.221H177.886C177.492 208.938 176.774 209.363 175.877 209.363ZM176.116 208.442C177.288 208.442 178.006 207.521 178.006 206.031V206.02C178.006 204.53 177.288 203.609 176.116 203.609C174.937 203.609 174.238 204.518 174.238 206.02V206.031C174.238 207.533 174.937 208.442 176.116 208.442ZM186.859 211.522C185.304 211.522 184.311 210.823 184.15 209.764L184.162 209.758H185.238L185.244 209.764C185.358 210.254 185.932 210.601 186.859 210.601C188.014 210.601 188.701 210.057 188.701 209.106V207.802H188.606C188.199 208.514 187.469 208.915 186.584 208.915C184.915 208.915 183.88 207.623 183.88 205.816V205.804C183.88 203.998 184.921 202.688 186.608 202.688C187.517 202.688 188.223 203.136 188.618 203.866H188.689V202.802H189.73V209.16C189.73 210.601 188.618 211.522 186.859 211.522ZM186.811 207.993C188.008 207.993 188.725 207.096 188.725 205.816V205.804C188.725 204.524 188.002 203.609 186.811 203.609C185.615 203.609 184.945 204.524 184.945 205.804V205.816C184.945 207.096 185.615 207.993 186.811 207.993ZM194.169 209.363C192.327 209.363 191.214 208.071 191.214 206.049V206.043C191.214 204.052 192.35 202.688 194.103 202.688C195.856 202.688 196.92 203.992 196.92 205.918V206.325H192.279C192.309 207.658 193.044 208.436 194.193 208.436C195.066 208.436 195.604 208.023 195.778 207.635L195.802 207.581H196.843L196.831 207.629C196.609 208.502 195.688 209.363 194.169 209.363ZM194.097 203.615C193.14 203.615 192.41 204.267 192.297 205.493H195.862C195.754 204.219 195.048 203.615 194.097 203.615ZM198.404 209.25V202.802H199.445V203.771H199.54C199.863 203.089 200.468 202.688 201.419 202.688C202.866 202.688 203.674 203.543 203.674 205.074V209.25H202.633V205.326C202.633 204.165 202.154 203.609 201.126 203.609C200.097 203.609 199.445 204.303 199.445 205.433V209.25H198.404ZM212.347 209.453C210.003 209.453 208.537 207.718 208.537 204.943V204.931C208.537 202.15 209.997 200.415 212.341 200.415C214.16 200.415 215.577 201.557 215.835 203.214L215.829 203.226H214.746L214.74 203.214C214.453 202.108 213.532 201.408 212.341 201.408C210.685 201.408 209.644 202.772 209.644 204.931V204.943C209.644 207.102 210.685 208.46 212.347 208.46C213.55 208.46 214.465 207.844 214.734 206.851L214.746 206.839H215.835V206.851C215.548 208.43 214.184 209.453 212.347 209.453ZM221.087 209.453C218.7 209.453 217.175 207.694 217.175 204.937V204.925C217.175 202.203 218.724 200.415 221.087 200.415C223.001 200.415 224.347 201.492 224.688 203.13L224.699 203.19H223.611L223.593 203.13C223.24 202.018 222.373 201.408 221.087 201.408C219.376 201.408 218.275 202.784 218.275 204.925V204.937C218.275 207.108 219.358 208.46 221.093 208.46C222.636 208.46 223.677 207.473 223.677 206.014V205.804H221.254V204.859H224.753V205.912C224.753 208.041 223.294 209.453 221.087 209.453ZM229.623 206.259V205.29H233.642V206.259H229.623ZM241.634 209.453C239.744 209.453 238.524 208.46 238.398 207.054L238.392 206.989H239.469L239.475 207.054C239.553 207.916 240.45 208.46 241.694 208.46C242.866 208.46 243.722 207.856 243.722 206.977V206.971C243.722 206.253 243.225 205.762 242.041 205.499L241.084 205.29C239.355 204.907 238.608 204.111 238.608 202.861V202.855C238.614 201.426 239.864 200.415 241.646 200.415C243.369 200.415 244.571 201.432 244.661 202.718L244.667 202.802H243.59L243.578 202.724C243.459 201.964 242.741 201.402 241.616 201.408C240.54 201.414 239.708 201.922 239.708 202.825V202.831C239.708 203.519 240.181 203.986 241.353 204.243L242.31 204.458C244.111 204.859 244.822 205.583 244.822 206.827V206.833C244.822 208.448 243.56 209.453 241.634 209.453ZM248.986 209.363C247.144 209.363 246.031 208.071 246.031 206.049V206.043C246.031 204.052 247.167 202.688 248.92 202.688C250.673 202.688 251.737 203.992 251.737 205.918V206.325H247.096C247.126 207.658 247.861 208.436 249.01 208.436C249.883 208.436 250.421 208.023 250.595 207.635L250.619 207.581H251.66L251.648 207.629C251.426 208.502 250.505 209.363 248.986 209.363ZM248.914 203.615C247.957 203.615 247.227 204.267 247.114 205.493H250.679C250.571 204.219 249.865 203.615 248.914 203.615ZM253.221 211.403V202.802H254.262V203.83H254.358C254.752 203.113 255.47 202.688 256.367 202.688C258 202.688 259.071 204.01 259.071 206.02V206.031C259.071 208.053 258.006 209.363 256.367 209.363C255.482 209.363 254.71 208.921 254.358 208.233H254.262V211.403H253.221ZM256.128 208.442C257.306 208.442 258.006 207.533 258.006 206.031V206.02C258.006 204.518 257.306 203.609 256.128 203.609C254.956 203.609 254.238 204.53 254.238 206.02V206.031C254.238 207.521 254.956 208.442 256.128 208.442ZM262.858 209.297C261.53 209.297 260.973 208.807 260.973 207.575V203.663H259.957V202.802H260.973V201.133H262.05V202.802H263.462V203.663H262.05V207.312C262.05 208.071 262.313 208.376 262.983 208.376C263.169 208.376 263.27 208.37 263.462 208.352V209.238C263.258 209.273 263.061 209.297 262.858 209.297ZM271.244 209.453C269.665 209.453 267.996 208.34 267.996 205.092V205.08C267.996 202.138 269.222 200.415 271.316 200.415C272.763 200.415 273.84 201.264 274.133 202.538L274.151 202.616H273.069L273.045 202.55C272.781 201.827 272.177 201.378 271.304 201.378C269.737 201.378 269.097 202.909 269.031 204.71C269.025 204.775 269.025 204.847 269.025 204.913H269.139C269.456 204.207 270.269 203.579 271.436 203.579C273.057 203.579 274.265 204.811 274.265 206.468V206.48C274.265 208.203 272.985 209.453 271.244 209.453ZM269.282 206.468C269.282 207.605 270.138 208.502 271.232 208.502C272.315 208.502 273.182 207.623 273.182 206.504V206.492C273.182 205.344 272.369 204.518 271.25 204.518C270.132 204.518 269.282 205.338 269.282 206.462V206.468ZM275.186 211.445L275.707 208.041H276.897L275.958 211.445H275.186ZM282.263 209.25V208.508L285.182 205.35C286.283 204.159 286.606 203.711 286.606 202.957V202.945C286.606 202.036 285.989 201.354 284.973 201.354C283.938 201.354 283.25 202.03 283.25 203.047L283.244 203.059L282.215 203.053L282.203 203.047C282.209 201.516 283.394 200.415 285.044 200.415C286.552 200.415 287.706 201.438 287.706 202.831V202.843C287.706 203.83 287.281 204.548 285.72 206.157L283.758 208.185V208.281H287.85V209.25H282.263ZM292.414 209.453C290.506 209.453 289.369 207.712 289.369 204.937V204.925C289.369 202.15 290.506 200.415 292.414 200.415C294.322 200.415 295.47 202.15 295.47 204.925V204.937C295.47 207.712 294.322 209.453 292.414 209.453ZM292.414 208.514C293.652 208.514 294.388 207.138 294.388 204.937V204.925C294.388 202.724 293.652 201.36 292.414 201.36C291.176 201.36 290.452 202.724 290.452 204.925V204.937C290.452 207.138 291.176 208.514 292.414 208.514ZM297.11 209.25V208.508L300.029 205.35C301.129 204.159 301.452 203.711 301.452 202.957V202.945C301.452 202.036 300.836 201.354 299.819 201.354C298.784 201.354 298.097 202.03 298.097 203.047L298.091 203.059L297.062 203.053L297.05 203.047C297.056 201.516 298.24 200.415 299.891 200.415C301.398 200.415 302.553 201.438 302.553 202.831V202.843C302.553 203.83 302.128 204.548 300.567 206.157L298.605 208.185V208.281H302.696V209.25H297.11ZM307.308 209.393C305.526 209.393 304.371 208.4 304.258 207.036L304.252 206.965H305.287L305.293 207.024C305.376 207.874 306.16 208.46 307.308 208.46C308.439 208.46 309.21 207.826 309.21 206.911V206.899C309.21 205.84 308.451 205.248 307.243 205.248H306.16V204.339H307.195C308.224 204.339 308.941 203.705 308.941 202.843V202.831C308.941 201.928 308.349 201.408 307.296 201.408C306.28 201.408 305.556 201.946 305.466 202.819L305.46 202.879H304.425L304.431 202.819C304.569 201.414 305.681 200.475 307.296 200.475C308.941 200.475 310.024 201.39 310.024 202.7V202.712C310.024 203.776 309.27 204.506 308.194 204.734V204.757C309.45 204.865 310.305 205.649 310.305 206.875V206.887C310.305 208.328 309.037 209.393 307.308 209.393Z" fill="black" fill-opacity="0.6"/>
<path d="M318.726 200.241L315.999 211.403H315L317.728 200.241H318.726Z" fill="black" fill-opacity="0.6"/>
<path d="M327.101 209.25V200.618H328.177V208.281H332.34V209.25H327.101ZM336.133 209.363C334.291 209.363 333.178 208.071 333.178 206.049V206.043C333.178 204.052 334.315 202.688 336.067 202.688C337.82 202.688 338.884 203.992 338.884 205.918V206.325H334.243C334.273 207.658 335.008 208.436 336.157 208.436C337.03 208.436 337.568 208.023 337.742 207.635L337.766 207.581H338.807L338.795 207.629C338.573 208.502 337.652 209.363 336.133 209.363ZM336.061 203.615C335.104 203.615 334.374 204.267 334.261 205.493H337.826C337.718 204.219 337.012 203.615 336.061 203.615ZM342.139 209.363C340.912 209.363 339.985 208.621 339.985 207.449V207.437C339.985 206.289 340.835 205.625 342.336 205.535L344.184 205.421V204.835C344.184 204.04 343.7 203.609 342.737 203.609C341.965 203.609 341.457 203.896 341.289 204.399L341.283 204.417H340.243L340.248 204.381C340.416 203.37 341.397 202.688 342.773 202.688C344.346 202.688 345.225 203.495 345.225 204.835V209.25H344.184V208.298H344.089C343.682 208.986 343.006 209.363 342.139 209.363ZM341.05 207.425C341.05 208.077 341.606 208.46 342.354 208.46C343.413 208.46 344.184 207.766 344.184 206.845V206.259L342.462 206.366C341.481 206.426 341.05 206.773 341.05 207.413V207.425ZM349.377 209.363C347.744 209.363 346.673 208.041 346.673 206.031V206.02C346.673 203.998 347.738 202.688 349.377 202.688C350.262 202.688 351.033 203.13 351.386 203.818H351.482V200.241H352.523V209.25H351.482V208.221H351.386C350.992 208.938 350.274 209.363 349.377 209.363ZM349.616 208.442C350.788 208.442 351.506 207.521 351.506 206.031V206.02C351.506 204.53 350.788 203.609 349.616 203.609C348.437 203.609 347.738 204.518 347.738 206.02V206.031C347.738 207.533 348.437 208.442 349.616 208.442ZM360.359 211.522C358.804 211.522 357.811 210.823 357.65 209.764L357.662 209.758H358.738L358.744 209.764C358.858 210.254 359.432 210.601 360.359 210.601C361.514 210.601 362.201 210.057 362.201 209.106V207.802H362.106C361.699 208.514 360.969 208.915 360.084 208.915C358.415 208.915 357.38 207.623 357.38 205.816V205.804C357.38 203.998 358.421 202.688 360.108 202.688C361.017 202.688 361.723 203.136 362.118 203.866H362.189V202.802H363.23V209.16C363.23 210.601 362.118 211.522 360.359 211.522ZM360.311 207.993C361.508 207.993 362.225 207.096 362.225 205.816V205.804C362.225 204.524 361.502 203.609 360.311 203.609C359.115 203.609 358.445 204.524 358.445 205.804V205.816C358.445 207.096 359.115 207.993 360.311 207.993ZM367.669 209.363C365.827 209.363 364.714 208.071 364.714 206.049V206.043C364.714 204.052 365.85 202.688 367.603 202.688C369.356 202.688 370.42 203.992 370.42 205.918V206.325H365.779C365.809 207.658 366.544 208.436 367.693 208.436C368.566 208.436 369.104 208.023 369.278 207.635L369.302 207.581H370.343L370.331 207.629C370.109 208.502 369.188 209.363 367.669 209.363ZM367.597 203.615C366.64 203.615 365.91 204.267 365.797 205.493H369.362C369.254 204.219 368.548 203.615 367.597 203.615ZM371.904 209.25V202.802H372.945V203.771H373.04C373.363 203.089 373.968 202.688 374.919 202.688C376.366 202.688 377.174 203.543 377.174 205.074V209.25H376.133V205.326C376.133 204.165 375.654 203.609 374.626 203.609C373.597 203.609 372.945 204.303 372.945 205.433V209.25H371.904ZM382.151 206.259V205.29H386.17V206.259H382.151ZM394.808 209.453C392.464 209.453 390.998 207.718 390.998 204.943V204.931C390.998 202.15 392.458 200.415 394.802 200.415C396.621 200.415 398.038 201.557 398.296 203.214L398.29 203.226H397.207L397.201 203.214C396.914 202.108 395.993 201.408 394.802 201.408C393.145 201.408 392.105 202.772 392.105 204.931V204.943C392.105 207.102 393.145 208.46 394.808 208.46C396.011 208.46 396.926 207.844 397.195 206.851L397.207 206.839H398.296V206.851C398.008 208.43 396.645 209.453 394.808 209.453ZM399.223 209.25L402.166 204.913V204.889L399.259 200.618H400.557L402.866 204.094H402.902L405.234 200.618H406.461L403.476 204.943V204.967L406.395 209.25H405.103L402.806 205.804H402.77L400.443 209.25H399.223ZM411.3 209.453C408.824 209.453 407.34 207.694 407.34 204.937V204.925C407.34 202.156 408.859 200.415 411.3 200.415C413.752 200.415 415.26 202.161 415.26 204.925V204.937C415.26 207.688 413.764 209.453 411.3 209.453ZM411.3 208.46C413.07 208.46 414.159 207.072 414.159 204.937V204.925C414.159 202.772 413.064 201.408 411.3 201.408C409.541 201.408 408.441 202.772 408.441 204.925V204.937C408.441 207.072 409.505 208.46 411.3 208.46ZM420.087 206.259V205.29H424.107V206.259H420.087ZM429.269 209.25V200.618H430.346V209.25H429.269ZM432.284 209.25V202.802H433.325V203.771H433.421C433.744 203.089 434.348 202.688 435.299 202.688C436.747 202.688 437.554 203.543 437.554 205.074V209.25H436.513V205.326C436.513 204.165 436.035 203.609 435.006 203.609C433.977 203.609 433.325 204.303 433.325 205.433V209.25H432.284ZM439.738 209.25V203.663H438.667V202.802H439.738V202.084C439.738 200.798 440.384 200.182 441.61 200.182C441.861 200.182 442.088 200.2 442.304 200.241V201.073C442.178 201.049 442.005 201.043 441.819 201.043C441.078 201.043 440.778 201.408 440.778 202.114V202.802H442.244V203.663H440.778V209.25H439.738ZM443.674 209.25V200.241H444.715V209.25H443.674ZM448.74 209.363C447.275 209.363 446.521 208.502 446.521 206.977V202.802H447.562V206.725C447.562 207.886 447.981 208.442 449.01 208.442C450.146 208.442 450.75 207.748 450.75 206.618V202.802H451.791V209.25H450.75V208.286H450.655C450.338 208.974 449.686 209.363 448.74 209.363ZM456.236 209.363C454.393 209.363 453.281 208.071 453.281 206.049V206.043C453.281 204.052 454.417 202.688 456.17 202.688C457.922 202.688 458.987 203.992 458.987 205.918V206.325H454.345C454.375 207.658 455.111 208.436 456.259 208.436C457.133 208.436 457.671 208.023 457.845 207.635L457.869 207.581H458.909L458.897 207.629C458.676 208.502 457.755 209.363 456.236 209.363ZM456.164 203.615C455.207 203.615 454.477 204.267 454.363 205.493H457.928C457.821 204.219 457.115 203.615 456.164 203.615ZM460.471 209.25V202.802H461.512V203.771H461.607C461.93 203.089 462.534 202.688 463.485 202.688C464.933 202.688 465.74 203.543 465.74 205.074V209.25H464.7V205.326C464.7 204.165 464.221 203.609 463.192 203.609C462.164 203.609 461.512 204.303 461.512 205.433V209.25H460.471ZM470.131 209.363C468.325 209.363 467.17 208.053 467.17 206.008V205.996C467.17 203.992 468.319 202.688 470.125 202.688C471.692 202.688 472.631 203.591 472.823 204.74L472.829 204.775H471.794L471.788 204.757C471.627 204.123 471.052 203.609 470.125 203.609C468.965 203.609 468.235 204.542 468.235 205.996V206.008C468.235 207.491 468.977 208.442 470.125 208.442C470.992 208.442 471.543 208.059 471.782 207.341L471.794 207.306L472.823 207.3L472.811 207.365C472.548 208.532 471.68 209.363 470.131 209.363ZM476.849 209.363C475.006 209.363 473.894 208.071 473.894 206.049V206.043C473.894 204.052 475.03 202.688 476.783 202.688C478.535 202.688 479.6 203.992 479.6 205.918V206.325H474.959C474.988 207.658 475.724 208.436 476.873 208.436C477.746 208.436 478.284 208.023 478.458 207.635L478.482 207.581H479.522L479.51 207.629C479.289 208.502 478.368 209.363 476.849 209.363ZM476.777 203.615C475.82 203.615 475.09 204.267 474.976 205.493H478.541C478.434 204.219 477.728 203.615 476.777 203.615ZM481.084 209.25V202.802H482.125V203.759H482.22C482.466 203.083 483.07 202.688 483.943 202.688C484.14 202.688 484.362 202.712 484.463 202.73V203.741C484.248 203.705 484.051 203.681 483.823 203.681C482.83 203.681 482.125 204.309 482.125 205.254V209.25H481.084ZM487.712 209.363C486.276 209.363 485.289 208.669 485.17 207.605H486.234C486.408 208.143 486.922 208.496 487.748 208.496C488.615 208.496 489.231 208.083 489.231 207.497V207.485C489.231 207.048 488.902 206.743 488.106 206.552L487.108 206.313C485.899 206.026 485.355 205.499 485.355 204.572V204.566C485.355 203.495 486.384 202.688 487.754 202.688C489.105 202.688 490.044 203.364 490.188 204.417H489.165C489.028 203.908 488.525 203.555 487.748 203.555C486.982 203.555 486.42 203.95 486.42 204.518V204.53C486.42 204.967 486.743 205.242 487.502 205.427L488.495 205.667C489.709 205.96 490.296 206.486 490.296 207.407V207.419C490.296 208.568 489.177 209.363 487.712 209.363ZM498.85 209.453C496.373 209.453 494.89 207.694 494.89 204.937V204.925C494.89 202.156 496.409 200.415 498.85 200.415C501.302 200.415 502.809 202.161 502.809 204.925V204.937C502.809 206.606 502.259 207.91 501.278 208.681L502.403 210.224H501.195L500.429 209.166C499.956 209.357 499.43 209.453 498.85 209.453ZM498.85 208.46C499.191 208.46 499.514 208.406 499.801 208.31L498.688 206.779H499.897L500.65 207.814C501.326 207.204 501.709 206.199 501.709 204.937V204.925C501.709 202.772 500.614 201.408 498.85 201.408C497.091 201.408 495.991 202.772 495.991 204.925V204.937C495.991 207.072 497.055 208.46 498.85 208.46ZM507.344 209.393C505.561 209.393 504.407 208.4 504.293 207.036L504.287 206.965H505.322L505.328 207.024C505.412 207.874 506.195 208.46 507.344 208.46C508.474 208.46 509.246 207.826 509.246 206.911V206.899C509.246 205.84 508.486 205.248 507.278 205.248H506.195V204.339H507.23C508.259 204.339 508.977 203.705 508.977 202.843V202.831C508.977 201.928 508.385 201.408 507.332 201.408C506.315 201.408 505.591 201.946 505.501 202.819L505.496 202.879H504.461L504.467 202.819C504.604 201.414 505.717 200.475 507.332 200.475C508.977 200.475 510.059 201.39 510.059 202.7V202.712C510.059 203.776 509.306 204.506 508.229 204.734V204.757C509.485 204.865 510.34 205.649 510.34 206.875V206.887C510.34 208.328 509.072 209.393 507.344 209.393Z" fill="black" fill-opacity="0.6"/>
<path d="M519.226 200.241L516.499 211.403H515.5L518.228 200.241H519.226Z" fill="black" fill-opacity="0.6"/>
<path d="M133.451 232.963C129.905 232.963 127.667 230.519 127.667 226.58V226.572C127.667 222.632 129.914 220.206 133.451 220.206C136.288 220.206 138.373 221.974 138.698 224.487L138.707 224.572H136.545L136.502 224.41C136.143 223 135.058 222.12 133.451 222.12C131.298 222.12 129.922 223.837 129.922 226.572V226.58C129.922 229.323 131.307 231.049 133.451 231.049C135.024 231.049 136.126 230.203 136.528 228.682L136.553 228.597H138.715L138.698 228.682C138.382 231.211 136.288 232.963 133.451 232.963ZM140.509 232.75V223.692H142.636V225.256H142.679C142.961 224.162 143.713 223.504 144.756 223.504C145.02 223.504 145.268 223.547 145.431 223.589V225.512C145.251 225.444 144.926 225.392 144.568 225.392C143.363 225.392 142.636 226.153 142.636 227.494V232.75H140.509ZM150.497 232.929C147.78 232.929 146.139 231.126 146.139 228.246V228.238C146.139 225.384 147.805 223.504 150.394 223.504C152.984 223.504 154.59 225.324 154.59 228.058V228.742H148.25C148.284 230.331 149.155 231.271 150.54 231.271C151.599 231.271 152.291 230.707 152.497 230.101L152.514 230.041H154.505L154.479 230.135C154.197 231.528 152.864 232.929 150.497 232.929ZM150.42 225.17C149.292 225.17 148.446 225.931 148.275 227.323H152.522C152.368 225.888 151.548 225.17 150.42 225.17ZM158.973 232.903C157.161 232.903 155.939 231.784 155.939 230.169V230.152C155.939 228.545 157.187 227.58 159.383 227.443L161.75 227.298V226.674C161.75 225.76 161.152 225.204 160.075 225.204C159.067 225.204 158.452 225.674 158.315 226.341L158.298 226.418H156.324L156.332 226.315C156.461 224.709 157.853 223.504 160.152 223.504C162.416 223.504 163.878 224.7 163.878 226.52V232.75H161.75V231.357H161.699C161.177 232.305 160.169 232.903 158.973 232.903ZM158.059 230.083C158.059 230.827 158.674 231.28 159.605 231.28C160.827 231.28 161.75 230.468 161.75 229.391V228.708L159.682 228.836C158.631 228.904 158.059 229.357 158.059 230.075V230.083ZM169.294 232.929C167.397 232.929 166.5 232.16 166.5 230.297V225.333H165.218V223.692H166.5V221.393H168.662V223.692H170.345V225.333H168.662V230.118C168.662 231.006 169.055 231.288 169.833 231.288C170.038 231.288 170.2 231.263 170.345 231.254V232.852C170.098 232.886 169.722 232.929 169.294 232.929ZM175.95 232.929C173.233 232.929 171.592 231.126 171.592 228.246V228.238C171.592 225.384 173.258 223.504 175.848 223.504C178.437 223.504 180.043 225.324 180.043 228.058V228.742H173.703C173.737 230.331 174.609 231.271 175.993 231.271C177.052 231.271 177.745 230.707 177.95 230.101L177.967 230.041H179.958L179.932 230.135C179.65 231.528 178.317 232.929 175.95 232.929ZM175.873 225.17C174.745 225.17 173.899 225.931 173.728 227.323H177.975C177.821 225.888 177.001 225.17 175.873 225.17ZM189.125 232.929C186.749 232.929 185.391 231.801 185.203 230.118L185.194 230.041H187.288L187.305 230.118C187.467 230.895 188.057 231.357 189.133 231.357C190.167 231.357 190.791 230.938 190.791 230.271V230.263C190.791 229.716 190.475 229.408 189.535 229.195L188.031 228.862C186.297 228.477 185.425 227.631 185.425 226.29V226.281C185.425 224.623 186.869 223.504 189.057 223.504C191.312 223.504 192.628 224.743 192.705 226.307L192.714 226.401H190.731L190.723 226.332C190.629 225.606 190.048 225.076 189.057 225.076C188.117 225.076 187.527 225.512 187.527 226.178V226.187C187.527 226.708 187.877 227.05 188.817 227.264L190.33 227.597C192.201 228.016 192.927 228.75 192.927 230.066V230.075C192.927 231.784 191.347 232.929 189.125 232.929ZM195.746 222.393C195.08 222.393 194.559 221.863 194.559 221.231C194.559 220.582 195.08 220.06 195.746 220.06C196.413 220.06 196.926 220.582 196.926 221.231C196.926 221.863 196.413 222.393 195.746 222.393ZM194.678 232.75V223.692H196.806V232.75H194.678ZM198.95 232.75V223.692H201.078V225.11H201.12C201.59 224.136 202.513 223.504 203.889 223.504C205.88 223.504 207.016 224.786 207.016 226.888V232.75H204.889V227.315C204.889 226.025 204.291 225.298 203.077 225.298C201.855 225.298 201.078 226.187 201.078 227.494V232.75H198.95ZM213.142 235.92C210.741 235.92 209.229 234.826 208.972 233.407L208.955 233.331H211.049L211.075 233.399C211.305 233.92 212.032 234.313 213.142 234.313C214.527 234.313 215.287 233.578 215.287 232.425V231.117H215.244C214.74 232.083 213.715 232.698 212.416 232.698C210.143 232.698 208.682 230.955 208.682 228.135V228.127C208.682 225.264 210.16 223.504 212.45 223.504C213.732 223.504 214.723 224.187 215.236 225.23H215.287V223.692H217.415V232.493C217.415 234.544 215.766 235.92 213.142 235.92ZM213.083 231.058C214.407 231.058 215.296 229.938 215.296 228.178V228.169C215.296 226.418 214.398 225.298 213.083 225.298C211.715 225.298 210.852 226.401 210.852 228.161V228.169C210.852 229.955 211.715 231.058 213.083 231.058ZM219.55 232.75V220.419H221.678V232.75H219.55ZM227.804 232.929C225.087 232.929 223.446 231.126 223.446 228.246V228.238C223.446 225.384 225.112 223.504 227.701 223.504C230.291 223.504 231.897 225.324 231.897 228.058V228.742H225.557C225.591 230.331 226.462 231.271 227.847 231.271C228.906 231.271 229.598 230.707 229.803 230.101L229.821 230.041H231.812L231.786 230.135C231.504 231.528 230.171 232.929 227.804 232.929ZM227.727 225.17C226.599 225.17 225.753 225.931 225.582 227.323H229.829C229.675 225.888 228.855 225.17 227.727 225.17ZM238.569 222.393C237.903 222.393 237.381 221.863 237.381 221.231C237.381 220.582 237.903 220.06 238.569 220.06C239.236 220.06 239.748 220.582 239.748 221.231C239.748 221.863 239.236 222.393 238.569 222.393ZM237.501 232.75V223.692H239.629V232.75H237.501ZM241.773 232.75V223.692H243.9V225.145H243.943C244.328 224.153 245.259 223.504 246.455 223.504C247.72 223.504 248.634 224.17 248.967 225.333H249.019C249.455 224.205 250.531 223.504 251.839 223.504C253.624 223.504 254.795 224.717 254.795 226.529V232.75H252.667V227.059C252.667 225.939 252.086 225.298 251.044 225.298C250.019 225.298 249.318 226.059 249.318 227.153V232.75H247.25V226.948C247.25 225.931 246.635 225.298 245.644 225.298C244.618 225.298 243.9 226.102 243.9 227.204V232.75H241.773ZM259.511 232.903C257.7 232.903 256.478 231.784 256.478 230.169V230.152C256.478 228.545 257.725 227.58 259.921 227.443L262.288 227.298V226.674C262.288 225.76 261.69 225.204 260.613 225.204C259.605 225.204 258.99 225.674 258.853 226.341L258.836 226.418H256.862L256.871 226.315C256.999 224.709 258.392 223.504 260.69 223.504C262.955 223.504 264.416 224.7 264.416 226.52V232.75H262.288V231.357H262.237C261.716 232.305 260.707 232.903 259.511 232.903ZM258.597 230.083C258.597 230.827 259.212 231.28 260.143 231.28C261.365 231.28 262.288 230.468 262.288 229.391V228.708L260.22 228.836C259.169 228.904 258.597 229.357 258.597 230.075V230.083ZM270.55 235.92C268.149 235.92 266.637 234.826 266.381 233.407L266.363 233.331H268.457L268.483 233.399C268.713 233.92 269.44 234.313 270.55 234.313C271.935 234.313 272.695 233.578 272.695 232.425V231.117H272.653C272.148 232.083 271.123 232.698 269.824 232.698C267.551 232.698 266.09 230.955 266.09 228.135V228.127C266.09 225.264 267.568 223.504 269.858 223.504C271.14 223.504 272.131 224.187 272.644 225.23H272.695V223.692H274.823V232.493C274.823 234.544 273.174 235.92 270.55 235.92ZM270.491 231.058C271.815 231.058 272.704 229.938 272.704 228.178V228.169C272.704 226.418 271.807 225.298 270.491 225.298C269.123 225.298 268.26 226.401 268.26 228.161V228.169C268.26 229.955 269.123 231.058 270.491 231.058ZM280.881 232.929C278.163 232.929 276.523 231.126 276.523 228.246V228.238C276.523 225.384 278.189 223.504 280.778 223.504C283.367 223.504 284.974 225.324 284.974 228.058V228.742H278.633C278.667 230.331 279.539 231.271 280.923 231.271C281.983 231.271 282.675 230.707 282.88 230.101L282.897 230.041H284.888L284.862 230.135C284.58 231.528 283.247 232.929 280.881 232.929ZM280.804 225.17C279.676 225.17 278.83 225.931 278.659 227.323H282.906C282.752 225.888 281.932 225.17 280.804 225.17ZM293.192 232.903C291.381 232.903 290.159 231.784 290.159 230.169V230.152C290.159 228.545 291.406 227.58 293.602 227.443L295.969 227.298V226.674C295.969 225.76 295.371 225.204 294.295 225.204C293.286 225.204 292.671 225.674 292.534 226.341L292.517 226.418H290.543L290.552 226.315C290.68 224.709 292.073 223.504 294.371 223.504C296.636 223.504 298.097 224.7 298.097 226.52V232.75H295.969V231.357H295.918C295.397 232.305 294.389 232.903 293.192 232.903ZM292.278 230.083C292.278 230.827 292.893 231.28 293.825 231.28C295.047 231.28 295.969 230.468 295.969 229.391V228.708L293.901 228.836C292.85 228.904 292.278 229.357 292.278 230.075V230.083ZM303.514 232.929C301.224 232.929 299.771 231.135 299.771 228.221V228.212C299.771 225.29 301.232 223.504 303.505 223.504C304.787 223.504 305.821 224.162 306.334 225.247H306.385V220.419H308.513V232.75H306.385V231.211H306.334C305.821 232.28 304.821 232.929 303.514 232.929ZM304.155 231.135C305.471 231.135 306.385 229.998 306.385 228.221V228.212C306.385 226.443 305.462 225.298 304.155 225.298C302.796 225.298 301.941 226.409 301.941 228.212V228.221C301.941 230.024 302.787 231.135 304.155 231.135Z" fill="black" fill-opacity="0.9"/>
<g clip-path="url(#clip4_3501_49058)">
<rect width="470.75" height="55.25" transform="translate(296.749 273.5)" fill="white"/>
<path d="M311.234 306.125L314.734 296.261H316.724L320.224 306.125H318.378L317.551 303.575H313.9L313.08 306.125H311.234ZM315.671 298.093L314.345 302.215H317.113L315.787 298.093H315.671ZM323.744 306.248C321.871 306.248 320.682 304.765 320.682 302.399V302.386C320.682 300.007 321.851 298.53 323.744 298.53C324.77 298.53 325.624 299.036 326.014 299.843H326.13V295.762H327.839V306.125H326.13V304.956H326.014C325.604 305.769 324.797 306.248 323.744 306.248ZM324.278 304.812C325.44 304.812 326.158 303.896 326.158 302.399V302.386C326.158 300.889 325.433 299.966 324.278 299.966C323.122 299.966 322.411 300.882 322.411 302.386V302.399C322.411 303.903 323.116 304.812 324.278 304.812ZM335.557 306.125V297.997H335.441L332.987 299.733V298.072L335.564 296.261H337.321V306.125H335.557Z" fill="black" fill-opacity="0.9"/>
<path d="M362.587 295.787C362.149 295.262 361.449 295 360.749 295C360.049 295 359.437 295.262 358.912 295.787L352.787 301.912L351.124 307.25L356.549 305.5L362.587 299.375C363.112 298.937 363.374 298.237 363.374 297.625C363.374 296.925 363.112 296.312 362.587 295.787ZM355.324 304.275L354.187 303.137L358.649 298.5L359.874 299.725L355.324 304.275Z" fill="black" fill-opacity="0.75"/>
<rect width="470.75" height="797.015" transform="translate(296.749 328.75)" fill="white"/>
<g clip-path="url(#clip5_3501_49058)">
<path d="M311.814 340.75V332.119H313.357V340.75H311.814ZM315.2 340.75V334.212H316.689V335.211H316.791C317.102 334.511 317.73 334.087 318.675 334.087C320.134 334.087 320.93 334.966 320.93 336.521V340.75H319.44V336.868C319.44 335.851 319.028 335.337 318.124 335.337C317.239 335.337 316.689 335.959 316.689 336.94V340.75H315.2ZM325.129 340.78C323.628 340.78 323.012 340.277 323.012 339.015V335.367H321.995V334.212H323.012V332.609H324.525V334.212H325.907V335.367H324.525V338.662C324.525 339.314 324.782 339.589 325.404 339.589C325.614 339.589 325.727 339.583 325.907 339.566V340.714C325.691 340.756 325.416 340.78 325.129 340.78ZM327.259 340.75V334.212H328.748V335.217H328.85C329.071 334.517 329.669 334.104 330.531 334.104C330.758 334.104 330.991 334.134 331.135 334.176V335.51C330.896 335.462 330.65 335.426 330.393 335.426C329.4 335.426 328.748 336.019 328.748 336.952V340.75H327.259ZM334.88 340.881C332.918 340.881 331.733 339.601 331.733 337.484V337.472C331.733 335.373 332.936 334.087 334.88 334.087C336.829 334.087 338.026 335.367 338.026 337.472V337.484C338.026 339.601 336.835 340.881 334.88 340.881ZM334.88 339.673C335.914 339.673 336.501 338.866 336.501 337.49V337.478C336.501 336.102 335.908 335.289 334.88 335.289C333.845 335.289 333.253 336.102 333.253 337.478V337.49C333.253 338.866 333.845 339.673 334.88 339.673ZM341.747 340.858C340.108 340.858 339.067 339.56 339.067 337.49V337.478C339.067 335.396 340.09 334.104 341.747 334.104C342.644 334.104 343.391 334.547 343.732 335.253H343.834V331.682H345.329V340.75H343.834V339.727H343.732C343.374 340.439 342.668 340.858 341.747 340.858ZM342.213 339.601C343.23 339.601 343.858 338.8 343.858 337.49V337.478C343.858 336.168 343.224 335.361 342.213 335.361C341.202 335.361 340.58 336.162 340.58 337.478V337.49C340.58 338.806 341.196 339.601 342.213 339.601ZM349.236 340.881C347.764 340.881 347.011 339.996 347.011 338.441V334.212H348.5V338.1C348.5 339.111 348.877 339.625 349.774 339.625C350.737 339.625 351.251 339.003 351.251 338.022V334.212H352.741V340.75H351.251V339.757H351.15C350.845 340.457 350.181 340.881 349.236 340.881ZM357.233 340.881C355.265 340.881 354.105 339.607 354.105 337.472V337.46C354.105 335.349 355.259 334.087 357.227 334.087C358.908 334.087 359.913 335.02 360.08 336.371V336.395H358.675L358.669 336.377C358.531 335.743 358.047 335.289 357.233 335.289C356.216 335.289 355.618 336.09 355.618 337.46V337.472C355.618 338.86 356.222 339.673 357.233 339.673C358.005 339.673 358.477 339.32 358.663 338.632L358.675 338.609L360.08 338.603L360.068 338.65C359.853 339.99 358.89 340.881 357.233 340.881ZM364.023 340.78C362.521 340.78 361.905 340.277 361.905 339.015V335.367H360.888V334.212H361.905V332.609H363.418V334.212H364.8V335.367H363.418V338.662C363.418 339.314 363.676 339.589 364.298 339.589C364.507 339.589 364.621 339.583 364.8 339.566V340.714C364.585 340.756 364.31 340.78 364.023 340.78ZM368.916 340.881C366.954 340.881 365.769 339.601 365.769 337.484V337.472C365.769 335.373 366.972 334.087 368.916 334.087C370.866 334.087 372.062 335.367 372.062 337.472V337.484C372.062 339.601 370.872 340.881 368.916 340.881ZM368.916 339.673C369.95 339.673 370.537 338.866 370.537 337.49V337.478C370.537 336.102 369.944 335.289 368.916 335.289C367.881 335.289 367.289 336.102 367.289 337.478V337.49C367.289 338.866 367.881 339.673 368.916 339.673ZM373.426 340.75V334.212H374.915V335.217H375.017C375.238 334.517 375.837 334.104 376.698 334.104C376.925 334.104 377.158 334.134 377.302 334.176V335.51C377.063 335.462 376.818 335.426 376.56 335.426C375.567 335.426 374.915 336.019 374.915 336.952V340.75H373.426ZM379.187 343.047C379.007 343.047 378.798 343.041 378.618 343.023V341.88C378.738 341.892 378.905 341.898 379.061 341.898C379.671 341.898 380.036 341.647 380.197 341.055L380.275 340.756L377.936 334.212H379.563L381.089 339.32H381.202L382.722 334.212H384.289L381.944 340.887C381.382 342.526 380.634 343.047 379.187 343.047ZM391.144 340.78C389.643 340.78 389.027 340.277 389.027 339.015V335.367H388.01V334.212H389.027V332.609H390.54V334.212H391.922V335.367H390.54V338.662C390.54 339.314 390.797 339.589 391.419 339.589C391.629 339.589 391.742 339.583 391.922 339.566V340.714C391.706 340.756 391.431 340.78 391.144 340.78ZM396.013 340.881C394.069 340.881 392.891 339.578 392.891 337.496V337.49C392.891 335.432 394.081 334.087 395.942 334.087C397.802 334.087 398.95 335.391 398.95 337.364V337.855H394.38C394.398 339.027 395.032 339.709 396.043 339.709C396.851 339.709 397.311 339.302 397.455 339.003L397.473 338.961H398.89L398.872 339.015C398.663 339.859 397.79 340.881 396.013 340.881ZM395.96 335.253C395.128 335.253 394.506 335.815 394.392 336.856H397.497C397.395 335.785 396.791 335.253 395.96 335.253ZM399.549 340.75L401.666 337.508L399.531 334.212H401.253L402.551 336.479H402.653L403.945 334.212H405.578L403.467 337.442L405.602 340.75H403.927L402.587 338.477H402.486L401.152 340.75H399.549ZM409.353 340.78C407.851 340.78 407.235 340.277 407.235 339.015V335.367H406.218V334.212H407.235V332.609H408.749V334.212H410.13V335.367H408.749V338.662C408.749 339.314 409.006 339.589 409.628 339.589C409.837 339.589 409.951 339.583 410.13 339.566V340.714C409.915 340.756 409.64 340.78 409.353 340.78Z" fill="black" fill-opacity="0.75"/>
</g>
<rect x="311.187" y="351.187" width="441.875" height="72.0542" rx="3.0625" stroke="black" stroke-opacity="0.75" stroke-width="0.875"/>
</g>
<path d="M36.002 133.501H1296V182.501H36.002V133.501Z" fill="white"/>
<path d="M121.752 148.375V167.625C121.752 168.09 121.567 168.535 121.239 168.863C120.911 169.191 120.466 169.375 120.002 169.375H100.752C100.288 169.375 99.8425 169.191 99.5143 168.863C99.1861 168.535 99.0017 168.09 99.0017 167.625V148.375C99.0017 147.911 99.1861 147.466 99.5143 147.138C99.8425 146.81 100.288 146.625 100.752 146.625H120.002C120.466 146.625 120.911 146.81 121.239 147.138C121.567 147.466 121.752 147.911 121.752 148.375ZM106.002 155.375H102.502V165.875H106.002V155.375ZM106.22 151.875C106.229 151.484 106.121 151.1 105.91 150.77C105.699 150.441 105.395 150.181 105.036 150.026C104.677 149.87 104.28 149.825 103.895 149.896C103.51 149.967 103.156 150.151 102.876 150.424C102.596 150.698 102.404 151.048 102.325 151.431C102.245 151.814 102.281 152.212 102.429 152.575C102.577 152.937 102.829 153.247 103.154 153.465C103.478 153.684 103.86 153.8 104.252 153.8C104.508 153.808 104.764 153.763 105.003 153.669C105.242 153.575 105.46 153.435 105.644 153.255C105.828 153.076 105.973 152.861 106.072 152.624C106.171 152.387 106.222 152.132 106.22 151.875ZM118.252 159.365C118.252 156.172 116.248 155.078 114.34 155.078C113.683 155.074 113.035 155.236 112.456 155.55C111.878 155.864 111.388 156.318 111.033 156.872V155.375H107.752V165.875H111.252V160.162C111.213 159.884 111.234 159.601 111.313 159.332C111.393 159.063 111.528 158.814 111.711 158.601C111.894 158.388 112.12 158.217 112.374 158.098C112.628 157.98 112.905 157.917 113.185 157.913C114.148 157.913 114.752 158.429 114.752 160.118V165.875H118.252V159.365Z" fill="#0A66C2"/>
<path d="M132.906 151.599H135.19L139.939 165.625H137.936L136.433 161.057H131.584L130.161 165.625H128.237L132.906 151.599ZM132.065 159.494H135.952L134.048 153.463H133.988L132.065 159.494ZM149.384 157.47V150.798H151.148V165.625H149.384V163.962C148.803 165.064 147.401 165.886 145.838 165.886C143.033 165.886 140.909 163.702 140.909 160.696C140.909 157.711 142.993 155.527 145.798 155.527C147.401 155.527 148.803 156.368 149.384 157.47ZM146.078 157.069C144.095 157.069 142.712 158.652 142.712 160.696C142.712 162.76 144.095 164.343 146.078 164.343C148.062 164.343 149.405 162.76 149.405 160.696C149.405 158.652 148.062 157.069 146.078 157.069ZM156.998 164.423C158.26 164.423 158.981 163.822 158.981 163.101C158.981 162.299 158.4 161.919 157.358 161.578L156.096 161.157C154.453 160.616 153.732 159.795 153.732 158.392C153.732 156.769 155.174 155.527 157.238 155.527C158.461 155.527 159.723 155.927 160.665 156.789L159.743 158.011C159.022 157.39 158.12 157.009 157.218 157.009C156.216 157.009 155.475 157.53 155.475 158.252C155.475 158.793 155.796 159.193 156.617 159.474L158.38 160.095C160.124 160.716 160.825 161.518 160.825 162.94C160.825 164.363 159.563 165.886 157.018 165.886C155.615 165.886 154.253 165.445 153.251 164.543L154.213 163.241C154.914 163.982 156.016 164.423 156.998 164.423Z" fill="#0A66C2"/>
<path opacity="0.6" d="M168.587 165.625H167.505V151.599H168.587V165.625Z" fill="#0A66C2"/>
<path fill-rule="evenodd" clip-rule="evenodd" d="M374.625 161.5L370.25 157.125H379L374.625 161.5Z" fill="#0A66C2"/>
<path d="M177.015 158.612C177.015 161.818 179.179 164.263 182.345 164.263C184.67 164.263 186.293 163 186.994 161.016H188.958C188.056 164.022 185.491 165.866 182.365 165.866C178.298 165.866 175.112 162.84 175.112 158.612C175.112 154.384 178.298 151.358 182.365 151.358C185.491 151.358 188.056 153.202 188.958 156.207H186.994C186.293 154.224 184.67 152.961 182.345 152.961C179.179 152.961 177.015 155.406 177.015 158.612ZM200.593 165.625H198.83V163.962C198.249 165.064 196.846 165.886 195.283 165.886C192.478 165.886 190.354 163.702 190.354 160.696C190.354 157.71 192.438 155.526 195.243 155.526C196.846 155.526 198.229 156.368 198.83 157.49V155.807H200.593V165.625ZM195.524 157.069C193.54 157.069 192.157 158.652 192.157 160.696C192.157 162.76 193.54 164.343 195.524 164.343C197.507 164.343 198.85 162.76 198.85 160.696C198.85 158.652 197.507 157.069 195.524 157.069ZM212.094 165.625H210.33V159.413C210.33 157.911 209.389 157.149 208.186 157.149C207.165 157.149 206.223 157.71 205.381 158.692V165.625H203.618V155.807H205.361V157.069C206.183 156.127 207.345 155.546 208.547 155.546C210.11 155.546 211.172 156.207 211.693 157.37C212.775 156.047 213.957 155.546 215.24 155.546C217.484 155.546 218.806 156.929 218.806 159.113V165.625H217.043V159.413C217.043 157.891 216.081 157.149 214.919 157.149C213.877 157.149 212.915 157.75 212.074 158.692L212.094 159.574V165.625ZM223.501 163.962V169.452H221.738V155.807H223.501V157.51C224.082 156.368 225.505 155.546 227.048 155.546C229.893 155.546 231.977 157.71 231.977 160.716C231.977 163.722 229.833 165.886 227.028 165.886C225.485 165.886 224.102 165.084 223.501 163.962ZM226.827 157.089C224.824 157.089 223.461 158.652 223.461 160.716C223.461 162.76 224.824 164.343 226.827 164.343C228.771 164.343 230.154 162.76 230.154 160.716C230.154 158.652 228.771 157.089 226.827 157.089ZM243.858 165.625H242.094V163.962C241.513 165.064 240.111 165.886 238.548 165.886C235.743 165.886 233.619 163.702 233.619 160.696C233.619 157.71 235.703 155.526 238.508 155.526C240.111 155.526 241.493 156.368 242.094 157.49V155.807H243.858V165.625ZM238.788 157.069C236.805 157.069 235.422 158.652 235.422 160.696C235.422 162.76 236.805 164.343 238.788 164.343C240.772 164.343 242.115 162.76 242.115 160.696C242.115 158.652 240.772 157.069 238.788 157.069ZM246.963 152.581C246.963 151.879 247.524 151.318 248.225 151.318C248.926 151.318 249.487 151.879 249.487 152.581C249.487 153.282 248.926 153.843 248.225 153.843C247.524 153.843 246.963 153.282 246.963 152.581ZM249.227 165.625H247.464V157.29H245.921V155.807H249.227V165.625ZM260.038 157.45V155.787H261.802V165.445C261.802 168.511 259.357 169.713 256.672 169.713C255.189 169.713 253.706 169.432 252.604 168.831L252.745 167.168C254.007 167.809 255.289 168.15 256.592 168.15C258.676 168.15 260.038 167.248 260.038 165.184V163.922C259.457 165.024 258.095 165.825 256.512 165.825C253.726 165.825 251.602 163.702 251.602 160.676C251.602 157.67 253.686 155.526 256.492 155.526C258.075 155.526 259.477 156.368 260.038 157.45ZM256.752 157.069C254.768 157.069 253.406 158.632 253.406 160.676C253.406 162.74 254.768 164.303 256.752 164.303C258.736 164.303 260.078 162.74 260.078 160.676C260.078 158.632 258.736 157.069 256.752 157.069ZM266.57 158.692V165.625H264.807V155.807H266.55V157.069C267.412 156.107 268.614 155.546 269.836 155.546C272.08 155.546 273.463 156.929 273.463 159.113V165.625H271.7V159.434C271.7 157.871 270.678 157.149 269.495 157.149C268.433 157.149 267.412 157.71 266.57 158.692ZM292.396 153.963L288.529 161.918H286.585L282.758 153.963V165.625H280.995V151.599H283.64L287.567 159.995L291.655 151.599H294.24V165.625H292.396V153.963ZM306.886 165.625H305.123V163.962C304.542 165.064 303.139 165.886 301.576 165.886C298.771 165.886 296.647 163.702 296.647 160.696C296.647 157.71 298.731 155.526 301.536 155.526C303.139 155.526 304.521 156.368 305.123 157.49V155.807H306.886V165.625ZM301.816 157.069C299.833 157.069 298.45 158.652 298.45 160.696C298.45 162.76 299.833 164.343 301.816 164.343C303.8 164.343 305.143 162.76 305.143 160.696C305.143 158.652 303.8 157.069 301.816 157.069ZM311.674 158.692V165.625H309.911V155.807H311.654V157.069C312.515 156.107 313.718 155.546 314.94 155.546C317.184 155.546 318.567 156.929 318.567 159.113V165.625H316.804V159.434C316.804 157.871 315.782 157.149 314.599 157.149C313.537 157.149 312.515 157.71 311.674 158.692ZM331.033 165.625H329.269V163.962C328.688 165.064 327.286 165.886 325.723 165.886C322.917 165.886 320.793 163.702 320.793 160.696C320.793 157.71 322.877 155.526 325.683 155.526C327.286 155.526 328.668 156.368 329.269 157.49V155.807H331.033V165.625ZM325.963 157.069C323.979 157.069 322.597 158.652 322.597 160.696C322.597 162.76 323.979 164.343 325.963 164.343C327.947 164.343 329.289 162.76 329.289 160.696C329.289 158.652 327.947 157.069 325.963 157.069ZM341.832 157.45V155.787H343.595V165.445C343.595 168.511 341.151 169.713 338.466 169.713C336.983 169.713 335.5 169.432 334.398 168.831L334.538 167.168C335.801 167.809 337.083 168.15 338.385 168.15C340.469 168.15 341.832 167.248 341.832 165.184V163.922C341.251 165.024 339.888 165.825 338.305 165.825C335.52 165.825 333.396 163.702 333.396 160.676C333.396 157.67 335.48 155.526 338.285 155.526C339.868 155.526 341.271 156.368 341.832 157.45ZM338.546 157.069C336.562 157.069 335.2 158.632 335.2 160.676C335.2 162.74 336.562 164.303 338.546 164.303C340.529 164.303 341.872 162.74 341.872 160.676C341.872 158.632 340.529 157.069 338.546 157.069ZM354.034 162.539L355.537 163.261C354.555 165.144 352.792 165.866 350.908 165.866C347.963 165.866 345.899 163.742 345.899 160.736C345.899 157.73 348.083 155.526 350.928 155.526C353.573 155.526 355.898 157.35 355.898 161.197V161.257H347.763C347.923 163 349.165 164.303 350.949 164.303C352.091 164.303 353.193 163.922 354.034 162.539ZM350.928 157.089C349.225 157.089 348.023 158.271 347.763 159.894H353.914C353.794 158.352 352.612 157.089 350.928 157.089ZM363.355 155.707V157.39C363.134 157.37 362.934 157.33 362.653 157.33C361.01 157.33 359.928 158.311 359.928 160.536V165.625H358.165V155.807H359.888V157.51C360.329 156.488 361.211 155.646 362.593 155.646C362.894 155.646 363.114 155.687 363.355 155.707Z" fill="#0A66C2"/>
<line x1="36.001" y1="182.063" x2="1296" y2="182.063" stroke="#EBEBEB" stroke-width="0.875"/>
<path d="M76.251 152.751V154.501H58.751V152.751H76.251ZM58.751 163.251H76.251V161.501H58.751V163.251ZM58.751 158.876H76.251V157.126H58.751V158.876Z" fill="#6E6558"/>
<g clip-path="url(#clip6_3501_49058)">
<mask id="path-43-inside-2_3501_49058" fill="white">
<path d="M36 252.5H275.75V1028.63H36V252.5Z"/>
</mask>
<path d="M36 252.5H275.75V1028.63H36V252.5Z" fill="white"/>
<rect width="239.75" height="47.25" transform="translate(36 273.5)" fill="#F5F7F9"/>
<rect x="46.5" y="284" width="37.625" height="26.25" rx="3.5" fill="#E6E6E6"/>
<path d="M91.489 301.125L94.114 293.727H95.606L98.231 301.125H96.8467L96.2263 299.213H93.4885L92.8733 301.125H91.489ZM94.8164 295.101L93.8218 298.192H95.8982L94.9036 295.101H94.8164ZM101.082 301.217C99.6768 301.217 98.7847 300.105 98.7847 298.331V298.321C98.7847 296.536 99.6614 295.429 101.082 295.429C101.851 295.429 102.491 295.808 102.784 296.413H102.871V293.353H104.153V301.125H102.871V300.248H102.784C102.476 300.858 101.871 301.217 101.082 301.217ZM101.481 300.141C102.353 300.141 102.891 299.454 102.891 298.331V298.321C102.891 297.198 102.348 296.506 101.481 296.506C100.615 296.506 100.082 297.193 100.082 298.321V298.331C100.082 299.459 100.61 300.141 101.481 300.141ZM110.361 301.125V295.029H110.274L108.434 296.331V295.085L110.366 293.727H111.684V301.125H110.361Z" fill="black" fill-opacity="0.6"/>
<rect x="46.5" y="330.75" width="218.75" height="41.25" rx="3.5" fill="#F7F7F7"/>
<path d="M118.041 356.09C115.594 356.09 114.075 354.356 114.075 351.568V351.556C114.075 348.757 115.588 347.028 118.035 347.028C119.996 347.028 121.486 348.273 121.689 350.037V350.085H120.176L120.17 350.061C119.949 349.038 119.123 348.362 118.035 348.362C116.569 348.362 115.654 349.588 115.654 351.55V351.562C115.654 353.53 116.569 354.756 118.041 354.756C119.135 354.756 119.949 354.146 120.17 353.195L120.176 353.165H121.689V353.207C121.462 354.936 120.032 356.09 118.041 356.09ZM123.125 355.875V349.337H124.614V350.342H124.716C124.937 349.642 125.536 349.23 126.397 349.23C126.624 349.23 126.858 349.26 127.001 349.301V350.635C126.762 350.587 126.517 350.552 126.259 350.552C125.266 350.552 124.614 351.144 124.614 352.077V355.875H123.125ZM130.722 356.007C128.778 356.007 127.6 354.703 127.6 352.621V352.615C127.6 350.557 128.79 349.212 130.65 349.212C132.51 349.212 133.659 350.516 133.659 352.49V352.98H129.089C129.107 354.152 129.741 354.834 130.752 354.834C131.559 354.834 132.02 354.427 132.163 354.128L132.181 354.087H133.599L133.581 354.14C133.372 354.984 132.498 356.007 130.722 356.007ZM130.668 350.378C129.837 350.378 129.215 350.94 129.101 351.981H132.205C132.104 350.91 131.499 350.378 130.668 350.378ZM136.799 355.983C135.555 355.983 134.652 355.217 134.652 354.027V354.015C134.652 352.848 135.543 352.167 137.134 352.071L138.815 351.969V351.407C138.815 350.755 138.39 350.396 137.589 350.396C136.907 350.396 136.464 350.641 136.315 351.072L136.309 351.096H134.903L134.909 351.042C135.053 349.941 136.106 349.212 137.661 349.212C139.341 349.212 140.287 350.025 140.287 351.407V355.875H138.815V354.978H138.713C138.355 355.612 137.661 355.983 136.799 355.983ZM136.123 353.955C136.123 354.511 136.596 354.84 137.254 354.84C138.151 354.84 138.815 354.254 138.815 353.476V352.95L137.344 353.046C136.512 353.1 136.123 353.405 136.123 353.943V353.955ZM144.516 355.905C143.014 355.905 142.398 355.402 142.398 354.14V350.492H141.381V349.337H142.398V347.734H143.912V349.337H145.293V350.492H143.912V353.787C143.912 354.439 144.169 354.715 144.791 354.715C145 354.715 145.114 354.709 145.293 354.691V355.839C145.078 355.881 144.803 355.905 144.516 355.905ZM149.385 356.007C147.441 356.007 146.263 354.703 146.263 352.621V352.615C146.263 350.557 147.453 349.212 149.313 349.212C151.173 349.212 152.322 350.516 152.322 352.49V352.98H147.752C147.77 354.152 148.404 354.834 149.415 354.834C150.222 354.834 150.683 354.427 150.827 354.128L150.844 354.087H152.262L152.244 354.14C152.035 354.984 151.162 356.007 149.385 356.007ZM149.331 350.378C148.5 350.378 147.878 350.94 147.764 351.981H150.868C150.767 350.91 150.163 350.378 149.331 350.378ZM156.815 355.875V349.337H158.304V350.336H158.406C158.717 349.636 159.345 349.212 160.29 349.212C161.749 349.212 162.545 350.091 162.545 351.646V355.875H161.056V351.993C161.056 350.976 160.643 350.462 159.74 350.462C158.854 350.462 158.304 351.084 158.304 352.065V355.875H156.815ZM166.971 356.007C165.028 356.007 163.849 354.703 163.849 352.621V352.615C163.849 350.557 165.039 349.212 166.9 349.212C168.76 349.212 169.908 350.516 169.908 352.49V352.98H165.339C165.357 354.152 165.991 354.834 167.001 354.834C167.809 354.834 168.269 354.427 168.413 354.128L168.431 354.087H169.849L169.831 354.14C169.621 354.984 168.748 356.007 166.971 356.007ZM166.918 350.378C166.086 350.378 165.464 350.94 165.351 351.981H168.455C168.353 350.91 167.749 350.378 166.918 350.378ZM172.427 355.875L170.656 349.337H172.152L173.24 354.248H173.342L174.598 349.337H176.016L177.284 354.248H177.386L178.468 349.337H179.946L178.175 355.875H176.614L175.34 351.138H175.238L173.97 355.875H172.427ZM186.029 355.983C184.785 355.983 183.882 355.217 183.882 354.027V354.015C183.882 352.848 184.773 352.167 186.364 352.071L188.045 351.969V351.407C188.045 350.755 187.62 350.396 186.819 350.396C186.137 350.396 185.694 350.641 185.545 351.072L185.539 351.096H184.133L184.139 351.042C184.283 349.941 185.336 349.212 186.891 349.212C188.572 349.212 189.517 350.025 189.517 351.407V355.875H188.045V354.978H187.943C187.585 355.612 186.891 355.983 186.029 355.983ZM185.354 353.955C185.354 354.511 185.826 354.84 186.484 354.84C187.381 354.84 188.045 354.254 188.045 353.476V352.95L186.574 353.046C185.742 353.1 185.354 353.405 185.354 353.943V353.955ZM193.53 355.983C191.892 355.983 190.851 354.685 190.851 352.615V352.603C190.851 350.522 191.874 349.23 193.53 349.23C194.428 349.23 195.175 349.672 195.516 350.378H195.618V346.807H197.113V355.875H195.618V354.852H195.516C195.157 355.564 194.452 355.983 193.53 355.983ZM193.997 354.727C195.014 354.727 195.642 353.925 195.642 352.615V352.603C195.642 351.293 195.008 350.486 193.997 350.486C192.986 350.486 192.364 351.287 192.364 352.603V352.615C192.364 353.931 192.98 354.727 193.997 354.727Z" fill="#0A66C2"/>
</g>
<path d="M274.875 252.5V1028.63H276.625V252.5H274.875Z" fill="black" fill-opacity="0.08" mask="url(#path-43-inside-2_3501_49058)"/>
</g>
<rect x="16" y="16" width="30" height="24" rx="4" fill="#0A66C2"/>
<path d="M25.8 34.16C23.288 34.16 21.8 32.016 21.8 28.4C21.8 24.784 23.288 22.64 25.8 22.64C28.312 22.64 29.8 24.784 29.8 28.4C29.8 32.016 28.312 34.16 25.8 34.16ZM23.784 29.648L27.416 25.616C27.064 24.816 26.52 24.4 25.8 24.4C24.472 24.4 23.72 25.856 23.72 28.4C23.72 28.848 23.736 29.264 23.784 29.648ZM25.8 32.4C27.128 32.4 27.88 30.944 27.88 28.4C27.88 27.952 27.864 27.536 27.816 27.152L24.184 31.184C24.536 31.984 25.08 32.4 25.8 32.4ZM31.7938 34V32.24H34.5938V24.896L31.7938 26.576V24.592L34.7538 22.8H36.5938V32.24H39.3138V34H31.7938Z" fill="white"/>
<path d="M57.088 34V32.672H59.584V24.128H57.12V22.8H63.536V24.128H61.072V32.672H63.568V34H57.088ZM72.6498 31.808V22.8H74.0258V34H72.0898L67.8338 24.32H67.7698V34H66.3778V22.8H68.5858L72.5858 31.808H72.6498ZM79.2515 34V24.128H75.9075V22.8H84.0675V24.128H80.7395V34H79.2515ZM86.2853 34V22.8H92.9573V24.128H87.7733V27.52H92.2693V28.848H87.7733V32.672H92.9573V34H86.2853ZM97.335 27.76H99.959C100.983 27.76 101.687 27.024 101.687 25.936C101.687 24.848 100.983 24.128 99.959 24.128H97.335V27.76ZM95.831 34V22.8H99.879C101.783 22.8 103.127 24.08 103.127 25.936C103.127 27.456 102.231 28.576 100.887 28.96L103.447 34H101.815L99.319 29.088H97.335V34H95.831ZM111.217 31.808V22.8H112.593V34H110.657L106.401 24.32H106.337V34H104.945V22.8H107.153L111.153 31.808H111.217ZM114.587 31.12H115.979C116.091 32.16 117.083 32.896 118.379 32.896C119.739 32.896 120.683 32.096 120.683 30.944C120.683 29.952 119.995 29.344 118.619 29.056L117.963 28.928C115.914 28.528 114.875 27.504 114.875 25.856C114.875 23.936 116.283 22.64 118.363 22.64C120.363 22.64 121.915 23.856 122.01 25.52H120.619C120.491 24.608 119.563 23.952 118.395 23.952C117.163 23.952 116.331 24.688 116.331 25.776C116.331 26.704 116.939 27.28 118.171 27.52L118.811 27.648C121.019 28.08 122.139 29.152 122.139 30.864C122.139 32.864 120.635 34.224 118.427 34.224C116.267 34.224 114.651 32.912 114.587 31.12ZM124.676 34V22.8H126.18V27.52H130.708V22.8H132.196V34H130.708V28.896H126.18V34H124.676ZM134.606 34V32.672H137.102V24.128H134.638V22.8H141.054V24.128H138.59V32.672H141.086V34H134.606ZM143.848 34V22.8H147.928C149.88 22.8 151.256 24.144 151.256 26.064C151.256 27.968 149.88 29.328 147.928 29.328H145.352V34H143.848ZM145.352 28H148.008C149.08 28 149.816 27.216 149.816 26.064C149.816 24.896 149.08 24.128 148.008 24.128H145.352V28Z" fill="#0A0A0A"/>
<path d="M471.344 34V33.392C471.344 32.112 472.128 30.928 474.192 29.12C475.888 27.632 476.544 26.72 476.544 25.744C476.544 24.672 475.76 23.952 474.624 23.952C473.536 23.952 472.688 24.608 472.592 25.52H471.136C471.184 23.872 472.672 22.64 474.656 22.64C476.64 22.64 478.048 23.888 478.048 25.696C478.048 27.072 477.216 28.32 475.2 30.064C473.952 31.152 473.28 31.936 473.024 32.688H478.496V34H471.344ZM484.394 34.16C481.994 34.16 480.554 32.016 480.554 28.4C480.554 24.784 481.994 22.64 484.394 22.64C486.81 22.64 488.234 24.784 488.234 28.4C488.234 32.016 486.81 34.16 484.394 34.16ZM482.138 30.144L486.346 25.472C485.946 24.48 485.274 23.952 484.394 23.952C482.858 23.952 481.994 25.552 481.994 28.4C481.994 29.04 482.042 29.632 482.138 30.144ZM484.394 32.848C485.93 32.848 486.794 31.232 486.794 28.4C486.794 27.744 486.762 27.168 486.666 26.656L482.458 31.328C482.858 32.32 483.514 32.848 484.394 32.848ZM490.532 34V33.392C490.532 32.112 491.316 30.928 493.38 29.12C495.076 27.632 495.732 26.72 495.732 25.744C495.732 24.672 494.948 23.952 493.812 23.952C492.724 23.952 491.876 24.608 491.78 25.52H490.324C490.372 23.872 491.86 22.64 493.844 22.64C495.828 22.64 497.236 23.888 497.236 25.696C497.236 27.072 496.404 28.32 494.388 30.064C493.14 31.152 492.468 31.936 492.212 32.688H497.684V34H490.532ZM499.421 31.392V29.952L503.837 22.8H505.901V30.064H507.869V31.392H505.901V34H504.461V31.392H499.421ZM504.397 24.128L500.765 30.064H504.461V24.128H504.397Z" fill="#0A0A0A"/>
</g>
<rect x="0.4" y="0.4" width="524.2" height="350.2" rx="7.6" stroke="#CDCDCD" stroke-width="0.8"/>
<defs>
<clipPath id="clip0_3501_49058">
<rect width="525" height="351" rx="8" fill="white"/>
</clipPath>
<clipPath id="clip1_3501_49058">
<rect width="85.75" height="21" fill="white" transform="translate(120 99.375)"/>
</clipPath>
<clipPath id="clip2_3501_49058">
<rect width="45.5" height="10.5" fill="white" transform="translate(53.4998 105.5)"/>
</clipPath>
<clipPath id="clip3_3501_49058">
<rect width="1260" height="896" fill="white" transform="translate(36 133.5)"/>
</clipPath>
<clipPath id="clip4_3501_49058">
<rect x="296.75" y="273.5" width="470.75" height="731.5" rx="7" fill="white"/>
</clipPath>
<clipPath id="clip5_3501_49058">
<rect width="101.5" height="15" fill="white" transform="translate(310.749 328.75)"/>
</clipPath>
<clipPath id="clip6_3501_49058">
<path d="M36 252.5H275.75V1028.63H36V252.5Z" fill="white"/>
</clipPath>
</defs>
</svg>
