<svg width="584" height="390" viewBox="0 0 584 390" fill="none" xmlns="http://www.w3.org/2000/svg">
<g clip-path="url(#clip0_3390_17132)">
<rect width="584" height="390" fill="#F2F2F2"/>
<g filter="url(#filter0_dddd_3390_17132)">
<rect x="56.9702" y="49.0777" width="1421.03" height="1061.95" rx="10.1115" stroke="#C7C7C6" stroke-width="0.493243"/>
<path d="M57.2168 65.1081C57.2168 59.5833 57.2168 56.8209 58.292 54.7106C59.2378 52.8545 60.7469 51.3453 62.6031 50.3995C64.7133 49.3243 67.4757 49.3243 73.0006 49.3243H1461.97C1467.5 49.3243 1470.26 49.3243 1472.37 50.3995C1474.23 51.3453 1475.74 52.8545 1476.68 54.7106C1477.76 56.8209 1477.76 59.5833 1477.76 65.1081V100.622H57.2168V65.1081Z" fill="#FDFDFD"/>
<g clip-path="url(#clip1_3390_17132)">
<path d="M156.587 82.3856H170.597C172.374 82.3856 173.3 81.4684 173.3 79.7161V69.7505C173.3 67.9982 172.374 67.0811 170.597 67.0811H156.587C154.818 67.0811 153.893 67.99 153.893 69.7505V79.7161C153.893 81.4684 154.818 82.3856 156.587 82.3856ZM156.693 80.756C155.94 80.756 155.522 80.363 155.522 79.5687V69.8979C155.522 69.1036 155.94 68.7106 156.693 68.7106H160.427V80.756H156.693ZM170.491 68.7106C171.244 68.7106 171.662 69.1036 171.662 69.8979V79.5687C171.662 80.363 171.244 80.756 170.491 80.756H161.975V68.7106H170.491ZM158.822 71.7076C159.117 71.7076 159.363 71.4538 159.363 71.1754C159.363 70.8969 159.117 70.6513 158.822 70.6513H157.143C156.849 70.6513 156.603 70.8969 156.603 71.1754C156.603 71.4538 156.849 71.7076 157.143 71.7076H158.822ZM158.822 73.9104C159.117 73.9104 159.363 73.6647 159.363 73.3781C159.363 73.0997 159.117 72.854 158.822 72.854H157.143C156.849 72.854 156.603 73.0997 156.603 73.3781C156.603 73.6647 156.849 73.9104 157.143 73.9104H158.822ZM158.822 76.1049C159.117 76.1049 159.363 75.8674 159.363 75.5808C159.363 75.3024 159.117 75.0649 158.822 75.0649H157.143C156.849 75.0649 156.603 75.3024 156.603 75.5808C156.603 75.8674 156.849 76.1049 157.143 76.1049H158.822Z" fill="#717171"/>
<path d="M204.595 80.9844L198.599 75.1194C198.391 74.9113 198.283 74.6801 198.283 74.4104C198.283 74.1406 198.391 73.894 198.607 73.6936L204.603 67.8364C204.772 67.6668 204.988 67.5743 205.235 67.5743C205.751 67.5743 206.152 67.9751 206.152 68.4838C206.152 68.7304 206.052 68.9693 205.875 69.1466L200.48 74.4027L205.875 79.6742C206.052 79.8515 206.152 80.0827 206.152 80.337C206.152 80.8457 205.751 81.2464 205.235 81.2464C204.988 81.2464 204.772 81.1539 204.595 80.9844Z" fill="#717171"/>
<path d="M234.222 81.2464C234.476 81.2464 234.684 81.1539 234.861 80.9844L240.857 75.1271C241.066 74.9113 241.173 74.6878 241.173 74.4104C241.173 74.1406 241.073 73.9017 240.857 73.7013L234.861 67.8364C234.684 67.6668 234.476 67.5743 234.222 67.5743C233.705 67.5743 233.305 67.9751 233.305 68.4838C233.305 68.7304 233.413 68.9693 233.582 69.1466L238.985 74.4181L233.582 79.6742C233.405 79.8592 233.305 80.0827 233.305 80.337C233.305 80.8457 233.705 81.2464 234.222 81.2464Z" fill="#BDBCBC"/>
</g>
<g clip-path="url(#clip2_3390_17132)">
<circle cx="82.8642" cy="74.973" r="5.91892" fill="#ED6A5E"/>
<circle cx="82.8642" cy="74.973" r="5.42567" stroke="black" stroke-opacity="0.1" stroke-width="0.986486"/>
<circle cx="102.595" cy="74.973" r="5.91892" fill="#F4BD50"/>
<circle cx="102.595" cy="74.973" r="5.42567" stroke="black" stroke-opacity="0.1" stroke-width="0.986486"/>
<circle cx="122.325" cy="74.973" r="5.91892" fill="#61C454"/>
<circle cx="122.325" cy="74.973" r="5.42567" stroke="black" stroke-opacity="0.1" stroke-width="0.986486"/>
</g>
<path d="M491.518 70.6324C491.518 67.3175 491.518 65.66 492.163 64.3939C492.73 63.2802 493.636 62.3747 494.749 61.8072C496.015 61.1621 497.673 61.1621 500.988 61.1621H1033.49C1036.81 61.1621 1038.47 61.1621 1039.73 61.8072C1040.85 62.3747 1041.75 63.2802 1042.32 64.3939C1042.96 65.66 1042.96 67.3175 1042.96 70.6324V79.3135C1042.96 82.6284 1042.96 84.2858 1042.32 85.5519C1041.75 86.6657 1040.85 87.5711 1039.73 88.1386C1038.47 88.7837 1036.81 88.7837 1033.49 88.7837H500.988C497.673 88.7837 496.015 88.7837 494.749 88.1386C493.636 87.5711 492.73 86.6657 492.163 85.5519C491.518 84.2858 491.518 82.6284 491.518 79.3135V70.6324Z" fill="#F0F0F0"/>
<path d="M468.827 82.8649C468.974 82.8649 469.195 82.8154 469.399 82.7001C474.1 80.1206 475.733 78.9257 475.733 75.926V69.7041C475.733 68.7152 475.349 68.3609 474.533 68.0065C473.627 67.6192 470.582 66.5479 469.692 66.2429C469.423 66.1523 469.105 66.0946 468.827 66.0946C468.55 66.0946 468.231 66.1688 467.962 66.2429C467.072 66.4984 464.028 67.6274 463.122 68.0065C462.306 68.3526 461.922 68.7152 461.922 69.7041V75.926C461.922 78.9257 463.563 80.1042 468.248 82.7001C468.46 82.8154 468.68 82.8649 468.827 82.8649ZM469.268 67.7593C470.337 68.1878 472.664 69.0201 473.888 69.4569C474.117 69.5475 474.174 69.6712 474.174 69.9678V75.6211C474.174 78.0357 472.974 78.6867 469.293 80.9283C469.064 81.0684 468.95 81.1178 468.835 81.1178V67.6686C468.95 67.6686 469.072 67.6933 469.268 67.7593Z" fill="#717171"/>
<g clip-path="url(#clip3_3390_17132)">
<rect width="1420.54" height="1010.16" transform="translate(57.2168 100.622)" fill="#F3F2F0"/>
<mask id="path-15-inside-1_3390_17132" fill="white">
<path d="M57.2168 155.864H1477.76V234.783H57.2168V155.864Z"/>
</mask>
<path d="M57.2168 155.864H1477.76V234.783H57.2168V155.864Z" fill="white"/>
<path d="M1477.76 233.797H57.2168V235.77H1477.76V233.797Z" fill="black" fill-opacity="0.08" mask="url(#path-15-inside-1_3390_17132)"/>
<path d="M107.134 187.432L101.609 195.324L107.134 203.216H109.501L104.667 196.31H122.326V194.337H104.667L109.501 187.432H107.134Z" fill="black" fill-opacity="0.75"/>
<path d="M161.863 185.418C161.384 185.418 160.986 185.02 160.986 184.542C160.986 184.056 161.384 183.665 161.863 183.665C162.348 183.665 162.739 184.056 162.739 184.542C162.739 185.02 162.348 185.418 161.863 185.418ZM165.815 185.418C165.336 185.418 164.938 185.02 164.938 184.542C164.938 184.056 165.336 183.665 165.815 183.665C166.3 183.665 166.691 184.056 166.691 184.542C166.691 185.02 166.3 185.418 165.815 185.418ZM169.767 185.418C169.288 185.418 168.89 185.02 168.89 184.542C168.89 184.056 169.288 183.665 169.767 183.665C170.252 183.665 170.643 184.056 170.643 184.542C170.643 185.02 170.252 185.418 169.767 185.418Z" fill="black" fill-opacity="0.6"/>
<path d="M180.959 175.195L177.884 187.779H176.758L179.833 175.195H180.959Z" fill="black" fill-opacity="0.6"/>
<path d="M190.891 185.351V175.62H192.105V184.258H196.799V185.351H190.891ZM201.074 185.479C198.997 185.479 197.743 184.022 197.743 181.743V181.736C197.743 179.491 199.024 177.953 201 177.953C202.976 177.953 204.176 179.423 204.176 181.595V182.053H198.943C198.977 183.557 199.807 184.434 201.101 184.434C202.086 184.434 202.693 183.968 202.888 183.53L202.915 183.469H204.089L204.075 183.523C203.826 184.508 202.787 185.479 201.074 185.479ZM200.993 178.998C199.914 178.998 199.092 179.733 198.964 181.116H202.983C202.861 179.679 202.066 178.998 200.993 178.998ZM207.845 185.479C206.463 185.479 205.418 184.643 205.418 183.321V183.308C205.418 182.013 206.375 181.264 208.068 181.163L210.152 181.035V180.374C210.152 179.477 209.605 178.992 208.52 178.992C207.65 178.992 207.077 179.315 206.888 179.882L206.881 179.902H205.708L205.714 179.862C205.903 178.722 207.009 177.953 208.56 177.953C210.334 177.953 211.325 178.864 211.325 180.374V185.351H210.152V184.279H210.044C209.585 185.054 208.823 185.479 207.845 185.479ZM206.618 183.294C206.618 184.029 207.245 184.461 208.088 184.461C209.282 184.461 210.152 183.678 210.152 182.64V181.979L208.209 182.1C207.103 182.168 206.618 182.559 206.618 183.281V183.294ZM216.005 185.479C214.164 185.479 212.957 183.989 212.957 181.723V181.709C212.957 179.43 214.158 177.953 216.005 177.953C217.003 177.953 217.873 178.452 218.271 179.228H218.379V175.195H219.552V185.351H218.379V184.191H218.271C217.826 185 217.017 185.479 216.005 185.479ZM216.275 184.44C217.597 184.44 218.406 183.402 218.406 181.723V181.709C218.406 180.03 217.597 178.992 216.275 178.992C214.947 178.992 214.158 180.017 214.158 181.709V181.723C214.158 183.415 214.947 184.44 216.275 184.44ZM228.387 187.913C226.634 187.913 225.515 187.124 225.332 185.931L225.346 185.924H226.56L226.567 185.931C226.695 186.484 227.342 186.875 228.387 186.875C229.689 186.875 230.464 186.261 230.464 185.189V183.719H230.356C229.898 184.521 229.075 184.973 228.077 184.973C226.196 184.973 225.029 183.517 225.029 181.48V181.467C225.029 179.43 226.202 177.953 228.104 177.953C229.129 177.953 229.925 178.459 230.37 179.282H230.451V178.081H231.624V185.25C231.624 186.875 230.37 187.913 228.387 187.913ZM228.333 183.935C229.682 183.935 230.491 182.923 230.491 181.48V181.467C230.491 180.023 229.675 178.992 228.333 178.992C226.985 178.992 226.229 180.023 226.229 181.467V181.48C226.229 182.923 226.985 183.935 228.333 183.935ZM236.628 185.479C234.551 185.479 233.297 184.022 233.297 181.743V181.736C233.297 179.491 234.578 177.953 236.554 177.953C238.53 177.953 239.73 179.423 239.73 181.595V182.053H234.497C234.531 183.557 235.361 184.434 236.655 184.434C237.64 184.434 238.247 183.968 238.442 183.53L238.469 183.469H239.643L239.629 183.523C239.38 184.508 238.341 185.479 236.628 185.479ZM236.547 178.998C235.468 178.998 234.646 179.733 234.518 181.116H238.537C238.415 179.679 237.62 178.998 236.547 178.998ZM241.403 185.351V178.081H242.577V179.174H242.684C243.049 178.405 243.73 177.953 244.802 177.953C246.434 177.953 247.344 178.917 247.344 180.644V185.351H246.171V180.927C246.171 179.619 245.631 178.992 244.471 178.992C243.312 178.992 242.577 179.774 242.577 181.048V185.351H241.403ZM257.123 185.58C254.48 185.58 252.828 183.624 252.828 180.495V180.482C252.828 177.346 254.473 175.391 257.116 175.391C259.166 175.391 260.765 176.679 261.055 178.547L261.048 178.56H259.827L259.821 178.547C259.497 177.299 258.458 176.51 257.116 176.51C255.248 176.51 254.075 178.048 254.075 180.482V180.495C254.075 182.93 255.248 184.461 257.123 184.461C258.479 184.461 259.51 183.766 259.814 182.647L259.827 182.633H261.055V182.647C260.731 184.427 259.193 185.58 257.123 185.58ZM266.976 185.58C264.285 185.58 262.566 183.598 262.566 180.489V180.475C262.566 177.407 264.312 175.391 266.976 175.391C269.134 175.391 270.651 176.604 271.036 178.452L271.049 178.52H269.822L269.801 178.452C269.404 177.198 268.426 176.51 266.976 176.51C265.047 176.51 263.806 178.061 263.806 180.475V180.489C263.806 182.937 265.027 184.461 266.983 184.461C268.722 184.461 269.896 183.348 269.896 181.703V181.467H267.165V180.401H271.11V181.588C271.11 183.989 269.464 185.58 266.976 185.58ZM276.6 181.979V180.887H281.131V181.979H276.6ZM290.142 185.58C288.011 185.58 286.635 184.461 286.493 182.876L286.487 182.802H287.7L287.707 182.876C287.795 183.847 288.806 184.461 290.209 184.461C291.531 184.461 292.495 183.78 292.495 182.788V182.782C292.495 181.972 291.935 181.419 290.6 181.123L289.521 180.887C287.572 180.455 286.729 179.558 286.729 178.149V178.142C286.736 176.53 288.145 175.391 290.155 175.391C292.097 175.391 293.453 176.537 293.554 177.987L293.561 178.081H292.347L292.333 177.994C292.198 177.137 291.389 176.503 290.121 176.51C288.907 176.517 287.97 177.09 287.97 178.108V178.115C287.97 178.891 288.503 179.416 289.825 179.706L290.904 179.949C292.933 180.401 293.736 181.217 293.736 182.62V182.626C293.736 184.447 292.313 185.58 290.142 185.58ZM298.43 185.479C296.353 185.479 295.098 184.022 295.098 181.743V181.736C295.098 179.491 296.38 177.953 298.356 177.953C300.331 177.953 301.532 179.423 301.532 181.595V182.053H296.299C296.333 183.557 297.162 184.434 298.457 184.434C299.441 184.434 300.048 183.968 300.244 183.53L300.271 183.469H301.444L301.431 183.523C301.181 184.508 300.143 185.479 298.43 185.479ZM298.349 178.998C297.27 178.998 296.447 179.733 296.319 181.116H300.338C300.217 179.679 299.421 178.998 298.349 178.998ZM303.205 187.779V178.081H304.378V179.241H304.486C304.931 178.432 305.74 177.953 306.752 177.953C308.593 177.953 309.8 179.443 309.8 181.709V181.723C309.8 184.002 308.599 185.479 306.752 185.479C305.754 185.479 304.884 184.98 304.486 184.204H304.378V187.779H303.205ZM306.482 184.44C307.81 184.44 308.599 183.415 308.599 181.723V181.709C308.599 180.017 307.81 178.992 306.482 178.992C305.16 178.992 304.351 180.03 304.351 181.709V181.723C304.351 183.402 305.16 184.44 306.482 184.44ZM314.069 185.405C312.572 185.405 311.945 184.852 311.945 183.463V179.052H310.798V178.081H311.945V176.2H313.158V178.081H314.75V179.052H313.158V183.166C313.158 184.022 313.455 184.366 314.21 184.366C314.42 184.366 314.534 184.36 314.75 184.339V185.337C314.521 185.378 314.298 185.405 314.069 185.405ZM323.524 185.58C321.744 185.58 319.862 184.326 319.862 180.664V180.651C319.862 177.333 321.245 175.391 323.605 175.391C325.237 175.391 326.451 176.348 326.781 177.785L326.801 177.872H325.581L325.554 177.798C325.257 176.982 324.576 176.476 323.592 176.476C321.825 176.476 321.103 178.203 321.029 180.232C321.022 180.307 321.022 180.388 321.022 180.462H321.15C321.508 179.666 322.425 178.958 323.74 178.958C325.567 178.958 326.93 180.347 326.93 182.215V182.229C326.93 184.171 325.486 185.58 323.524 185.58ZM321.312 182.215C321.312 183.496 322.277 184.508 323.511 184.508C324.731 184.508 325.709 183.517 325.709 182.256V182.242C325.709 180.947 324.792 180.017 323.531 180.017C322.27 180.017 321.312 180.941 321.312 182.208V182.215ZM327.968 187.826L328.555 183.989H329.897L328.838 187.826H327.968ZM335.947 185.351V184.515L339.238 180.954C340.479 179.612 340.843 179.106 340.843 178.257V178.243C340.843 177.218 340.148 176.449 339.002 176.449C337.835 176.449 337.06 177.211 337.06 178.358L337.053 178.371L335.893 178.365L335.879 178.358C335.886 176.631 337.221 175.391 339.083 175.391C340.782 175.391 342.084 176.544 342.084 178.115V178.128C342.084 179.241 341.605 180.05 339.845 181.864L337.633 184.15V184.258H342.245V185.351H335.947ZM347.391 185.58C345.24 185.58 343.959 183.618 343.959 180.489V180.475C343.959 177.346 345.24 175.391 347.391 175.391C349.542 175.391 350.837 177.346 350.837 180.475V180.489C350.837 183.618 349.542 185.58 347.391 185.58ZM347.391 184.521C348.787 184.521 349.616 182.97 349.616 180.489V180.475C349.616 177.994 348.787 176.456 347.391 176.456C345.995 176.456 345.179 177.994 345.179 180.475V180.489C345.179 182.97 345.995 184.521 347.391 184.521ZM352.685 185.351V184.515L355.976 180.954C357.217 179.612 357.581 179.106 357.581 178.257V178.243C357.581 177.218 356.886 176.449 355.74 176.449C354.573 176.449 353.798 177.211 353.798 178.358L353.791 178.371L352.631 178.365L352.618 178.358C352.624 176.631 353.96 175.391 355.821 175.391C357.52 175.391 358.822 176.544 358.822 178.115V178.128C358.822 179.241 358.343 180.05 356.583 181.864L354.371 184.15V184.258H358.984V185.351H352.685ZM364.183 185.513C362.174 185.513 360.872 184.393 360.744 182.856L360.737 182.775H361.904L361.911 182.842C362.005 183.8 362.889 184.461 364.183 184.461C365.458 184.461 366.328 183.746 366.328 182.714V182.701C366.328 181.507 365.471 180.839 364.109 180.839H362.889V179.814H364.055C365.215 179.814 366.024 179.1 366.024 178.128V178.115C366.024 177.097 365.357 176.51 364.17 176.51C363.023 176.51 362.207 177.117 362.106 178.102L362.1 178.169H360.933L360.94 178.102C361.095 176.517 362.349 175.458 364.17 175.458C366.024 175.458 367.245 176.49 367.245 177.967V177.98C367.245 179.18 366.395 180.003 365.181 180.259V180.286C366.598 180.408 367.562 181.291 367.562 182.674V182.687C367.562 184.312 366.132 185.513 364.183 185.513Z" fill="black" fill-opacity="0.6"/>
<path d="M376.797 175.195L373.722 187.779H372.596L375.671 175.195H376.797Z" fill="black" fill-opacity="0.6"/>
<path d="M386.729 185.351V175.62H387.943V184.258H392.636V185.351H386.729ZM396.912 185.479C394.835 185.479 393.581 184.022 393.581 181.743V181.736C393.581 179.491 394.862 177.953 396.838 177.953C398.814 177.953 400.014 179.423 400.014 181.595V182.053H394.781C394.815 183.557 395.644 184.434 396.939 184.434C397.924 184.434 398.531 183.968 398.726 183.53L398.753 183.469H399.927L399.913 183.523C399.664 184.508 398.625 185.479 396.912 185.479ZM396.831 178.998C395.752 178.998 394.93 179.733 394.802 181.116H398.821C398.699 179.679 397.904 178.998 396.831 178.998ZM403.683 185.479C402.301 185.479 401.255 184.643 401.255 183.321V183.308C401.255 182.013 402.213 181.264 403.906 181.163L405.989 181.035V180.374C405.989 179.477 405.443 178.992 404.358 178.992C403.488 178.992 402.914 179.315 402.726 179.882L402.719 179.902H401.545L401.552 179.862C401.741 178.722 402.847 177.953 404.398 177.953C406.172 177.953 407.163 178.864 407.163 180.374V185.351H405.989V184.279H405.882C405.423 185.054 404.661 185.479 403.683 185.479ZM402.456 183.294C402.456 184.029 403.083 184.461 403.926 184.461C405.12 184.461 405.989 183.678 405.989 182.64V181.979L404.047 182.1C402.941 182.168 402.456 182.559 402.456 183.281V183.294ZM411.843 185.479C410.002 185.479 408.795 183.989 408.795 181.723V181.709C408.795 179.43 409.996 177.953 411.843 177.953C412.841 177.953 413.711 178.452 414.109 179.228H414.217V175.195H415.39V185.351H414.217V184.191H414.109C413.664 185 412.855 185.479 411.843 185.479ZM412.113 184.44C413.435 184.44 414.244 183.402 414.244 181.723V181.709C414.244 180.03 413.435 178.992 412.113 178.992C410.785 178.992 409.996 180.017 409.996 181.709V181.723C409.996 183.415 410.785 184.44 412.113 184.44ZM424.225 187.913C422.472 187.913 421.352 187.124 421.17 185.931L421.184 185.924H422.398L422.404 185.931C422.533 186.484 423.18 186.875 424.225 186.875C425.527 186.875 426.302 186.261 426.302 185.189V183.719H426.194C425.736 184.521 424.913 184.973 423.915 184.973C422.034 184.973 420.867 183.517 420.867 181.48V181.467C420.867 179.43 422.04 177.953 423.942 177.953C424.967 177.953 425.763 178.459 426.208 179.282H426.289V178.081H427.462V185.25C427.462 186.875 426.208 187.913 424.225 187.913ZM424.171 183.935C425.52 183.935 426.329 182.923 426.329 181.48V181.467C426.329 180.023 425.513 178.992 424.171 178.992C422.823 178.992 422.067 180.023 422.067 181.467V181.48C422.067 182.923 422.823 183.935 424.171 183.935ZM432.466 185.479C430.389 185.479 429.135 184.022 429.135 181.743V181.736C429.135 179.491 430.416 177.953 432.392 177.953C434.368 177.953 435.568 179.423 435.568 181.595V182.053H430.335C430.369 183.557 431.198 184.434 432.493 184.434C433.478 184.434 434.085 183.968 434.28 183.53L434.307 183.469H435.481L435.467 183.523C435.218 184.508 434.179 185.479 432.466 185.479ZM432.385 178.998C431.306 178.998 430.484 179.733 430.355 181.116H434.375C434.253 179.679 433.458 178.998 432.385 178.998ZM437.241 185.351V178.081H438.414V179.174H438.522C438.886 178.405 439.568 177.953 440.64 177.953C442.272 177.953 443.182 178.917 443.182 180.644V185.351H442.009V180.927C442.009 179.619 441.469 178.992 440.309 178.992C439.149 178.992 438.414 179.774 438.414 181.048V185.351H437.241ZM448.794 181.979V180.887H453.325V181.979H448.794ZM463.064 185.58C460.42 185.58 458.768 183.624 458.768 180.495V180.482C458.768 177.346 460.413 175.391 463.057 175.391C465.107 175.391 466.705 176.679 466.995 178.547L466.988 178.56H465.768L465.761 178.547C465.437 177.299 464.399 176.51 463.057 176.51C461.189 176.51 460.016 178.048 460.016 180.482V180.495C460.016 182.93 461.189 184.461 463.064 184.461C464.419 184.461 465.451 183.766 465.754 182.647L465.768 182.633H466.995V182.647C466.671 184.427 465.134 185.58 463.064 185.58ZM468.041 185.351L471.359 180.462V180.435L468.081 175.62H469.545L472.148 179.538H472.188L474.818 175.62H476.201L472.835 180.495V180.522L476.126 185.351H474.67L472.08 181.467H472.04L469.416 185.351H468.041ZM481.656 185.58C478.865 185.58 477.192 183.598 477.192 180.489V180.475C477.192 177.353 478.905 175.391 481.656 175.391C484.421 175.391 486.121 177.36 486.121 180.475V180.489C486.121 183.591 484.435 185.58 481.656 185.58ZM481.656 184.461C483.653 184.461 484.88 182.896 484.88 180.489V180.475C484.88 178.048 483.646 176.51 481.656 176.51C479.674 176.51 478.433 178.048 478.433 180.475V180.489C478.433 182.896 479.633 184.461 481.656 184.461ZM491.564 181.979V180.887H496.095V181.979H491.564ZM501.916 185.351V175.62H503.129V185.351H501.916ZM505.315 185.351V178.081H506.488V179.174H506.596C506.96 178.405 507.641 177.953 508.714 177.953C510.345 177.953 511.256 178.917 511.256 180.644V185.351H510.082V180.927C510.082 179.619 509.543 178.992 508.383 178.992C507.223 178.992 506.488 179.774 506.488 181.048V185.351H505.315ZM513.718 185.351V179.052H512.511V178.081H513.718V177.272C513.718 175.822 514.446 175.128 515.828 175.128C516.112 175.128 516.368 175.148 516.611 175.195V176.132C516.469 176.105 516.273 176.099 516.064 176.099C515.228 176.099 514.891 176.51 514.891 177.306V178.081H516.543V179.052H514.891V185.351H513.718ZM518.155 185.351V175.195H519.329V185.351H518.155ZM523.867 185.479C522.215 185.479 521.366 184.508 521.366 182.788V178.081H522.539V182.505C522.539 183.813 523.011 184.44 524.171 184.44C525.452 184.44 526.133 183.658 526.133 182.384V178.081H527.307V185.351H526.133V184.265H526.025C525.668 185.041 524.933 185.479 523.867 185.479ZM532.318 185.479C530.241 185.479 528.986 184.022 528.986 181.743V181.736C528.986 179.491 530.267 177.953 532.243 177.953C534.219 177.953 535.42 179.423 535.42 181.595V182.053H530.187C530.22 183.557 531.05 184.434 532.345 184.434C533.329 184.434 533.936 183.968 534.132 183.53L534.159 183.469H535.332L535.318 183.523C535.069 184.508 534.03 185.479 532.318 185.479ZM532.237 178.998C531.158 178.998 530.335 179.733 530.207 181.116H534.226C534.105 179.679 533.309 178.998 532.237 178.998ZM537.092 185.351V178.081H538.266V179.174H538.374C538.738 178.405 539.419 177.953 540.491 177.953C542.123 177.953 543.033 178.917 543.033 180.644V185.351H541.86V180.927C541.86 179.619 541.321 178.992 540.161 178.992C539.001 178.992 538.266 179.774 538.266 181.048V185.351H537.092ZM547.984 185.479C545.947 185.479 544.646 184.002 544.646 181.696V181.682C544.646 179.423 545.94 177.953 547.977 177.953C549.744 177.953 550.802 178.971 551.018 180.266L551.025 180.307H549.858L549.852 180.286C549.669 179.572 549.022 178.992 547.977 178.992C546.669 178.992 545.846 180.044 545.846 181.682V181.696C545.846 183.368 546.682 184.44 547.977 184.44C548.955 184.44 549.575 184.009 549.845 183.2L549.858 183.159L551.018 183.152L551.005 183.227C550.708 184.542 549.73 185.479 547.984 185.479ZM555.557 185.479C553.48 185.479 552.226 184.022 552.226 181.743V181.736C552.226 179.491 553.507 177.953 555.483 177.953C557.459 177.953 558.659 179.423 558.659 181.595V182.053H553.426C553.46 183.557 554.289 184.434 555.584 184.434C556.569 184.434 557.175 183.968 557.371 183.53L557.398 183.469H558.571L558.558 183.523C558.308 184.508 557.27 185.479 555.557 185.479ZM555.476 178.998C554.397 178.998 553.574 179.733 553.446 181.116H557.465C557.344 179.679 556.548 178.998 555.476 178.998ZM560.332 185.351V178.081H561.505V179.16H561.613C561.89 178.398 562.571 177.953 563.555 177.953C563.778 177.953 564.027 177.98 564.142 178V179.14C563.899 179.1 563.677 179.073 563.42 179.073C562.301 179.073 561.505 179.781 561.505 180.846V185.351H560.332ZM567.804 185.479C566.186 185.479 565.073 184.697 564.938 183.496H566.138C566.334 184.103 566.914 184.501 567.845 184.501C568.822 184.501 569.517 184.036 569.517 183.375V183.361C569.517 182.869 569.146 182.525 568.249 182.309L567.123 182.04C565.761 181.716 565.147 181.123 565.147 180.077V180.071C565.147 178.864 566.307 177.953 567.851 177.953C569.375 177.953 570.434 178.715 570.596 179.902H569.443C569.288 179.329 568.721 178.931 567.845 178.931C566.981 178.931 566.347 179.376 566.347 180.017V180.03C566.347 180.522 566.712 180.833 567.568 181.042L568.687 181.311C570.056 181.642 570.717 182.235 570.717 183.274V183.287C570.717 184.582 569.456 185.479 567.804 185.479ZM580.361 185.58C577.57 185.58 575.897 183.598 575.897 180.489V180.475C575.897 177.353 577.61 175.391 580.361 175.391C583.126 175.391 584.826 177.36 584.826 180.475V180.489C584.826 182.37 584.205 183.84 583.099 184.71L584.367 186.45H583.005L582.142 185.256C581.609 185.472 581.015 185.58 580.361 185.58ZM580.361 184.461C580.746 184.461 581.11 184.4 581.434 184.292L580.179 182.566H581.541L582.391 183.732C583.153 183.045 583.585 181.912 583.585 180.489V180.475C583.585 178.048 582.351 176.51 580.361 176.51C578.379 176.51 577.138 178.048 577.138 180.475V180.489C577.138 182.896 578.338 184.461 580.361 184.461ZM589.938 185.513C587.928 185.513 586.626 184.393 586.498 182.856L586.492 182.775H587.658L587.665 182.842C587.759 183.8 588.643 184.461 589.938 184.461C591.212 184.461 592.082 183.746 592.082 182.714V182.701C592.082 181.507 591.226 180.839 589.863 180.839H588.643V179.814H589.809C590.969 179.814 591.779 179.1 591.779 178.128V178.115C591.779 177.097 591.111 176.51 589.924 176.51C588.778 176.51 587.962 177.117 587.861 178.102L587.854 178.169H586.687L586.694 178.102C586.849 176.517 588.103 175.458 589.924 175.458C591.779 175.458 592.999 176.49 592.999 177.967V177.98C592.999 179.18 592.149 180.003 590.936 180.259V180.286C592.352 180.408 593.316 181.291 593.316 182.674V182.687C593.316 184.312 591.886 185.513 589.938 185.513Z" fill="black" fill-opacity="0.6"/>
<path d="M167.086 213.538C163.088 213.538 160.564 210.782 160.564 206.341V206.332C160.564 201.891 163.098 199.155 167.086 199.155C170.284 199.155 172.635 201.149 173.001 203.981L173.011 204.077H170.573L170.525 203.894C170.121 202.305 168.897 201.312 167.086 201.312C164.658 201.312 163.107 203.249 163.107 206.332V206.341C163.107 209.434 164.668 211.38 167.086 211.38C168.859 211.38 170.101 210.426 170.554 208.711L170.583 208.615H173.02L173.001 208.711C172.645 211.563 170.284 213.538 167.086 213.538ZM175.042 213.297V203.085H177.441V204.848H177.489C177.807 203.615 178.655 202.873 179.83 202.873C180.129 202.873 180.408 202.921 180.591 202.969V205.137C180.389 205.06 180.023 205.002 179.618 205.002C178.26 205.002 177.441 205.86 177.441 207.372V213.297H175.042ZM186.303 213.499C183.24 213.499 181.39 211.466 181.39 208.22V208.21C181.39 204.993 183.269 202.873 186.188 202.873C189.107 202.873 190.918 204.925 190.918 208.008V208.779H183.77C183.808 210.57 184.791 211.63 186.352 211.63C187.546 211.63 188.326 210.994 188.558 210.31L188.577 210.243H190.822L190.793 210.349C190.475 211.919 188.972 213.499 186.303 213.499ZM186.217 204.752C184.945 204.752 183.991 205.609 183.799 207.179H188.587C188.413 205.561 187.488 204.752 186.217 204.752ZM195.859 213.47C193.817 213.47 192.439 212.208 192.439 210.387V210.368C192.439 208.557 193.846 207.468 196.322 207.314L198.99 207.15V206.447C198.99 205.416 198.316 204.79 197.102 204.79C195.965 204.79 195.271 205.32 195.117 206.072L195.098 206.158H192.873L192.882 206.043C193.027 204.231 194.597 202.873 197.189 202.873C199.741 202.873 201.389 204.222 201.389 206.274V213.297H198.99V211.726H198.932C198.345 212.796 197.208 213.47 195.859 213.47ZM194.828 210.291C194.828 211.129 195.522 211.64 196.572 211.64C197.95 211.64 198.99 210.725 198.99 209.511V208.74L196.659 208.885C195.474 208.962 194.828 209.472 194.828 210.281V210.291ZM207.496 213.499C205.357 213.499 204.345 212.632 204.345 210.532V204.935H202.9V203.085H204.345V200.494H206.783V203.085H208.681V204.935H206.783V210.33C206.783 211.331 207.226 211.649 208.103 211.649C208.334 211.649 208.517 211.62 208.681 211.611V213.412C208.401 213.451 207.977 213.499 207.496 213.499ZM214.999 213.499C211.936 213.499 210.086 211.466 210.086 208.22V208.21C210.086 204.993 211.965 202.873 214.884 202.873C217.803 202.873 219.614 204.925 219.614 208.008V208.779H212.466C212.504 210.57 213.487 211.63 215.048 211.63C216.242 211.63 217.023 210.994 217.254 210.31L217.273 210.243H219.518L219.489 210.349C219.171 211.919 217.668 213.499 214.999 213.499ZM214.913 204.752C213.641 204.752 212.687 205.609 212.495 207.179H217.283C217.109 205.561 216.184 204.752 214.913 204.752ZM229.853 213.499C227.175 213.499 225.643 212.227 225.431 210.33L225.421 210.243H227.782L227.801 210.33C227.984 211.206 228.649 211.726 229.863 211.726C231.028 211.726 231.731 211.254 231.731 210.503V210.493C231.731 209.877 231.375 209.53 230.315 209.289L228.62 208.913C226.664 208.48 225.682 207.526 225.682 206.014V206.004C225.682 204.135 227.31 202.873 229.776 202.873C232.319 202.873 233.803 204.27 233.889 206.033L233.899 206.139H231.664L231.654 206.062C231.548 205.243 230.893 204.646 229.776 204.646C228.716 204.646 228.051 205.137 228.051 205.888V205.898C228.051 206.486 228.446 206.871 229.506 207.112L231.211 207.488C233.321 207.96 234.14 208.788 234.14 210.272V210.281C234.14 212.208 232.358 213.499 229.853 213.499ZM237.318 201.621C236.567 201.621 235.979 201.023 235.979 200.311C235.979 199.578 236.567 198.991 237.318 198.991C238.07 198.991 238.648 199.578 238.648 200.311C238.648 201.023 238.07 201.621 237.318 201.621ZM236.114 213.297V203.085H238.513V213.297H236.114ZM240.93 213.297V203.085H243.329V204.684H243.377C243.907 203.586 244.947 202.873 246.498 202.873C248.743 202.873 250.024 204.318 250.024 206.688V213.297H247.625V207.17C247.625 205.715 246.951 204.896 245.583 204.896C244.205 204.896 243.329 205.898 243.329 207.372V213.297H240.93ZM256.931 216.871C254.223 216.871 252.518 215.638 252.229 214.039L252.21 213.952H254.57L254.599 214.029C254.859 214.617 255.678 215.06 256.931 215.06C258.491 215.06 259.349 214.231 259.349 212.931V211.457H259.3C258.732 212.545 257.576 213.239 256.112 213.239C253.549 213.239 251.902 211.274 251.902 208.095V208.085C251.902 204.858 253.568 202.873 256.15 202.873C257.595 202.873 258.713 203.644 259.291 204.819H259.349V203.085H261.747V213.008C261.747 215.32 259.888 216.871 256.931 216.871ZM256.863 211.389C258.356 211.389 259.358 210.127 259.358 208.143V208.133C259.358 206.158 258.347 204.896 256.863 204.896C255.322 204.896 254.349 206.139 254.349 208.123V208.133C254.349 210.147 255.322 211.389 256.863 211.389ZM264.155 213.297V199.395H266.554V213.297H264.155ZM273.46 213.499C270.397 213.499 268.547 211.466 268.547 208.22V208.21C268.547 204.993 270.426 202.873 273.345 202.873C276.264 202.873 278.075 204.925 278.075 208.008V208.779H270.927C270.965 210.57 271.948 211.63 273.508 211.63C274.703 211.63 275.483 210.994 275.714 210.31L275.734 210.243H277.978L277.949 210.349C277.632 211.919 276.129 213.499 273.46 213.499ZM273.373 204.752C272.102 204.752 271.148 205.609 270.955 207.179H275.743C275.57 205.561 274.645 204.752 273.373 204.752ZM285.597 201.621C284.845 201.621 284.258 201.023 284.258 200.311C284.258 199.578 284.845 198.991 285.597 198.991C286.348 198.991 286.926 199.578 286.926 200.311C286.926 201.023 286.348 201.621 285.597 201.621ZM284.393 213.297V203.085H286.791V213.297H284.393ZM289.209 213.297V203.085H291.607V204.723H291.656C292.089 203.605 293.139 202.873 294.488 202.873C295.914 202.873 296.945 203.625 297.32 204.935H297.378C297.869 203.663 299.083 202.873 300.557 202.873C302.571 202.873 303.89 204.241 303.89 206.283V213.297H301.492V206.881C301.492 205.619 300.836 204.896 299.661 204.896C298.505 204.896 297.715 205.754 297.715 206.987V213.297H295.384V206.756C295.384 205.609 294.69 204.896 293.573 204.896C292.417 204.896 291.607 205.802 291.607 207.045V213.297H289.209ZM309.207 213.47C307.165 213.47 305.787 212.208 305.787 210.387V210.368C305.787 208.557 307.194 207.468 309.67 207.314L312.338 207.15V206.447C312.338 205.416 311.664 204.79 310.45 204.79C309.313 204.79 308.62 205.32 308.466 206.072L308.446 206.158H306.221L306.231 206.043C306.375 204.231 307.945 202.873 310.537 202.873C313.09 202.873 314.737 204.222 314.737 206.274V213.297H312.338V211.726H312.28C311.693 212.796 310.556 213.47 309.207 213.47ZM308.177 210.291C308.177 211.129 308.87 211.64 309.92 211.64C311.298 211.64 312.338 210.725 312.338 209.511V208.74L310.007 208.885C308.822 208.962 308.177 209.472 308.177 210.281V210.291ZM321.653 216.871C318.946 216.871 317.241 215.638 316.952 214.039L316.933 213.952H319.293L319.322 214.029C319.582 214.617 320.401 215.06 321.653 215.06C323.214 215.06 324.071 214.231 324.071 212.931V211.457H324.023C323.455 212.545 322.299 213.239 320.834 213.239C318.272 213.239 316.624 211.274 316.624 208.095V208.085C316.624 204.858 318.291 202.873 320.873 202.873C322.318 202.873 323.435 203.644 324.013 204.819H324.071V203.085H326.47V213.008C326.47 215.32 324.611 216.871 321.653 216.871ZM321.586 211.389C323.079 211.389 324.081 210.127 324.081 208.143V208.133C324.081 206.158 323.069 204.896 321.586 204.896C320.044 204.896 319.071 206.139 319.071 208.123V208.133C319.071 210.147 320.044 211.389 321.586 211.389ZM333.299 213.499C330.236 213.499 328.386 211.466 328.386 208.22V208.21C328.386 204.993 330.265 202.873 333.184 202.873C336.103 202.873 337.914 204.925 337.914 208.008V208.779H330.766C330.804 210.57 331.787 211.63 333.348 211.63C334.542 211.63 335.322 210.994 335.554 210.31L335.573 210.243H337.818L337.789 210.349C337.471 211.919 335.968 213.499 333.299 213.499ZM333.213 204.752C331.941 204.752 330.987 205.609 330.795 207.179H335.583C335.409 205.561 334.484 204.752 333.213 204.752ZM347.18 213.47C345.137 213.47 343.76 212.208 343.76 210.387V210.368C343.76 208.557 345.166 207.468 347.642 207.314L350.311 207.15V206.447C350.311 205.416 349.636 204.79 348.423 204.79C347.286 204.79 346.592 205.32 346.438 206.072L346.419 206.158H344.193L344.203 206.043C344.347 204.231 345.918 202.873 348.509 202.873C351.062 202.873 352.709 204.222 352.709 206.274V213.297H350.311V211.726H350.253C349.665 212.796 348.528 213.47 347.18 213.47ZM346.149 210.291C346.149 211.129 346.843 211.64 347.893 211.64C349.27 211.64 350.311 210.725 350.311 209.511V208.74L347.979 208.885C346.794 208.962 346.149 209.472 346.149 210.281V210.291ZM358.816 213.499C356.235 213.499 354.597 211.476 354.597 208.191V208.181C354.597 204.887 356.244 202.873 358.807 202.873C360.252 202.873 361.417 203.615 361.996 204.838H362.053V199.395H364.452V213.297H362.053V211.563H361.996C361.417 212.767 360.29 213.499 358.816 213.499ZM359.539 211.476C361.023 211.476 362.053 210.195 362.053 208.191V208.181C362.053 206.187 361.013 204.896 359.539 204.896C358.007 204.896 357.044 206.149 357.044 208.181V208.191C357.044 210.224 357.998 211.476 359.539 211.476Z" fill="black" fill-opacity="0.9"/>
<g clip-path="url(#clip4_3390_17132)">
<rect width="530.73" height="62.3784" transform="translate(351.189 258.459)" fill="white"/>
<path d="M367.52 295.648L371.466 284.527H373.709L377.654 295.648H375.574L374.641 292.774H370.526L369.601 295.648H367.52ZM372.522 286.593L371.026 291.24H374.148L372.653 286.593H372.522ZM381.624 295.787C379.512 295.787 378.171 294.115 378.171 291.448V291.433C378.171 288.751 379.489 287.086 381.624 287.086C382.78 287.086 383.743 287.656 384.183 288.566H384.314V283.965H386.24V295.648H384.314V294.331H384.183C383.72 295.248 382.811 295.787 381.624 295.787ZM382.225 294.169C383.535 294.169 384.344 293.136 384.344 291.448V291.433C384.344 289.745 383.527 288.704 382.225 288.704C380.922 288.704 380.121 289.737 380.121 291.433V291.448C380.121 293.144 380.915 294.169 382.225 294.169ZM394.942 295.648V286.485H394.811L392.044 288.442V286.57L394.95 284.527H396.93V295.648H394.942Z" fill="black" fill-opacity="0.9"/>
<path d="M424.72 283.631C424.227 283.039 423.437 282.743 422.648 282.743C421.859 282.743 421.168 283.039 420.577 283.631L413.671 290.536L411.797 296.554L417.913 294.581L424.72 287.675C425.312 287.182 425.608 286.393 425.608 285.703C425.608 284.913 425.312 284.223 424.72 283.631ZM416.532 293.2L415.25 291.917L420.281 286.689L421.662 288.07L416.532 293.2Z" fill="black" fill-opacity="0.75"/>
<rect width="530.73" height="898.256" transform="translate(351.189 320.838)" fill="white"/>
<g clip-path="url(#clip5_3390_17132)">
<path d="M368.173 333.838V324.107H369.913V333.838H368.173ZM371.99 333.838V326.467H373.669V327.593H373.784C374.135 326.804 374.843 326.325 375.908 326.325C377.554 326.325 378.451 327.317 378.451 329.07V333.838H376.771V329.461C376.771 328.315 376.306 327.735 375.288 327.735C374.29 327.735 373.669 328.436 373.669 329.542V333.838H371.99ZM383.185 333.871C381.492 333.871 380.798 333.305 380.798 331.882V327.768H379.651V326.467H380.798V324.66H382.504V326.467H384.062V327.768H382.504V331.484C382.504 332.219 382.794 332.529 383.495 332.529C383.731 332.529 383.859 332.523 384.062 332.502V333.797C383.819 333.844 383.509 333.871 383.185 333.871ZM385.586 333.838V326.467H387.265V327.6H387.38C387.629 326.811 388.304 326.346 389.275 326.346C389.531 326.346 389.794 326.379 389.956 326.426V327.93C389.686 327.876 389.41 327.836 389.12 327.836C388 327.836 387.265 328.503 387.265 329.555V333.838H385.586ZM394.178 333.986C391.966 333.986 390.631 332.543 390.631 330.156V330.142C390.631 327.775 391.986 326.325 394.178 326.325C396.376 326.325 397.725 327.768 397.725 330.142V330.156C397.725 332.543 396.383 333.986 394.178 333.986ZM394.178 332.624C395.344 332.624 396.005 331.713 396.005 330.162V330.149C396.005 328.598 395.338 327.681 394.178 327.681C393.011 327.681 392.343 328.598 392.343 330.149V330.162C392.343 331.713 393.011 332.624 394.178 332.624ZM401.92 333.959C400.072 333.959 398.899 332.496 398.899 330.162V330.149C398.899 327.802 400.052 326.346 401.92 326.346C402.931 326.346 403.774 326.845 404.159 327.64H404.273V323.614H405.959V333.838H404.273V332.684H404.159C403.754 333.487 402.958 333.959 401.92 333.959ZM402.446 332.543C403.592 332.543 404.3 331.639 404.3 330.162V330.149C404.3 328.672 403.585 327.762 402.446 327.762C401.306 327.762 400.605 328.665 400.605 330.149V330.162C400.605 331.646 401.299 332.543 402.446 332.543ZM410.363 333.986C408.704 333.986 407.854 332.988 407.854 331.235V326.467H409.534V330.85C409.534 331.99 409.958 332.57 410.97 332.57C412.056 332.57 412.636 331.869 412.636 330.763V326.467H414.315V333.838H412.636V332.718H412.521C412.177 333.507 411.429 333.986 410.363 333.986ZM419.38 333.986C417.161 333.986 415.853 332.55 415.853 330.142V330.129C415.853 327.748 417.154 326.325 419.373 326.325C421.268 326.325 422.401 327.377 422.589 328.901V328.928H421.005L420.998 328.908C420.843 328.193 420.297 327.681 419.38 327.681C418.233 327.681 417.559 328.584 417.559 330.129V330.142C417.559 331.707 418.24 332.624 419.38 332.624C420.249 332.624 420.782 332.226 420.991 331.45L421.005 331.423L422.589 331.417L422.576 331.471C422.333 332.981 421.248 333.986 419.38 333.986ZM427.034 333.871C425.341 333.871 424.647 333.305 424.647 331.882V327.768H423.5V326.467H424.647V324.66H426.353V326.467H427.911V327.768H426.353V331.484C426.353 332.219 426.643 332.529 427.344 332.529C427.58 332.529 427.708 332.523 427.911 332.502V333.797C427.668 333.844 427.358 333.871 427.034 333.871ZM432.55 333.986C430.339 333.986 429.003 332.543 429.003 330.156V330.142C429.003 327.775 430.359 326.325 432.55 326.325C434.749 326.325 436.098 327.768 436.098 330.142V330.156C436.098 332.543 434.756 333.986 432.55 333.986ZM432.55 332.624C433.717 332.624 434.378 331.713 434.378 330.162V330.149C434.378 328.598 433.71 327.681 432.55 327.681C431.384 327.681 430.716 328.598 430.716 330.149V330.162C430.716 331.713 431.384 332.624 432.55 332.624ZM437.636 333.838V326.467H439.315V327.6H439.429C439.679 326.811 440.353 326.346 441.324 326.346C441.581 326.346 441.844 326.379 442.005 326.426V327.93C441.736 327.876 441.459 327.836 441.169 327.836C440.05 327.836 439.315 328.503 439.315 329.555V333.838H437.636ZM444.13 336.427C443.928 336.427 443.692 336.42 443.489 336.4V335.112C443.624 335.126 443.813 335.132 443.988 335.132C444.676 335.132 445.088 334.849 445.27 334.182L445.357 333.844L442.721 326.467H444.555L446.274 332.226H446.403L448.115 326.467H449.882L447.239 333.993C446.605 335.84 445.762 336.427 444.13 336.427ZM457.611 333.871C455.918 333.871 455.224 333.305 455.224 331.882V327.768H454.077V326.467H455.224V324.66H456.93V326.467H458.488V327.768H456.93V331.484C456.93 332.219 457.22 332.529 457.921 332.529C458.157 332.529 458.285 332.523 458.488 332.502V333.797C458.245 333.844 457.935 333.871 457.611 333.871ZM463.101 333.986C460.909 333.986 459.581 332.516 459.581 330.169V330.162C459.581 327.843 460.923 326.325 463.02 326.325C465.117 326.325 466.412 327.795 466.412 330.021V330.574H461.26C461.28 331.896 461.995 332.664 463.134 332.664C464.045 332.664 464.564 332.206 464.726 331.869L464.746 331.821H466.344L466.324 331.882C466.088 332.833 465.104 333.986 463.101 333.986ZM463.04 327.64C462.103 327.64 461.401 328.274 461.273 329.448H464.773C464.659 328.24 463.977 327.64 463.04 327.64ZM467.087 333.838L469.474 330.183L467.066 326.467H469.008L470.472 329.023H470.586L472.043 326.467H473.884L471.504 330.108L473.911 333.838H472.023L470.512 331.275H470.398L468.894 333.838H467.087ZM478.14 333.871C476.447 333.871 475.752 333.305 475.752 331.882V327.768H474.606V326.467H475.752V324.66H477.459V326.467H479.016V327.768H477.459V331.484C477.459 332.219 477.749 332.529 478.45 332.529C478.686 332.529 478.814 332.523 479.016 332.502V333.797C478.774 333.844 478.463 333.871 478.14 333.871Z" fill="black" fill-opacity="0.75"/>
</g>
<rect x="367.466" y="346.223" width="498.176" height="81.2349" rx="3.4527" stroke="black" stroke-opacity="0.75" stroke-width="0.986486"/>
<path d="M387.186 370.853C385.055 370.853 383.68 369.734 383.538 368.149L383.531 368.075H384.745L384.752 368.149C384.84 369.12 385.851 369.734 387.254 369.734C388.576 369.734 389.54 369.053 389.54 368.061V368.055C389.54 367.245 388.98 366.692 387.645 366.396L386.566 366.16C384.617 365.728 383.774 364.831 383.774 363.422V363.415C383.781 361.803 385.19 360.664 387.2 360.664C389.142 360.664 390.497 361.81 390.599 363.26L390.605 363.354H389.392L389.378 363.267C389.243 362.41 388.434 361.776 387.166 361.783C385.952 361.79 385.015 362.363 385.015 363.381V363.388C385.015 364.164 385.548 364.69 386.869 364.98L387.948 365.222C389.978 365.674 390.781 366.49 390.781 367.893V367.9C390.781 369.72 389.358 370.853 387.186 370.853ZM395.09 370.678C393.593 370.678 392.966 370.125 392.966 368.736V364.325H391.82V363.354H392.966V361.473H394.18V363.354H395.771V364.325H394.18V368.439C394.18 369.295 394.477 369.639 395.232 369.639C395.441 369.639 395.556 369.633 395.771 369.612V370.61C395.542 370.651 395.319 370.678 395.09 370.678ZM399.373 370.752C397.99 370.752 396.945 369.916 396.945 368.594V368.581C396.945 367.286 397.903 366.537 399.595 366.436L401.679 366.308V365.647C401.679 364.75 401.133 364.265 400.047 364.265C399.177 364.265 398.604 364.588 398.415 365.155L398.408 365.175H397.235L397.242 365.135C397.431 363.995 398.537 363.226 400.088 363.226C401.861 363.226 402.852 364.137 402.852 365.647V370.624H401.679V369.552H401.571C401.113 370.327 400.351 370.752 399.373 370.752ZM398.145 368.567C398.145 369.302 398.773 369.734 399.616 369.734C400.809 369.734 401.679 368.951 401.679 367.913V367.252L399.737 367.374C398.631 367.441 398.145 367.832 398.145 368.554V368.567ZM404.849 370.624V363.354H406.022V364.433H406.13C406.407 363.671 407.088 363.226 408.072 363.226C408.295 363.226 408.544 363.253 408.659 363.273V364.413C408.416 364.373 408.194 364.346 407.937 364.346C406.818 364.346 406.022 365.054 406.022 366.119V370.624H404.849ZM412.679 370.678C411.182 370.678 410.554 370.125 410.554 368.736V364.325H409.408V363.354H410.554V361.473H411.768V363.354H413.36V364.325H411.768V368.439C411.768 369.295 412.065 369.639 412.82 369.639C413.029 369.639 413.144 369.633 413.36 369.612V370.61C413.13 370.651 412.908 370.678 412.679 370.678ZM421.284 370.678C419.787 370.678 419.16 370.125 419.16 368.736V364.325H418.014V363.354H419.16V361.473H420.374V363.354H421.965V364.325H420.374V368.439C420.374 369.295 420.67 369.639 421.426 369.639C421.635 369.639 421.749 369.633 421.965 369.612V370.61C421.736 370.651 421.513 370.678 421.284 370.678ZM424.191 373.173C424.036 373.173 423.834 373.159 423.672 373.133V372.168C423.813 372.195 423.995 372.202 424.157 372.202C424.825 372.202 425.229 371.898 425.492 371.062L425.627 370.631L422.937 363.354H424.191L426.187 369.336H426.295L428.284 363.354H429.518L426.679 371.069C426.079 372.701 425.479 373.173 424.191 373.173ZM430.921 373.052V363.354H432.095V364.514H432.203C432.648 363.705 433.457 363.226 434.469 363.226C436.31 363.226 437.517 364.717 437.517 366.982V366.996C437.517 369.275 436.316 370.752 434.469 370.752C433.471 370.752 432.601 370.253 432.203 369.477H432.095V373.052H430.921ZM434.199 369.714C435.527 369.714 436.316 368.688 436.316 366.996V366.982C436.316 365.29 435.527 364.265 434.199 364.265C432.877 364.265 432.068 365.303 432.068 366.982V366.996C432.068 368.675 432.877 369.714 434.199 369.714ZM439.823 361.952C439.378 361.952 439.014 361.588 439.014 361.142C439.014 360.697 439.378 360.333 439.823 360.333C440.268 360.333 440.633 360.697 440.633 361.142C440.633 361.588 440.268 361.952 439.823 361.952ZM439.23 370.624V363.354H440.403V370.624H439.23ZM442.467 370.624V363.354H443.641V364.447H443.748C444.113 363.678 444.794 363.226 445.866 363.226C447.498 363.226 448.408 364.191 448.408 365.917V370.624H447.235V366.2C447.235 364.892 446.695 364.265 445.536 364.265C444.376 364.265 443.641 365.047 443.641 366.322V370.624H442.467ZM453.379 373.186C451.625 373.186 450.506 372.397 450.324 371.204L450.337 371.197H451.551L451.558 371.204C451.686 371.757 452.333 372.148 453.379 372.148C454.68 372.148 455.456 371.534 455.456 370.462V368.992H455.348C454.889 369.794 454.067 370.246 453.068 370.246C451.187 370.246 450.02 368.79 450.02 366.753V366.74C450.02 364.703 451.194 363.226 453.095 363.226C454.12 363.226 454.916 363.732 455.361 364.555H455.442V363.354H456.616V370.523C456.616 372.148 455.361 373.186 453.379 373.186ZM453.325 369.208C454.673 369.208 455.483 368.196 455.483 366.753V366.74C455.483 365.296 454.667 364.265 453.325 364.265C451.976 364.265 451.221 365.296 451.221 366.74V366.753C451.221 368.196 451.976 369.208 453.325 369.208ZM465.376 370.752C463.306 370.752 462.025 369.322 462.025 366.996V366.982C462.025 364.649 463.306 363.226 465.376 363.226C467.446 363.226 468.728 364.649 468.728 366.982V366.996C468.728 369.322 467.446 370.752 465.376 370.752ZM465.376 369.714C466.752 369.714 467.527 368.709 467.527 366.996V366.982C467.527 365.263 466.752 364.265 465.376 364.265C464.001 364.265 463.225 365.263 463.225 366.982V366.996C463.225 368.709 464.001 369.714 465.376 369.714ZM470.401 370.624V363.354H471.574V364.433H471.682C471.958 363.671 472.639 363.226 473.624 363.226C473.847 363.226 474.096 363.253 474.211 363.273V364.413C473.968 364.373 473.745 364.346 473.489 364.346C472.37 364.346 471.574 365.054 471.574 366.119V370.624H470.401Z" fill="black" fill-opacity="0.9"/>
<path d="M481.399 370.688C479.551 370.688 478.378 369.225 478.378 366.892V366.878C478.378 364.531 479.531 363.075 481.399 363.075C482.41 363.075 483.253 363.574 483.638 364.37H483.752V360.344H485.438V370.567H483.752V369.414H483.638C483.233 370.216 482.437 370.688 481.399 370.688ZM481.925 369.272C483.071 369.272 483.779 368.368 483.779 366.892V366.878C483.779 365.401 483.064 364.491 481.925 364.491C480.785 364.491 480.084 365.395 480.084 366.878V366.892C480.084 368.375 480.778 369.272 481.925 369.272ZM487.401 370.567V363.196H489.08V364.329H489.195C489.444 363.54 490.119 363.075 491.09 363.075C491.346 363.075 491.609 363.109 491.771 363.156V364.66C491.501 364.606 491.225 364.565 490.935 364.565C489.815 364.565 489.08 365.233 489.08 366.285V370.567H487.401ZM494.914 370.688C493.511 370.688 492.493 369.825 492.493 368.483V368.47C492.493 367.155 493.497 366.386 495.291 366.278L497.186 366.163V365.529C497.186 364.794 496.707 364.39 495.804 364.39C495.035 364.39 494.536 364.666 494.367 365.152L494.361 365.179H492.776L492.783 365.118C492.945 363.877 494.131 363.055 495.885 363.055C497.78 363.055 498.845 363.972 498.845 365.529V370.567H497.186V369.555H497.072C496.667 370.27 495.885 370.688 494.914 370.688ZM494.152 368.402C494.152 369.029 494.684 369.4 495.426 369.4C496.438 369.4 497.186 368.739 497.186 367.863V367.269L495.527 367.377C494.59 367.438 494.152 367.782 494.152 368.389V368.402ZM501.253 370.567V364.498H500.046V363.196H501.253V362.468C501.253 360.998 501.995 360.276 503.64 360.276C503.998 360.276 504.301 360.296 504.571 360.344V361.517C504.443 361.497 504.234 361.483 503.998 361.483C503.209 361.483 502.905 361.861 502.905 362.562V363.196H504.503V364.498H502.932V370.567H501.253ZM508.914 370.601C507.221 370.601 506.527 370.034 506.527 368.611V364.498H505.38V363.196H506.527V361.389H508.233V363.196H509.791V364.498H508.233V368.213C508.233 368.948 508.523 369.259 509.224 369.259C509.46 369.259 509.588 369.252 509.791 369.232V370.526C509.548 370.574 509.238 370.601 508.914 370.601ZM516.252 370.567L514.256 363.196H515.942L517.169 368.733H517.284L518.7 363.196H520.298L521.728 368.733H521.842L523.063 363.196H524.728L522.732 370.567H520.972L519.536 365.226H519.421L517.992 370.567H516.252ZM526.907 361.962C526.354 361.962 525.902 361.524 525.902 360.971C525.902 360.425 526.354 359.98 526.907 359.98C527.453 359.98 527.905 360.425 527.905 360.971C527.905 361.524 527.453 361.962 526.907 361.962ZM526.064 370.567V363.196H527.743V370.567H526.064ZM532.559 370.601C530.866 370.601 530.171 370.034 530.171 368.611V364.498H529.025V363.196H530.171V361.389H531.877V363.196H533.435V364.498H531.877V368.213C531.877 368.948 532.167 369.259 532.869 369.259C533.105 369.259 533.233 369.252 533.435 369.232V370.526C533.192 370.574 532.882 370.601 532.559 370.601ZM535.027 370.567V360.344H536.706V364.322H536.821C537.171 363.533 537.88 363.055 538.945 363.055C540.59 363.055 541.487 364.046 541.487 365.799V370.567H539.808V366.19C539.808 365.044 539.343 364.464 538.325 364.464C537.327 364.464 536.706 365.165 536.706 366.271V370.567H535.027ZM546.31 370.567L549.762 360.836H551.725L555.178 370.567H553.357L552.541 368.052H548.94L548.131 370.567H546.31ZM550.686 362.643L549.378 366.71H552.109L550.801 362.643H550.686ZM556.702 370.567V360.836H558.442V370.567H556.702Z" fill="#004182"/>
<path d="M578.461 366.057C578.461 366.442 578.185 366.748 577.82 366.787C574.922 367.103 572.606 369.431 572.28 372.331C572.241 372.696 571.925 372.972 571.561 372.972H571.551C571.186 372.972 570.871 372.696 570.831 372.331C570.516 369.431 568.189 367.113 565.291 366.787C564.926 366.748 564.65 366.432 564.65 366.067C564.65 365.682 564.926 365.376 565.291 365.337C568.189 365.021 570.506 362.693 570.821 359.803C570.861 359.438 571.176 359.161 571.541 359.161H571.561C571.925 359.161 572.241 359.438 572.28 359.803C572.596 362.703 574.922 365.021 577.82 365.347C578.185 365.386 578.461 365.702 578.461 366.067V366.057Z" fill="#004182"/>
</g>
<path d="M57.2129 100.622H1477.75V155.865H57.2129V100.622Z" fill="white"/>
<path d="M153.887 117.392V139.095C153.887 139.618 153.679 140.12 153.309 140.49C152.939 140.86 152.437 141.068 151.914 141.068H130.211C129.688 141.068 129.186 140.86 128.816 140.49C128.446 140.12 128.238 139.618 128.238 139.095V117.392C128.238 116.869 128.446 116.367 128.816 115.997C129.186 115.627 129.688 115.419 130.211 115.419H151.914C152.437 115.419 152.939 115.627 153.309 115.997C153.679 116.367 153.887 116.869 153.887 117.392ZM136.13 125.284H132.184V137.122H136.13V125.284ZM136.377 121.338C136.387 120.897 136.265 120.463 136.027 120.092C135.789 119.72 135.446 119.428 135.041 119.253C134.637 119.077 134.189 119.026 133.755 119.106C133.321 119.186 132.921 119.393 132.606 119.702C132.291 120.01 132.074 120.405 131.985 120.837C131.895 121.269 131.936 121.718 132.102 122.126C132.269 122.535 132.553 122.884 132.919 123.13C133.285 123.377 133.716 123.508 134.157 123.508C134.447 123.516 134.735 123.466 135.004 123.36C135.274 123.255 135.52 123.096 135.727 122.893C135.934 122.691 136.098 122.449 136.21 122.182C136.321 121.914 136.378 121.628 136.377 121.338ZM149.941 129.782C149.941 126.182 147.682 124.949 145.531 124.949C144.79 124.944 144.059 125.127 143.407 125.481C142.755 125.834 142.203 126.347 141.802 126.971V125.284H138.103V137.122H142.049V130.68C142.006 130.367 142.029 130.048 142.119 129.744C142.208 129.441 142.361 129.16 142.567 128.92C142.773 128.681 143.028 128.487 143.315 128.354C143.601 128.22 143.913 128.149 144.229 128.145C145.314 128.145 145.995 128.727 145.995 130.631V137.122H149.941V129.782Z" fill="#0A66C2"/>
<path d="M166.463 120.606H169.039L174.392 136.419H172.133L170.439 131.268H164.972L163.368 136.419H161.2L166.463 120.606ZM165.514 129.506H169.897L167.751 122.707H167.683L165.514 129.506ZM185.041 127.225V119.702H187.029V136.419H185.041V134.544C184.386 135.787 182.805 136.713 181.043 136.713C177.88 136.713 175.485 134.25 175.485 130.862C175.485 127.496 177.835 125.033 180.997 125.033C182.805 125.033 184.386 125.982 185.041 127.225ZM181.314 126.773C179.077 126.773 177.518 128.558 177.518 130.862C177.518 133.189 179.077 134.973 181.314 134.973C183.55 134.973 185.064 133.189 185.064 130.862C185.064 128.558 183.55 126.773 181.314 126.773ZM193.624 135.064C195.048 135.064 195.861 134.386 195.861 133.573C195.861 132.669 195.206 132.24 194.031 131.856L192.608 131.381C190.755 130.771 189.942 129.845 189.942 128.264C189.942 126.434 191.569 125.033 193.896 125.033C195.274 125.033 196.697 125.485 197.759 126.457L196.719 127.835C195.906 127.134 194.89 126.705 193.873 126.705C192.743 126.705 191.908 127.292 191.908 128.106C191.908 128.716 192.269 129.168 193.195 129.484L195.183 130.184C197.149 130.884 197.939 131.788 197.939 133.392C197.939 134.996 196.516 136.713 193.647 136.713C192.066 136.713 190.53 136.216 189.4 135.199L190.484 133.731C191.275 134.567 192.518 135.064 193.624 135.064Z" fill="#0A66C2"/>
<path opacity="0.6" d="M206.69 136.419H205.47V120.606H206.69V136.419Z" fill="#0A66C2"/>
<path fill-rule="evenodd" clip-rule="evenodd" d="M438.979 132.189L434.047 127.257H443.912L438.979 132.189Z" fill="#0A66C2"/>
<path d="M216.19 128.512C216.19 132.127 218.63 134.883 222.199 134.883C224.819 134.883 226.649 133.46 227.44 131.223H229.654C228.637 134.612 225.746 136.69 222.221 136.69C217.636 136.69 214.044 133.279 214.044 128.512C214.044 123.746 217.636 120.334 222.221 120.334C225.746 120.334 228.637 122.413 229.654 125.801H227.44C226.649 123.565 224.819 122.142 222.199 122.142C218.63 122.142 216.19 124.898 216.19 128.512ZM242.772 136.419H240.784V134.544C240.129 135.786 238.548 136.713 236.785 136.713C233.623 136.713 231.228 134.25 231.228 130.862C231.228 127.496 233.578 125.033 236.74 125.033C238.548 125.033 240.106 125.982 240.784 127.247V125.35H242.772V136.419ZM237.057 126.773C234.82 126.773 233.261 128.557 233.261 130.862C233.261 133.188 234.82 134.973 237.057 134.973C239.293 134.973 240.807 133.188 240.807 130.862C240.807 128.557 239.293 126.773 237.057 126.773ZM255.738 136.419H253.75V129.416C253.75 127.722 252.688 126.863 251.333 126.863C250.181 126.863 249.119 127.496 248.17 128.603V136.419H246.182V125.35H248.147V126.773C249.074 125.711 250.384 125.056 251.739 125.056C253.501 125.056 254.699 125.801 255.286 127.112C256.506 125.621 257.839 125.056 259.285 125.056C261.815 125.056 263.306 126.615 263.306 129.077V136.419H261.318V129.416C261.318 127.699 260.233 126.863 258.923 126.863C257.748 126.863 256.664 127.541 255.715 128.603L255.738 129.597V136.419ZM268.599 134.544V140.734H266.611V125.35H268.599V127.27C269.254 125.982 270.858 125.056 272.597 125.056C275.805 125.056 278.154 127.496 278.154 130.884C278.154 134.273 275.737 136.713 272.575 136.713C270.835 136.713 269.276 135.809 268.599 134.544ZM272.349 126.795C270.09 126.795 268.553 128.557 268.553 130.884C268.553 133.188 270.09 134.973 272.349 134.973C274.54 134.973 276.099 133.188 276.099 130.884C276.099 128.557 274.54 126.795 272.349 126.795ZM291.549 136.419H289.561V134.544C288.906 135.786 287.325 136.713 285.562 136.713C282.4 136.713 280.005 134.25 280.005 130.862C280.005 127.496 282.355 125.033 285.517 125.033C287.325 125.033 288.883 125.982 289.561 127.247V125.35H291.549V136.419ZM285.834 126.773C283.597 126.773 282.038 128.557 282.038 130.862C282.038 133.188 283.597 134.973 285.834 134.973C288.07 134.973 289.584 133.188 289.584 130.862C289.584 128.557 288.07 126.773 285.834 126.773ZM295.049 121.713C295.049 120.922 295.682 120.289 296.473 120.289C297.263 120.289 297.896 120.922 297.896 121.713C297.896 122.503 297.263 123.136 296.473 123.136C295.682 123.136 295.049 122.503 295.049 121.713ZM297.602 136.419H295.614V127.021H293.875V125.35H297.602V136.419ZM309.791 127.202V125.327H311.779V136.216C311.779 139.672 309.023 141.027 305.996 141.027C304.324 141.027 302.652 140.711 301.41 140.033L301.568 138.158C302.991 138.881 304.437 139.265 305.905 139.265C308.255 139.265 309.791 138.249 309.791 135.922V134.499C309.136 135.741 307.6 136.645 305.815 136.645C302.675 136.645 300.28 134.25 300.28 130.839C300.28 127.45 302.63 125.033 305.792 125.033C307.577 125.033 309.158 125.982 309.791 127.202ZM306.086 126.773C303.85 126.773 302.314 128.535 302.314 130.839C302.314 133.166 303.85 134.928 306.086 134.928C308.323 134.928 309.836 133.166 309.836 130.839C309.836 128.535 308.323 126.773 306.086 126.773ZM317.155 128.603V136.419H315.167V125.35H317.132V126.773C318.104 125.688 319.459 125.056 320.837 125.056C323.367 125.056 324.926 126.615 324.926 129.077V136.419H322.938V129.438C322.938 127.676 321.786 126.863 320.453 126.863C319.256 126.863 318.104 127.496 317.155 128.603ZM346.272 123.271L341.912 132.24H339.721L335.406 123.271V136.419H333.418V120.606H336.4L340.828 130.071L345.436 120.606H348.35V136.419H346.272V123.271ZM362.608 136.419H360.62V134.544C359.965 135.786 358.383 136.713 356.621 136.713C353.459 136.713 351.064 134.25 351.064 130.862C351.064 127.496 353.413 125.033 356.576 125.033C358.383 125.033 359.942 125.982 360.62 127.247V125.35H362.608V136.419ZM356.892 126.773C354.656 126.773 353.097 128.557 353.097 130.862C353.097 133.188 354.656 134.973 356.892 134.973C359.129 134.973 360.642 133.188 360.642 130.862C360.642 128.557 359.129 126.773 356.892 126.773ZM368.006 128.603V136.419H366.018V125.35H367.983V126.773C368.955 125.688 370.31 125.056 371.688 125.056C374.218 125.056 375.777 126.615 375.777 129.077V136.419H373.789V129.438C373.789 127.676 372.637 126.863 371.304 126.863C370.107 126.863 368.955 127.496 368.006 128.603ZM389.831 136.419H387.843V134.544C387.188 135.786 385.607 136.713 383.845 136.713C380.682 136.713 378.287 134.25 378.287 130.862C378.287 127.496 380.637 125.033 383.799 125.033C385.607 125.033 387.165 125.982 387.843 127.247V125.35H389.831V136.419ZM384.116 126.773C381.879 126.773 380.32 128.557 380.32 130.862C380.32 133.188 381.879 134.973 384.116 134.973C386.352 134.973 387.866 133.188 387.866 130.862C387.866 128.557 386.352 126.773 384.116 126.773ZM402.006 127.202V125.327H403.994V136.216C403.994 139.672 401.238 141.027 398.211 141.027C396.539 141.027 394.868 140.711 393.625 140.033L393.783 138.158C395.207 138.881 396.652 139.265 398.121 139.265C400.47 139.265 402.006 138.249 402.006 135.922V134.499C401.351 135.741 399.815 136.645 398.03 136.645C394.89 136.645 392.496 134.25 392.496 130.839C392.496 127.45 394.845 125.033 398.008 125.033C399.792 125.033 401.374 125.982 402.006 127.202ZM398.301 126.773C396.065 126.773 394.529 128.535 394.529 130.839C394.529 133.166 396.065 134.928 398.301 134.928C400.538 134.928 402.052 133.166 402.052 130.839C402.052 128.535 400.538 126.773 398.301 126.773ZM415.763 132.94L417.458 133.753C416.351 135.877 414.363 136.69 412.239 136.69C408.919 136.69 406.592 134.295 406.592 130.907C406.592 127.518 409.054 125.033 412.262 125.033C415.244 125.033 417.864 127.089 417.864 131.426V131.494H408.693C408.873 133.46 410.274 134.928 412.284 134.928C413.572 134.928 414.815 134.499 415.763 132.94ZM412.262 126.795C410.342 126.795 408.986 128.128 408.693 129.958H415.628C415.492 128.219 414.16 126.795 412.262 126.795ZM426.271 125.237V127.134C426.023 127.112 425.797 127.066 425.481 127.066C423.628 127.066 422.408 128.173 422.408 130.681V136.419H420.42V125.35H422.363V127.27C422.86 126.118 423.854 125.169 425.413 125.169C425.752 125.169 426 125.214 426.271 125.237Z" fill="#0A66C2"/>
<line x1="57.2148" y1="155.372" x2="1477.76" y2="155.372" stroke="#EBEBEB" stroke-width="0.986486"/>
<path d="M102.593 122.325V124.298H82.8633V122.325H102.593ZM82.8633 134.163H102.593V132.19H82.8633V134.163ZM82.8633 129.23H102.593V127.258H82.8633V129.23Z" fill="#6E6558"/>
<g clip-path="url(#clip6_3390_17132)">
<mask id="path-43-inside-2_3390_17132" fill="white">
<path d="M57.2168 234.784H327.514V1109.8H57.2168V234.784Z"/>
</mask>
<path d="M57.2168 234.784H327.514V1109.8H57.2168V234.784Z" fill="white"/>
<rect width="270.297" height="53.2703" transform="translate(57.2168 258.46)" fill="#F5F7F9"/>
<rect x="69.0547" y="270.297" width="42.4189" height="29.5946" rx="3.94595" fill="#E6E6E6"/>
<path d="M119.776 289.095L122.735 280.754H124.417L127.377 289.095H125.816L125.117 286.939H122.03L121.336 289.095H119.776ZM123.527 282.303L122.406 285.788H124.747L123.625 282.303H123.527ZM130.59 289.199C129.007 289.199 128.001 287.944 128.001 285.945V285.933C128.001 283.921 128.989 282.673 130.59 282.673C131.457 282.673 132.18 283.101 132.509 283.783H132.608V280.332H134.053V289.095H132.608V288.106H132.509C132.163 288.794 131.481 289.199 130.59 289.199ZM131.041 287.985C132.024 287.985 132.631 287.21 132.631 285.945V285.933C132.631 284.667 132.018 283.887 131.041 283.887C130.064 283.887 129.463 284.661 129.463 285.933V285.945C129.463 287.216 130.059 287.985 131.041 287.985ZM141.053 289.095V282.222H140.954L138.879 283.69V282.286L141.058 280.754H142.544V289.095H141.053Z" fill="black" fill-opacity="0.6"/>
<rect x="69.0547" y="322.96" width="246.622" height="46.5946" rx="3.94595" fill="#F7F7F7"/>
<path d="M149.625 351C146.867 351 145.154 349.044 145.154 345.901V345.888C145.154 342.732 146.86 340.783 149.618 340.783C151.83 340.783 153.51 342.186 153.739 344.175V344.229H152.033L152.026 344.202C151.776 343.049 150.846 342.287 149.618 342.287C147.966 342.287 146.935 343.669 146.935 345.881V345.895C146.935 348.113 147.966 349.496 149.625 349.496C150.859 349.496 151.776 348.808 152.026 347.736L152.033 347.702H153.739V347.749C153.483 349.698 151.871 351 149.625 351ZM155.358 350.757V343.386H157.037V344.519H157.151C157.401 343.73 158.075 343.265 159.046 343.265C159.303 343.265 159.566 343.298 159.727 343.346V344.849C159.458 344.796 159.181 344.755 158.891 344.755C157.772 344.755 157.037 345.423 157.037 346.475V350.757H155.358ZM163.922 350.905C161.731 350.905 160.402 349.435 160.402 347.088V347.082C160.402 344.762 161.744 343.245 163.841 343.245C165.939 343.245 167.233 344.715 167.233 346.94V347.493H162.081C162.102 348.815 162.816 349.583 163.956 349.583C164.866 349.583 165.386 349.125 165.548 348.788L165.568 348.741H167.166L167.146 348.801C166.91 349.752 165.925 350.905 163.922 350.905ZM163.862 344.56C162.924 344.56 162.223 345.193 162.095 346.367H165.595C165.48 345.16 164.799 344.56 163.862 344.56ZM170.774 350.878C169.372 350.878 168.353 350.015 168.353 348.673V348.66C168.353 347.345 169.358 346.576 171.152 346.468L173.047 346.353V345.719C173.047 344.984 172.568 344.58 171.664 344.58C170.896 344.58 170.397 344.856 170.228 345.342L170.221 345.369H168.636L168.643 345.308C168.805 344.067 169.992 343.245 171.745 343.245C173.64 343.245 174.706 344.162 174.706 345.719V350.757H173.047V349.745H172.932C172.527 350.46 171.745 350.878 170.774 350.878ZM170.012 348.592C170.012 349.219 170.545 349.59 171.287 349.59C172.298 349.59 173.047 348.929 173.047 348.053V347.459L171.388 347.567C170.45 347.628 170.012 347.972 170.012 348.579V348.592ZM179.474 350.791C177.781 350.791 177.087 350.224 177.087 348.801V344.688H175.94V343.386H177.087V341.579H178.793V343.386H180.35V344.688H178.793V348.403C178.793 349.138 179.083 349.449 179.784 349.449C180.02 349.449 180.148 349.442 180.35 349.422V350.716C180.108 350.764 179.797 350.791 179.474 350.791ZM184.963 350.905C182.772 350.905 181.443 349.435 181.443 347.088V347.082C181.443 344.762 182.785 343.245 184.882 343.245C186.98 343.245 188.274 344.715 188.274 346.94V347.493H183.122C183.143 348.815 183.857 349.583 184.997 349.583C185.907 349.583 186.427 349.125 186.589 348.788L186.609 348.741H188.207L188.187 348.801C187.951 349.752 186.966 350.905 184.963 350.905ZM184.903 344.56C183.965 344.56 183.264 345.193 183.136 346.367H186.636C186.521 345.16 185.84 344.56 184.903 344.56ZM193.34 350.757V343.386H195.019V344.512H195.133C195.484 343.723 196.192 343.245 197.258 343.245C198.903 343.245 199.8 344.236 199.8 345.989V350.757H198.121V346.38C198.121 345.234 197.656 344.654 196.637 344.654C195.639 344.654 195.019 345.355 195.019 346.461V350.757H193.34ZM204.791 350.905C202.599 350.905 201.27 349.435 201.27 347.088V347.082C201.27 344.762 202.612 343.245 204.71 343.245C206.807 343.245 208.102 344.715 208.102 346.94V347.493H202.95C202.97 348.815 203.685 349.583 204.824 349.583C205.735 349.583 206.254 349.125 206.416 348.788L206.436 348.741H208.034L208.014 348.801C207.778 349.752 206.793 350.905 204.791 350.905ZM204.73 344.56C203.793 344.56 203.091 345.193 202.963 346.367H206.463C206.348 345.16 205.667 344.56 204.73 344.56ZM210.941 350.757L208.945 343.386H210.631L211.858 348.923H211.973L213.389 343.386H214.987L216.417 348.923H216.532L217.752 343.386H219.418L217.422 350.757H215.662L214.225 345.416H214.111L212.681 350.757H210.941ZM226.277 350.878C224.874 350.878 223.856 350.015 223.856 348.673V348.66C223.856 347.345 224.861 346.576 226.654 346.468L228.549 346.353V345.719C228.549 344.984 228.071 344.58 227.167 344.58C226.398 344.58 225.899 344.856 225.731 345.342L225.724 345.369H224.139L224.146 345.308C224.308 344.067 225.494 343.245 227.248 343.245C229.143 343.245 230.208 344.162 230.208 345.719V350.757H228.549V349.745H228.435C228.03 350.46 227.248 350.878 226.277 350.878ZM225.515 348.592C225.515 349.219 226.047 349.59 226.789 349.59C227.801 349.59 228.549 348.929 228.549 348.053V347.459L226.89 347.567C225.953 347.628 225.515 347.972 225.515 348.579V348.592ZM234.734 350.878C232.886 350.878 231.712 349.415 231.712 347.082V347.068C231.712 344.721 232.866 343.265 234.734 343.265C235.745 343.265 236.588 343.764 236.972 344.56H237.087V340.534H238.773V350.757H237.087V349.604H236.972C236.568 350.406 235.772 350.878 234.734 350.878ZM235.26 349.462C236.406 349.462 237.114 348.558 237.114 347.082V347.068C237.114 345.591 236.399 344.681 235.26 344.681C234.12 344.681 233.419 345.585 233.419 347.068V347.082C233.419 348.565 234.113 349.462 235.26 349.462Z" fill="#0A66C2"/>
</g>
<path d="M326.528 234.784V1109.8H328.501V234.784H326.528Z" fill="black" fill-opacity="0.08" mask="url(#path-43-inside-2_3390_17132)"/>
</g>
</g>
</g>
<defs>
<filter id="filter0_dddd_3390_17132" x="18.0728" y="41.7113" width="1498.83" height="1203.82" filterUnits="userSpaceOnUse" color-interpolation-filters="sRGB">
<feFlood flood-opacity="0" result="BackgroundImageFix"/>
<feColorMatrix in="SourceAlpha" type="matrix" values="0 0 0 0 0 0 0 0 0 0 0 0 0 0 0 0 0 0 127 0" result="hardAlpha"/>
<feOffset dy="6.10262"/>
<feGaussianBlur stdDeviation="6.61117"/>
<feColorMatrix type="matrix" values="0 0 0 0 0.588235 0 0 0 0 0.588235 0 0 0 0 0.588235 0 0 0 0.1 0"/>
<feBlend mode="normal" in2="BackgroundImageFix" result="effect1_dropShadow_3390_17132"/>
<feColorMatrix in="SourceAlpha" type="matrix" values="0 0 0 0 0 0 0 0 0 0 0 0 0 0 0 0 0 0 127 0" result="hardAlpha"/>
<feOffset dy="23.3934"/>
<feGaussianBlur stdDeviation="11.6967"/>
<feColorMatrix type="matrix" values="0 0 0 0 0.588235 0 0 0 0 0.588235 0 0 0 0 0.588235 0 0 0 0.09 0"/>
<feBlend mode="normal" in2="effect1_dropShadow_3390_17132" result="effect2_dropShadow_3390_17132"/>
<feColorMatrix in="SourceAlpha" type="matrix" values="0 0 0 0 0 0 0 0 0 0 0 0 0 0 0 0 0 0 127 0" result="hardAlpha"/>
<feOffset dy="53.9064"/>
<feGaussianBlur stdDeviation="16.2736"/>
<feColorMatrix type="matrix" values="0 0 0 0 0.588235 0 0 0 0 0.588235 0 0 0 0 0.588235 0 0 0 0.05 0"/>
<feBlend mode="normal" in2="effect2_dropShadow_3390_17132" result="effect3_dropShadow_3390_17132"/>
<feColorMatrix in="SourceAlpha" type="matrix" values="0 0 0 0 0 0 0 0 0 0 0 0 0 0 0 0 0 0 127 0" result="hardAlpha"/>
<feOffset dy="95.6077"/>
<feGaussianBlur stdDeviation="19.325"/>
<feColorMatrix type="matrix" values="0 0 0 0 0.588235 0 0 0 0 0.588235 0 0 0 0 0.588235 0 0 0 0.01 0"/>
<feBlend mode="normal" in2="effect3_dropShadow_3390_17132" result="effect4_dropShadow_3390_17132"/>
<feBlend mode="normal" in="SourceGraphic" in2="effect4_dropShadow_3390_17132" result="shape"/>
</filter>
<clipPath id="clip0_3390_17132">
<rect width="584" height="390" fill="white"/>
</clipPath>
<clipPath id="clip1_3390_17132">
<rect width="96.6757" height="23.6757" fill="white" transform="translate(151.918 62.1487)"/>
</clipPath>
<clipPath id="clip2_3390_17132">
<rect width="51.2973" height="11.8378" fill="white" transform="translate(76.9453 69.0541)"/>
</clipPath>
<clipPath id="clip3_3390_17132">
<rect width="1420.54" height="1010.16" fill="white" transform="translate(57.2168 100.622)"/>
</clipPath>
<clipPath id="clip4_3390_17132">
<rect x="351.189" y="258.459" width="530.73" height="824.703" rx="7.89189" fill="white"/>
</clipPath>
<clipPath id="clip5_3390_17132">
<rect width="114.432" height="17" fill="white" transform="translate(366.973 320.838)"/>
</clipPath>
<clipPath id="clip6_3390_17132">
<path d="M57.2168 234.784H327.514V1109.8H57.2168V234.784Z" fill="white"/>
</clipPath>
</defs>
</svg>
