<svg width="640" height="427" viewBox="0 0 640 427" fill="none" xmlns="http://www.w3.org/2000/svg">
<g clip-path="url(#clip0_3352_39720)">
<rect width="640" height="426.663" rx="6" fill="#F3F3F3"/>
<g filter="url(#filter0_dddd_3352_39720)">
<rect x="61.7534" y="51.4199" width="1421.03" height="1061.95" rx="10.1115" stroke="#C7C7C6" stroke-width="0.493243"/>
<path d="M62 67.4503C62 61.9255 62 59.163 63.0752 57.0528C64.021 55.1966 65.5301 53.6875 67.3863 52.7417C69.4965 51.6665 72.2589 51.6665 77.7838 51.6665H1466.76C1472.28 51.6665 1475.04 51.6665 1477.15 52.7417C1479.01 53.6875 1480.52 55.1966 1481.47 57.0528C1482.54 59.163 1482.54 61.9254 1482.54 67.4503V102.964H62V67.4503Z" fill="#FDFDFD"/>
<g clip-path="url(#clip1_3352_39720)">
<path d="M161.37 84.7277H175.381C177.157 84.7277 178.083 83.8106 178.083 82.0582V72.0927C178.083 70.3403 177.157 69.4232 175.381 69.4232H161.37C159.601 69.4232 158.676 70.3322 158.676 72.0927V82.0582C158.676 83.8106 159.601 84.7277 161.37 84.7277ZM161.476 83.0982C160.723 83.0982 160.305 82.7051 160.305 81.9108V72.2401C160.305 71.4458 160.723 71.0528 161.476 71.0528H165.21V83.0982H161.476ZM175.274 71.0528C176.027 71.0528 176.445 71.4458 176.445 72.2401V81.9108C176.445 82.7051 176.027 83.0982 175.274 83.0982H166.758V71.0528H175.274ZM163.605 74.0498C163.9 74.0498 164.146 73.7959 164.146 73.5175C164.146 73.2391 163.9 72.9935 163.605 72.9935H161.927C161.632 72.9935 161.386 73.2391 161.386 73.5175C161.386 73.7959 161.632 74.0498 161.927 74.0498H163.605ZM163.605 76.2525C163.9 76.2525 164.146 76.0069 164.146 75.7203C164.146 75.4418 163.9 75.1962 163.605 75.1962H161.927C161.632 75.1962 161.386 75.4418 161.386 75.7203C161.386 76.0069 161.632 76.2525 161.927 76.2525H163.605ZM163.605 78.4471C163.9 78.4471 164.146 78.2096 164.146 77.923C164.146 77.6446 163.9 77.4071 163.605 77.4071H161.927C161.632 77.4071 161.386 77.6446 161.386 77.923C161.386 78.2096 161.632 78.4471 161.927 78.4471H163.605Z" fill="#717171"/>
<path d="M209.378 83.3266L203.382 77.4616C203.174 77.2535 203.066 77.0223 203.066 76.7525C203.066 76.4828 203.174 76.2362 203.39 76.0358L209.386 70.1785C209.556 70.009 209.771 69.9165 210.018 69.9165C210.534 69.9165 210.935 70.3173 210.935 70.8259C210.935 71.0725 210.835 71.3115 210.658 71.4887L205.263 76.7448L210.658 82.0164C210.835 82.1936 210.935 82.4248 210.935 82.6792C210.935 83.1878 210.534 83.5886 210.018 83.5886C209.771 83.5886 209.556 83.4961 209.378 83.3266Z" fill="#717171"/>
<path d="M239.005 83.5886C239.259 83.5886 239.467 83.4961 239.645 83.3266L245.641 77.4693C245.849 77.2535 245.957 77.03 245.957 76.7525C245.957 76.4828 245.856 76.2439 245.641 76.0435L239.645 70.1785C239.467 70.009 239.259 69.9165 239.005 69.9165C238.489 69.9165 238.088 70.3173 238.088 70.8259C238.088 71.0725 238.196 71.3115 238.365 71.4887L243.768 76.7603L238.365 82.0164C238.188 82.2013 238.088 82.4248 238.088 82.6792C238.088 83.1878 238.489 83.5886 239.005 83.5886Z" fill="#BDBCBC"/>
</g>
<g clip-path="url(#clip2_3352_39720)">
<circle cx="87.6474" cy="77.3152" r="5.91892" fill="#ED6A5E"/>
<circle cx="87.6474" cy="77.3152" r="5.42568" stroke="black" stroke-opacity="0.1" stroke-width="0.986486"/>
<circle cx="107.378" cy="77.3152" r="5.91892" fill="#F4BD50"/>
<circle cx="107.378" cy="77.3152" r="5.42568" stroke="black" stroke-opacity="0.1" stroke-width="0.986486"/>
<circle cx="127.108" cy="77.3152" r="5.91892" fill="#61C454"/>
<circle cx="127.108" cy="77.3152" r="5.42568" stroke="black" stroke-opacity="0.1" stroke-width="0.986486"/>
</g>
<path d="M496.301 72.9747C496.301 69.6598 496.301 68.0023 496.946 66.7362C497.513 65.6225 498.419 64.717 499.533 64.1495C500.799 63.5044 502.456 63.5044 505.771 63.5044H1038.28C1041.59 63.5044 1043.25 63.5044 1044.51 64.1495C1045.63 64.717 1046.53 65.6225 1047.1 66.7362C1047.75 68.0023 1047.75 69.6598 1047.75 72.9747V81.6558C1047.75 84.9707 1047.75 86.6281 1047.1 87.8942C1046.53 89.0079 1045.63 89.9134 1044.51 90.4809C1043.25 91.126 1041.59 91.126 1038.28 91.126H505.771C502.456 91.126 500.799 91.126 499.533 90.4809C498.419 89.9134 497.513 89.0079 496.946 87.8942C496.301 86.6281 496.301 84.9706 496.301 81.6557V72.9747Z" fill="#F0F0F0"/>
<path d="M473.61 85.207C473.757 85.207 473.978 85.1576 474.182 85.0422C478.883 82.4628 480.516 81.2679 480.516 78.2682V72.0463C480.516 71.0574 480.132 70.703 479.316 70.3487C478.41 69.9613 475.365 68.89 474.476 68.5851C474.206 68.4945 473.888 68.4368 473.61 68.4368C473.333 68.4368 473.015 68.5109 472.745 68.5851C471.856 68.8406 468.811 69.9696 467.905 70.3487C467.089 70.6948 466.705 71.0574 466.705 72.0463V78.2682C466.705 81.2679 468.346 82.4463 473.031 85.0422C473.243 85.1576 473.464 85.207 473.61 85.207ZM474.051 70.1014C475.121 70.53 477.447 71.3623 478.671 71.7991C478.9 71.8897 478.957 72.0133 478.957 72.31V77.9633C478.957 80.3779 477.757 81.0289 474.076 83.2704C473.847 83.4105 473.733 83.46 473.619 83.46V70.0108C473.733 70.0108 473.855 70.0355 474.051 70.1014Z" fill="#717171"/>
<g clip-path="url(#clip3_3352_39720)">
<rect width="1420.54" height="1010.16" transform="translate(62 102.964)" fill="#F3F2F0"/>
<mask id="path-17-inside-1_3352_39720" fill="white">
<path d="M62 158.206H1482.54V237.125H62V158.206Z"/>
</mask>
<path d="M62 158.206H1482.54V237.125H62V158.206Z" fill="white"/>
<path d="M1482.54 236.139H62V238.112H1482.54V236.139Z" fill="black" fill-opacity="0.08" mask="url(#path-17-inside-1_3352_39720)"/>
<path d="M111.917 189.774L106.393 197.666L111.917 205.558H114.284L109.451 198.653H127.109V196.68H109.451L114.284 189.774H111.917Z" fill="black" fill-opacity="0.75"/>
<path d="M166.646 187.76C166.167 187.76 165.769 187.363 165.769 186.884C165.769 186.398 166.167 186.007 166.646 186.007C167.131 186.007 167.522 186.398 167.522 186.884C167.522 187.363 167.131 187.76 166.646 187.76ZM170.598 187.76C170.119 187.76 169.721 187.363 169.721 186.884C169.721 186.398 170.119 186.007 170.598 186.007C171.083 186.007 171.475 186.398 171.475 186.884C171.475 187.363 171.083 187.76 170.598 187.76ZM174.55 187.76C174.071 187.76 173.673 187.363 173.673 186.884C173.673 186.398 174.071 186.007 174.55 186.007C175.036 186.007 175.427 186.398 175.427 186.884C175.427 187.363 175.036 187.76 174.55 187.76Z" fill="black" fill-opacity="0.6"/>
<path d="M185.742 177.537L182.667 190.121H181.541L184.616 177.537H185.742Z" fill="black" fill-opacity="0.6"/>
<path d="M195.674 187.693V177.962H196.888V186.601H201.582V187.693H195.674ZM205.858 187.821C203.781 187.821 202.526 186.365 202.526 184.085V184.078C202.526 181.833 203.808 180.295 205.783 180.295C207.759 180.295 208.96 181.765 208.96 183.937V184.395H203.727C203.76 185.899 204.59 186.776 205.885 186.776C206.869 186.776 207.476 186.311 207.672 185.872L207.699 185.812H208.872L208.858 185.865C208.609 186.85 207.57 187.821 205.858 187.821ZM205.777 181.341C204.698 181.341 203.875 182.076 203.747 183.458H207.766C207.645 182.022 206.849 181.341 205.777 181.341ZM212.628 187.821C211.246 187.821 210.201 186.985 210.201 185.663V185.65C210.201 184.355 211.158 183.606 212.851 183.505L214.935 183.377V182.716C214.935 181.819 214.389 181.334 213.303 181.334C212.433 181.334 211.86 181.658 211.671 182.224L211.664 182.244H210.491L210.498 182.204C210.686 181.064 211.792 180.295 213.343 180.295C215.117 180.295 216.108 181.206 216.108 182.716V187.693H214.935V186.621H214.827C214.368 187.396 213.606 187.821 212.628 187.821ZM211.401 185.636C211.401 186.371 212.028 186.803 212.871 186.803C214.065 186.803 214.935 186.021 214.935 184.982V184.321L212.993 184.443C211.887 184.51 211.401 184.901 211.401 185.623V185.636ZM220.789 187.821C218.948 187.821 217.74 186.331 217.74 184.065V184.051C217.74 181.772 218.941 180.295 220.789 180.295C221.787 180.295 222.657 180.794 223.054 181.57H223.162V177.537H224.336V187.693H223.162V186.533H223.054C222.609 187.342 221.8 187.821 220.789 187.821ZM221.058 186.783C222.38 186.783 223.189 185.744 223.189 184.065V184.051C223.189 182.372 222.38 181.334 221.058 181.334C219.73 181.334 218.941 182.359 218.941 184.051V184.065C218.941 185.758 219.73 186.783 221.058 186.783ZM233.171 190.256C231.417 190.256 230.298 189.467 230.116 188.273L230.129 188.266H231.343L231.35 188.273C231.478 188.826 232.125 189.217 233.171 189.217C234.472 189.217 235.248 188.603 235.248 187.531V186.061H235.14C234.681 186.864 233.858 187.315 232.86 187.315C230.979 187.315 229.812 185.859 229.812 183.822V183.809C229.812 181.772 230.986 180.295 232.887 180.295C233.912 180.295 234.708 180.801 235.153 181.624H235.234V180.423H236.407V187.592C236.407 189.217 235.153 190.256 233.171 190.256ZM233.117 186.277C234.465 186.277 235.275 185.265 235.275 183.822V183.809C235.275 182.366 234.459 181.334 233.117 181.334C231.768 181.334 231.013 182.366 231.013 183.809V183.822C231.013 185.265 231.768 186.277 233.117 186.277ZM241.412 187.821C239.335 187.821 238.08 186.365 238.08 184.085V184.078C238.08 181.833 239.362 180.295 241.337 180.295C243.313 180.295 244.514 181.765 244.514 183.937V184.395H239.281C239.314 185.899 240.144 186.776 241.439 186.776C242.423 186.776 243.03 186.311 243.226 185.872L243.253 185.812H244.426L244.412 185.865C244.163 186.85 243.124 187.821 241.412 187.821ZM241.331 181.341C240.252 181.341 239.429 182.076 239.301 183.458H243.32C243.199 182.022 242.403 181.341 241.331 181.341ZM246.186 187.693V180.423H247.36V181.516H247.468C247.832 180.747 248.513 180.295 249.585 180.295C251.217 180.295 252.127 181.26 252.127 182.986V187.693H250.954V183.269C250.954 181.961 250.415 181.334 249.255 181.334C248.095 181.334 247.36 182.116 247.36 183.391V187.693H246.186ZM261.906 187.922C259.263 187.922 257.611 185.967 257.611 182.838V182.824C257.611 179.688 259.256 177.733 261.9 177.733C263.95 177.733 265.548 179.021 265.838 180.889L265.831 180.902H264.611L264.604 180.889C264.28 179.641 263.242 178.852 261.9 178.852C260.032 178.852 258.858 180.39 258.858 182.824V182.838C258.858 185.272 260.032 186.803 261.906 186.803C263.262 186.803 264.294 186.108 264.597 184.989L264.611 184.975H265.838V184.989C265.514 186.769 263.977 187.922 261.906 187.922ZM271.759 187.922C269.068 187.922 267.349 185.94 267.349 182.831V182.817C267.349 179.749 269.095 177.733 271.759 177.733C273.917 177.733 275.434 178.947 275.819 180.794L275.832 180.862H274.605L274.585 180.794C274.187 179.54 273.209 178.852 271.759 178.852C269.83 178.852 268.59 180.403 268.59 182.817V182.831C268.59 185.279 269.81 186.803 271.766 186.803C273.506 186.803 274.679 185.69 274.679 184.045V183.809H271.948V182.743H275.893V183.93C275.893 186.331 274.247 187.922 271.759 187.922ZM281.383 184.321V183.229H285.915V184.321H281.383ZM294.925 187.922C292.794 187.922 291.418 186.803 291.277 185.218L291.27 185.144H292.484L292.49 185.218C292.578 186.189 293.59 186.803 294.992 186.803C296.314 186.803 297.278 186.122 297.278 185.13V185.124C297.278 184.314 296.719 183.761 295.383 183.465L294.304 183.229C292.355 182.797 291.513 181.9 291.513 180.491V180.484C291.519 178.872 292.929 177.733 294.938 177.733C296.88 177.733 298.236 178.879 298.337 180.329L298.344 180.423H297.13L297.116 180.336C296.982 179.479 296.172 178.845 294.905 178.852C293.691 178.859 292.753 179.432 292.753 180.45V180.457C292.753 181.233 293.286 181.759 294.608 182.049L295.687 182.291C297.717 182.743 298.519 183.559 298.519 184.962V184.969C298.519 186.789 297.096 187.922 294.925 187.922ZM303.213 187.821C301.136 187.821 299.882 186.365 299.882 184.085V184.078C299.882 181.833 301.163 180.295 303.139 180.295C305.115 180.295 306.315 181.765 306.315 183.937V184.395H301.082C301.116 185.899 301.945 186.776 303.24 186.776C304.225 186.776 304.831 186.311 305.027 185.872L305.054 185.812H306.227L306.214 185.865C305.964 186.85 304.926 187.821 303.213 187.821ZM303.132 181.341C302.053 181.341 301.23 182.076 301.102 183.458H305.121C305 182.022 304.204 181.341 303.132 181.341ZM307.988 190.121V180.423H309.161V181.583H309.269C309.714 180.774 310.523 180.295 311.535 180.295C313.376 180.295 314.583 181.786 314.583 184.051V184.065C314.583 186.344 313.383 187.821 311.535 187.821C310.537 187.821 309.667 187.322 309.269 186.547H309.161V190.121H307.988ZM311.265 186.783C312.594 186.783 313.383 185.758 313.383 184.065V184.051C313.383 182.359 312.594 181.334 311.265 181.334C309.943 181.334 309.134 182.372 309.134 184.051V184.065C309.134 185.744 309.943 186.783 311.265 186.783ZM318.852 187.747C317.355 187.747 316.728 187.194 316.728 185.805V181.395H315.581V180.423H316.728V178.542H317.942V180.423H319.533V181.395H317.942V185.508C317.942 186.365 318.238 186.708 318.994 186.708C319.203 186.708 319.317 186.702 319.533 186.681V187.68C319.304 187.72 319.081 187.747 318.852 187.747ZM328.307 187.922C326.527 187.922 324.646 186.668 324.646 183.006V182.993C324.646 179.675 326.028 177.733 328.388 177.733C330.02 177.733 331.234 178.69 331.564 180.127L331.585 180.214H330.364L330.337 180.14C330.04 179.324 329.359 178.818 328.375 178.818C326.608 178.818 325.886 180.545 325.812 182.575C325.805 182.649 325.805 182.73 325.805 182.804H325.934C326.291 182.008 327.208 181.3 328.523 181.3C330.351 181.3 331.713 182.689 331.713 184.557V184.571C331.713 186.513 330.27 187.922 328.307 187.922ZM326.095 184.557C326.095 185.839 327.06 186.85 328.294 186.85C329.514 186.85 330.492 185.859 330.492 184.598V184.584C330.492 183.289 329.575 182.359 328.314 182.359C327.053 182.359 326.095 183.283 326.095 184.55V184.557ZM332.752 190.168L333.338 186.331H334.68L333.622 190.168H332.752ZM340.73 187.693V186.857L344.021 183.296C345.262 181.954 345.626 181.448 345.626 180.599V180.585C345.626 179.56 344.931 178.791 343.785 178.791C342.618 178.791 341.843 179.554 341.843 180.7L341.836 180.713L340.676 180.707L340.663 180.7C340.669 178.974 342.005 177.733 343.866 177.733C345.565 177.733 346.867 178.886 346.867 180.457V180.471C346.867 181.583 346.388 182.393 344.628 184.207L342.416 186.493V186.601H347.029V187.693H340.73ZM352.174 187.922C350.023 187.922 348.742 185.96 348.742 182.831V182.817C348.742 179.688 350.023 177.733 352.174 177.733C354.326 177.733 355.62 179.688 355.62 182.817V182.831C355.62 185.96 354.326 187.922 352.174 187.922ZM352.174 186.864C353.57 186.864 354.4 185.313 354.4 182.831V182.817C354.4 180.336 353.57 178.798 352.174 178.798C350.778 178.798 349.962 180.336 349.962 182.817V182.831C349.962 185.313 350.778 186.864 352.174 186.864ZM357.468 187.693V186.857L360.759 183.296C362 181.954 362.364 181.448 362.364 180.599V180.585C362.364 179.56 361.67 178.791 360.523 178.791C359.357 178.791 358.581 179.554 358.581 180.7L358.574 180.713L357.414 180.707L357.401 180.7C357.408 178.974 358.743 177.733 360.604 177.733C362.304 177.733 363.605 178.886 363.605 180.457V180.471C363.605 181.583 363.126 182.393 361.366 184.207L359.154 186.493V186.601H363.767V187.693H357.468ZM368.967 187.855C366.957 187.855 365.655 186.735 365.527 185.198L365.521 185.117H366.687L366.694 185.184C366.788 186.142 367.672 186.803 368.967 186.803C370.241 186.803 371.111 186.088 371.111 185.056V185.043C371.111 183.849 370.255 183.182 368.892 183.182H367.672V182.157H368.838C369.998 182.157 370.808 181.442 370.808 180.471V180.457C370.808 179.439 370.14 178.852 368.953 178.852C367.807 178.852 366.991 179.459 366.89 180.444L366.883 180.511H365.716L365.723 180.444C365.878 178.859 367.132 177.8 368.953 177.8C370.808 177.8 372.028 178.832 372.028 180.309V180.322C372.028 181.523 371.178 182.345 369.965 182.602V182.629C371.381 182.75 372.345 183.633 372.345 185.016V185.029C372.345 186.654 370.915 187.855 368.967 187.855Z" fill="black" fill-opacity="0.6"/>
<path d="M381.58 177.537L378.505 190.121H377.379L380.454 177.537H381.58Z" fill="black" fill-opacity="0.6"/>
<path d="M391.512 187.693V177.962H392.726V186.601H397.42V187.693H391.512ZM401.695 187.821C399.618 187.821 398.364 186.365 398.364 184.085V184.078C398.364 181.833 399.645 180.295 401.621 180.295C403.597 180.295 404.797 181.765 404.797 183.937V184.395H399.564C399.598 185.899 400.428 186.776 401.722 186.776C402.707 186.776 403.314 186.311 403.509 185.872L403.536 185.812H404.71L404.696 185.865C404.447 186.85 403.408 187.821 401.695 187.821ZM401.615 181.341C400.536 181.341 399.713 182.076 399.585 183.458H403.604C403.483 182.022 402.687 181.341 401.615 181.341ZM408.466 187.821C407.084 187.821 406.039 186.985 406.039 185.663V185.65C406.039 184.355 406.996 183.606 408.689 183.505L410.773 183.377V182.716C410.773 181.819 410.226 181.334 409.141 181.334C408.271 181.334 407.698 181.658 407.509 182.224L407.502 182.244H406.329L406.335 182.204C406.524 181.064 407.63 180.295 409.181 180.295C410.955 180.295 411.946 181.206 411.946 182.716V187.693H410.773V186.621H410.665C410.206 187.396 409.444 187.821 408.466 187.821ZM407.239 185.636C407.239 186.371 407.866 186.803 408.709 186.803C409.903 186.803 410.773 186.021 410.773 184.982V184.321L408.831 184.443C407.725 184.51 407.239 184.901 407.239 185.623V185.636ZM416.626 187.821C414.785 187.821 413.578 186.331 413.578 184.065V184.051C413.578 181.772 414.779 180.295 416.626 180.295C417.625 180.295 418.494 180.794 418.892 181.57H419V177.537H420.174V187.693H419V186.533H418.892C418.447 187.342 417.638 187.821 416.626 187.821ZM416.896 186.783C418.218 186.783 419.027 185.744 419.027 184.065V184.051C419.027 182.372 418.218 181.334 416.896 181.334C415.568 181.334 414.779 182.359 414.779 184.051V184.065C414.779 185.758 415.568 186.783 416.896 186.783ZM429.008 190.256C427.255 190.256 426.136 189.467 425.954 188.273L425.967 188.266H427.181L427.188 188.273C427.316 188.826 427.963 189.217 429.008 189.217C430.31 189.217 431.085 188.603 431.085 187.531V186.061H430.978C430.519 186.864 429.696 187.315 428.698 187.315C426.817 187.315 425.65 185.859 425.65 183.822V183.809C425.65 181.772 426.824 180.295 428.725 180.295C429.75 180.295 430.546 180.801 430.991 181.624H431.072V180.423H432.245V187.592C432.245 189.217 430.991 190.256 429.008 190.256ZM428.954 186.277C430.303 186.277 431.112 185.265 431.112 183.822V183.809C431.112 182.366 430.296 181.334 428.954 181.334C427.606 181.334 426.85 182.366 426.85 183.809V183.822C426.85 185.265 427.606 186.277 428.954 186.277ZM437.249 187.821C435.172 187.821 433.918 186.365 433.918 184.085V184.078C433.918 181.833 435.199 180.295 437.175 180.295C439.151 180.295 440.351 181.765 440.351 183.937V184.395H435.118C435.152 185.899 435.982 186.776 437.276 186.776C438.261 186.776 438.868 186.311 439.063 185.872L439.09 185.812H440.264L440.25 185.865C440.001 186.85 438.962 187.821 437.249 187.821ZM437.169 181.341C436.09 181.341 435.267 182.076 435.139 183.458H439.158C439.036 182.022 438.241 181.341 437.169 181.341ZM442.024 187.693V180.423H443.198V181.516H443.306C443.67 180.747 444.351 180.295 445.423 180.295C447.055 180.295 447.965 181.26 447.965 182.986V187.693H446.792V183.269C446.792 181.961 446.252 181.334 445.093 181.334C443.933 181.334 443.198 182.116 443.198 183.391V187.693H442.024ZM453.577 184.321V183.229H458.108V184.321H453.577ZM467.847 187.922C465.203 187.922 463.551 185.967 463.551 182.838V182.824C463.551 179.688 465.197 177.733 467.84 177.733C469.89 177.733 471.488 179.021 471.778 180.889L471.772 180.902H470.551L470.544 180.889C470.221 179.641 469.182 178.852 467.84 178.852C465.972 178.852 464.799 180.39 464.799 182.824V182.838C464.799 185.272 465.972 186.803 467.847 186.803C469.202 186.803 470.234 186.108 470.538 184.989L470.551 184.975H471.778V184.989C471.455 186.769 469.917 187.922 467.847 187.922ZM472.824 187.693L476.142 182.804V182.777L472.864 177.962H474.328L476.931 181.88H476.971L479.601 177.962H480.984L477.619 182.838V182.865L480.91 187.693H479.453L476.863 183.809H476.823L474.2 187.693H472.824ZM486.44 187.922C483.648 187.922 481.975 185.94 481.975 182.831V182.817C481.975 179.695 483.688 177.733 486.44 177.733C489.205 177.733 490.904 179.702 490.904 182.817V182.831C490.904 185.933 489.218 187.922 486.44 187.922ZM486.44 186.803C488.436 186.803 489.663 185.238 489.663 182.831V182.817C489.663 180.39 488.429 178.852 486.44 178.852C484.457 178.852 483.216 180.39 483.216 182.817V182.831C483.216 185.238 484.417 186.803 486.44 186.803ZM496.347 184.321V183.229H500.878V184.321H496.347ZM506.699 187.693V177.962H507.913V187.693H506.699ZM510.098 187.693V180.423H511.271V181.516H511.379C511.743 180.747 512.425 180.295 513.497 180.295C515.129 180.295 516.039 181.26 516.039 182.986V187.693H514.866V183.269C514.866 181.961 514.326 181.334 513.166 181.334C512.006 181.334 511.271 182.116 511.271 183.391V187.693H510.098ZM518.501 187.693V181.395H517.294V180.423H518.501V179.614C518.501 178.164 519.229 177.47 520.612 177.47C520.895 177.47 521.151 177.49 521.394 177.537V178.475C521.252 178.448 521.057 178.441 520.848 178.441C520.011 178.441 519.674 178.852 519.674 179.648V180.423H521.326V181.395H519.674V187.693H518.501ZM522.939 187.693V177.537H524.112V187.693H522.939ZM528.651 187.821C526.999 187.821 526.149 186.85 526.149 185.13V180.423H527.322V184.847C527.322 186.155 527.794 186.783 528.954 186.783C530.235 186.783 530.917 186 530.917 184.726V180.423H532.09V187.693H530.917V186.607H530.809C530.451 187.383 529.716 187.821 528.651 187.821ZM537.101 187.821C535.024 187.821 533.769 186.365 533.769 184.085V184.078C533.769 181.833 535.051 180.295 537.027 180.295C539.002 180.295 540.203 181.765 540.203 183.937V184.395H534.97C535.004 185.899 535.833 186.776 537.128 186.776C538.112 186.776 538.719 186.311 538.915 185.872L538.942 185.812H540.115L540.102 185.865C539.852 186.85 538.814 187.821 537.101 187.821ZM537.02 181.341C535.941 181.341 535.118 182.076 534.99 183.458H539.009C538.888 182.022 538.092 181.341 537.02 181.341ZM541.876 187.693V180.423H543.049V181.516H543.157C543.521 180.747 544.202 180.295 545.274 180.295C546.906 180.295 547.817 181.26 547.817 182.986V187.693H546.643V183.269C546.643 181.961 546.104 181.334 544.944 181.334C543.784 181.334 543.049 182.116 543.049 183.391V187.693H541.876ZM552.767 187.821C550.73 187.821 549.429 186.344 549.429 184.038V184.024C549.429 181.765 550.724 180.295 552.76 180.295C554.527 180.295 555.586 181.314 555.801 182.608L555.808 182.649H554.642L554.635 182.629C554.453 181.914 553.805 181.334 552.76 181.334C551.452 181.334 550.629 182.386 550.629 184.024V184.038C550.629 185.71 551.465 186.783 552.76 186.783C553.738 186.783 554.358 186.351 554.628 185.542L554.642 185.501L555.801 185.495L555.788 185.569C555.491 186.884 554.513 187.821 552.767 187.821ZM560.34 187.821C558.263 187.821 557.009 186.365 557.009 184.085V184.078C557.009 181.833 558.29 180.295 560.266 180.295C562.242 180.295 563.442 181.765 563.442 183.937V184.395H558.209C558.243 185.899 559.072 186.776 560.367 186.776C561.352 186.776 561.959 186.311 562.154 185.872L562.181 185.812H563.355L563.341 185.865C563.092 186.85 562.053 187.821 560.34 187.821ZM560.259 181.341C559.18 181.341 558.358 182.076 558.229 183.458H562.249C562.127 182.022 561.332 181.341 560.259 181.341ZM565.115 187.693V180.423H566.288V181.502H566.396C566.673 180.74 567.354 180.295 568.338 180.295C568.561 180.295 568.811 180.322 568.925 180.343V181.482C568.682 181.442 568.46 181.415 568.204 181.415C567.084 181.415 566.288 182.123 566.288 183.188V187.693H565.115ZM572.587 187.821C570.969 187.821 569.856 187.039 569.721 185.839H570.922C571.117 186.445 571.697 186.843 572.628 186.843C573.606 186.843 574.3 186.378 574.3 185.717V185.704C574.3 185.211 573.929 184.867 573.032 184.652L571.906 184.382C570.544 184.058 569.93 183.465 569.93 182.42V182.413C569.93 181.206 571.09 180.295 572.635 180.295C574.159 180.295 575.217 181.057 575.379 182.244H574.226C574.071 181.671 573.504 181.273 572.628 181.273C571.765 181.273 571.131 181.718 571.131 182.359V182.372C571.131 182.865 571.495 183.175 572.351 183.384L573.471 183.654C574.84 183.984 575.501 184.577 575.501 185.616V185.629C575.501 186.924 574.239 187.821 572.587 187.821ZM585.145 187.922C582.353 187.922 580.68 185.94 580.68 182.831V182.817C580.68 179.695 582.393 177.733 585.145 177.733C587.909 177.733 589.609 179.702 589.609 182.817V182.831C589.609 184.712 588.988 186.182 587.882 187.052L589.15 188.792H587.788L586.925 187.599C586.392 187.814 585.799 187.922 585.145 187.922ZM585.145 186.803C585.529 186.803 585.893 186.742 586.217 186.634L584.963 184.908H586.325L587.174 186.075C587.936 185.387 588.368 184.254 588.368 182.831V182.817C588.368 180.39 587.134 178.852 585.145 178.852C583.162 178.852 581.921 180.39 581.921 182.817V182.831C581.921 185.238 583.122 186.803 585.145 186.803ZM594.721 187.855C592.711 187.855 591.41 186.735 591.282 185.198L591.275 185.117H592.441L592.448 185.184C592.543 186.142 593.426 186.803 594.721 186.803C595.995 186.803 596.865 186.088 596.865 185.056V185.043C596.865 183.849 596.009 183.182 594.647 183.182H593.426V182.157H594.593C595.753 182.157 596.562 181.442 596.562 180.471V180.457C596.562 179.439 595.894 178.852 594.707 178.852C593.561 178.852 592.745 179.459 592.644 180.444L592.637 180.511H591.47L591.477 180.444C591.632 178.859 592.887 177.8 594.707 177.8C596.562 177.8 597.782 178.832 597.782 180.309V180.322C597.782 181.523 596.933 182.345 595.719 182.602V182.629C597.135 182.75 598.099 183.633 598.099 185.016V185.029C598.099 186.654 596.67 187.855 594.721 187.855Z" fill="black" fill-opacity="0.6"/>
<path d="M607.418 177.537L604.343 190.121H603.217L606.292 177.537H607.418Z" fill="black" fill-opacity="0.6"/>
<path d="M171.869 215.88C167.871 215.88 165.347 213.125 165.347 208.683V208.674C165.347 204.233 167.881 201.497 171.869 201.497C175.067 201.497 177.418 203.491 177.784 206.323L177.794 206.42H175.356L175.308 206.236C174.904 204.647 173.68 203.655 171.869 203.655C169.441 203.655 167.89 205.591 167.89 208.674V208.683C167.89 211.776 169.451 213.722 171.869 213.722C173.642 213.722 174.884 212.768 175.337 211.053L175.366 210.957H177.803L177.784 211.053C177.428 213.905 175.067 215.88 171.869 215.88ZM179.826 215.639V205.427H182.224V207.19H182.273C182.591 205.957 183.438 205.215 184.614 205.215C184.912 205.215 185.192 205.263 185.375 205.312V207.479C185.172 207.402 184.806 207.344 184.402 207.344C183.043 207.344 182.224 208.202 182.224 209.714V215.639H179.826ZM191.087 215.841C188.023 215.841 186.173 213.809 186.173 210.562V210.552C186.173 207.335 188.052 205.215 190.971 205.215C193.89 205.215 195.701 207.267 195.701 210.35V211.121H188.553C188.591 212.913 189.574 213.972 191.135 213.972C192.329 213.972 193.11 213.336 193.341 212.652L193.36 212.585H195.605L195.576 212.691C195.258 214.261 193.755 215.841 191.087 215.841ZM191 207.094C189.728 207.094 188.774 207.951 188.582 209.522H193.37C193.196 207.903 192.272 207.094 191 207.094ZM200.642 215.812C198.6 215.812 197.222 214.55 197.222 212.73V212.71C197.222 210.899 198.629 209.811 201.105 209.656L203.773 209.493V208.789C203.773 207.759 203.099 207.132 201.885 207.132C200.748 207.132 200.055 207.662 199.901 208.414L199.881 208.5H197.656L197.666 208.385C197.81 206.574 199.38 205.215 201.972 205.215C204.525 205.215 206.172 206.564 206.172 208.616V215.639H203.773V214.069H203.715C203.128 215.138 201.991 215.812 200.642 215.812ZM199.612 212.633C199.612 213.471 200.305 213.982 201.355 213.982C202.733 213.982 203.773 213.067 203.773 211.853V211.082L201.442 211.227C200.257 211.304 199.612 211.814 199.612 212.624V212.633ZM212.279 215.841C210.14 215.841 209.129 214.974 209.129 212.874V207.277H207.684V205.427H209.129V202.836H211.566V205.427H213.464V207.277H211.566V212.672C211.566 213.674 212.009 213.992 212.886 213.992C213.117 213.992 213.3 213.963 213.464 213.953V215.755C213.184 215.793 212.761 215.841 212.279 215.841ZM219.783 215.841C216.719 215.841 214.87 213.809 214.87 210.562V210.552C214.87 207.335 216.748 205.215 219.667 205.215C222.586 205.215 224.397 207.267 224.397 210.35V211.121H217.249C217.288 212.913 218.27 213.972 219.831 213.972C221.025 213.972 221.806 213.336 222.037 212.652L222.056 212.585H224.301L224.272 212.691C223.954 214.261 222.451 215.841 219.783 215.841ZM219.696 207.094C218.424 207.094 217.471 207.951 217.278 209.522H222.066C221.892 207.903 220.968 207.094 219.696 207.094ZM234.636 215.841C231.958 215.841 230.426 214.57 230.214 212.672L230.205 212.585H232.565L232.584 212.672C232.767 213.548 233.432 214.069 234.646 214.069C235.811 214.069 236.515 213.597 236.515 212.845V212.836C236.515 212.219 236.158 211.872 235.099 211.631L233.403 211.256C231.447 210.822 230.465 209.868 230.465 208.356V208.346C230.465 206.477 232.093 205.215 234.559 205.215C237.102 205.215 238.586 206.612 238.673 208.375L238.682 208.481H236.447L236.438 208.404C236.332 207.585 235.677 206.988 234.559 206.988C233.499 206.988 232.835 207.479 232.835 208.231V208.24C232.835 208.828 233.23 209.213 234.289 209.454L235.994 209.83C238.104 210.302 238.923 211.13 238.923 212.614V212.624C238.923 214.55 237.141 215.841 234.636 215.841ZM242.101 203.963C241.35 203.963 240.762 203.366 240.762 202.653C240.762 201.921 241.35 201.333 242.101 201.333C242.853 201.333 243.431 201.921 243.431 202.653C243.431 203.366 242.853 203.963 242.101 203.963ZM240.897 215.639V205.427H243.296V215.639H240.897ZM245.713 215.639V205.427H248.112V207.026H248.16C248.69 205.928 249.73 205.215 251.281 205.215C253.526 205.215 254.807 206.66 254.807 209.03V215.639H252.408V209.512C252.408 208.057 251.734 207.238 250.366 207.238C248.989 207.238 248.112 208.24 248.112 209.714V215.639H245.713ZM261.714 219.213C259.007 219.213 257.302 217.98 257.013 216.381L256.993 216.294H259.354L259.382 216.371C259.643 216.959 260.461 217.402 261.714 217.402C263.274 217.402 264.132 216.573 264.132 215.273V213.799H264.084C263.515 214.887 262.359 215.581 260.895 215.581C258.332 215.581 256.685 213.616 256.685 210.437V210.427C256.685 207.2 258.352 205.215 260.933 205.215C262.378 205.215 263.496 205.986 264.074 207.161H264.132V205.427H266.531V215.35C266.531 217.662 264.671 219.213 261.714 219.213ZM261.646 213.731C263.14 213.731 264.141 212.469 264.141 210.485V210.475C264.141 208.5 263.13 207.238 261.646 207.238C260.105 207.238 259.132 208.481 259.132 210.466V210.475C259.132 212.489 260.105 213.731 261.646 213.731ZM268.938 215.639V201.738H271.337V215.639H268.938ZM278.243 215.841C275.18 215.841 273.33 213.809 273.33 210.562V210.552C273.33 207.335 275.209 205.215 278.128 205.215C281.047 205.215 282.858 207.267 282.858 210.35V211.121H275.71C275.748 212.913 276.731 213.972 278.292 213.972C279.486 213.972 280.266 213.336 280.498 212.652L280.517 212.585H282.762L282.733 212.691C282.415 214.261 280.912 215.841 278.243 215.841ZM278.157 207.094C276.885 207.094 275.931 207.951 275.739 209.522H280.527C280.353 207.903 279.428 207.094 278.157 207.094ZM290.38 203.963C289.629 203.963 289.041 203.366 289.041 202.653C289.041 201.921 289.629 201.333 290.38 201.333C291.132 201.333 291.71 201.921 291.71 202.653C291.71 203.366 291.132 203.963 290.38 203.963ZM289.176 215.639V205.427H291.575V215.639H289.176ZM293.992 215.639V205.427H296.391V207.065H296.439C296.872 205.947 297.922 205.215 299.271 205.215C300.697 205.215 301.728 205.967 302.103 207.277H302.161C302.653 206.005 303.866 205.215 305.34 205.215C307.354 205.215 308.674 206.583 308.674 208.626V215.639H306.275V209.223C306.275 207.961 305.62 207.238 304.444 207.238C303.288 207.238 302.498 208.096 302.498 209.329V215.639H300.167V209.098C300.167 207.951 299.473 207.238 298.356 207.238C297.2 207.238 296.391 208.144 296.391 209.387V215.639H293.992ZM313.991 215.812C311.948 215.812 310.571 214.55 310.571 212.73V212.71C310.571 210.899 311.977 209.811 314.453 209.656L317.121 209.493V208.789C317.121 207.759 316.447 207.132 315.233 207.132C314.097 207.132 313.403 207.662 313.249 208.414L313.229 208.5H311.004L311.014 208.385C311.158 206.574 312.729 205.215 315.32 205.215C317.873 205.215 319.52 206.564 319.52 208.616V215.639H317.121V214.069H317.064C316.476 215.138 315.339 215.812 313.991 215.812ZM312.96 212.633C312.96 213.471 313.653 213.982 314.703 213.982C316.081 213.982 317.121 213.067 317.121 211.853V211.082L314.79 211.227C313.605 211.304 312.96 211.814 312.96 212.624V212.633ZM326.436 219.213C323.729 219.213 322.024 217.98 321.735 216.381L321.716 216.294H324.076L324.105 216.371C324.365 216.959 325.184 217.402 326.436 217.402C327.997 217.402 328.854 216.573 328.854 215.273V213.799H328.806C328.238 214.887 327.082 215.581 325.618 215.581C323.055 215.581 321.408 213.616 321.408 210.437V210.427C321.408 207.2 323.074 205.215 325.656 205.215C327.101 205.215 328.219 205.986 328.797 207.161H328.854V205.427H331.253V215.35C331.253 217.662 329.394 219.213 326.436 219.213ZM326.369 213.731C327.862 213.731 328.864 212.469 328.864 210.485V210.475C328.864 208.5 327.853 207.238 326.369 207.238C324.828 207.238 323.855 208.481 323.855 210.466V210.475C323.855 212.489 324.828 213.731 326.369 213.731ZM338.083 215.841C335.019 215.841 333.169 213.809 333.169 210.562V210.552C333.169 207.335 335.048 205.215 337.967 205.215C340.886 205.215 342.697 207.267 342.697 210.35V211.121H335.549C335.588 212.913 336.57 213.972 338.131 213.972C339.325 213.972 340.106 213.336 340.337 212.652L340.356 212.585H342.601L342.572 212.691C342.254 214.261 340.751 215.841 338.083 215.841ZM337.996 207.094C336.724 207.094 335.771 207.951 335.578 209.522H340.366C340.192 207.903 339.268 207.094 337.996 207.094ZM351.963 215.812C349.921 215.812 348.543 214.55 348.543 212.73V212.71C348.543 210.899 349.95 209.811 352.425 209.656L355.094 209.493V208.789C355.094 207.759 354.42 207.132 353.206 207.132C352.069 207.132 351.375 207.662 351.221 208.414L351.202 208.5H348.977L348.986 208.385C349.131 206.574 350.701 205.215 353.292 205.215C355.845 205.215 357.493 206.564 357.493 208.616V215.639H355.094V214.069H355.036C354.449 215.138 353.312 215.812 351.963 215.812ZM350.932 212.633C350.932 213.471 351.626 213.982 352.676 213.982C354.054 213.982 355.094 213.067 355.094 211.853V211.082L352.763 211.227C351.578 211.304 350.932 211.814 350.932 212.624V212.633ZM363.6 215.841C361.018 215.841 359.38 213.818 359.38 210.533V210.523C359.38 207.229 361.027 205.215 363.59 205.215C365.035 205.215 366.201 205.957 366.779 207.181H366.837V201.738H369.235V215.639H366.837V213.905H366.779C366.201 215.109 365.074 215.841 363.6 215.841ZM364.322 213.818C365.806 213.818 366.837 212.537 366.837 210.533V210.523C366.837 208.529 365.796 207.238 364.322 207.238C362.79 207.238 361.827 208.491 361.827 210.523V210.533C361.827 212.566 362.781 213.818 364.322 213.818Z" fill="black" fill-opacity="0.9"/>
<g clip-path="url(#clip4_3352_39720)">
<rect width="530.73" height="62.3784" transform="translate(355.973 260.801)" fill="white"/>
<path d="M372.303 297.991L376.249 286.87H378.492L382.438 297.991H380.357L379.424 295.116H375.309L374.384 297.991H372.303ZM377.305 288.935L375.81 293.582H378.931L377.436 288.935H377.305ZM386.407 298.129C384.295 298.129 382.954 296.457 382.954 293.79V293.775C382.954 291.093 384.272 289.428 386.407 289.428C387.563 289.428 388.526 289.999 388.966 290.908H389.097V286.307H391.023V297.991H389.097V296.673H388.966C388.503 297.59 387.594 298.129 386.407 298.129ZM387.008 296.511C388.318 296.511 389.128 295.478 389.128 293.79V293.775C389.128 292.087 388.311 291.047 387.008 291.047C385.706 291.047 384.904 292.079 384.904 293.775V293.79C384.904 295.486 385.698 296.511 387.008 296.511ZM399.725 297.991V288.827H399.594L396.827 290.785V288.912L399.733 286.87H401.714V297.991H399.725Z" fill="black" fill-opacity="0.9"/>
<path d="M429.503 285.973C429.01 285.381 428.221 285.085 427.431 285.085C426.642 285.085 425.952 285.381 425.36 285.973L418.454 292.878L416.58 298.896L422.696 296.923L429.503 290.018C430.095 289.524 430.391 288.735 430.391 288.045C430.391 287.255 430.095 286.565 429.503 285.973ZM421.315 295.542L420.033 294.26L425.064 289.031L426.445 290.412L421.315 295.542Z" fill="black" fill-opacity="0.75"/>
<rect width="530.73" height="898.256" transform="translate(355.973 323.18)" fill="white"/>
<g clip-path="url(#clip5_3352_39720)">
<path d="M372.956 336.18V326.449H374.696V336.18H372.956ZM376.773 336.18V328.809H378.453V329.935H378.567C378.918 329.146 379.626 328.667 380.691 328.667C382.337 328.667 383.234 329.659 383.234 331.412V336.18H381.555V331.803C381.555 330.657 381.089 330.077 380.071 330.077C379.073 330.077 378.453 330.778 378.453 331.884V336.18H376.773ZM387.968 336.213C386.276 336.213 385.581 335.647 385.581 334.224V330.11H384.435V328.809H385.581V327.002H387.287V328.809H388.845V330.11H387.287V333.826C387.287 334.561 387.577 334.871 388.278 334.871C388.514 334.871 388.643 334.865 388.845 334.844V336.139C388.602 336.186 388.292 336.213 387.968 336.213ZM390.369 336.18V328.809H392.048V329.942H392.163C392.413 329.153 393.087 328.688 394.058 328.688C394.314 328.688 394.577 328.721 394.739 328.769V330.272C394.469 330.218 394.193 330.178 393.903 330.178C392.783 330.178 392.048 330.846 392.048 331.898V336.18H390.369ZM398.961 336.328C396.749 336.328 395.414 334.885 395.414 332.498V332.484C395.414 330.117 396.769 328.667 398.961 328.667C401.159 328.667 402.508 330.11 402.508 332.484V332.498C402.508 334.885 401.166 336.328 398.961 336.328ZM398.961 334.966C400.128 334.966 400.788 334.055 400.788 332.504V332.491C400.788 330.94 400.121 330.023 398.961 330.023C397.794 330.023 397.127 330.94 397.127 332.491V332.504C397.127 334.055 397.794 334.966 398.961 334.966ZM406.703 336.301C404.855 336.301 403.682 334.838 403.682 332.504V332.491C403.682 330.144 404.835 328.688 406.703 328.688C407.714 328.688 408.557 329.187 408.942 329.982H409.056V325.956H410.742V336.18H409.056V335.027H408.942C408.537 335.829 407.741 336.301 406.703 336.301ZM407.229 334.885C408.375 334.885 409.083 333.981 409.083 332.504V332.491C409.083 331.014 408.369 330.104 407.229 330.104C406.089 330.104 405.388 331.007 405.388 332.491V332.504C405.388 333.988 406.083 334.885 407.229 334.885ZM415.146 336.328C413.487 336.328 412.638 335.33 412.638 333.577V328.809H414.317V333.192C414.317 334.332 414.742 334.912 415.753 334.912C416.839 334.912 417.419 334.211 417.419 333.105V328.809H419.098V336.18H417.419V335.06H417.304C416.96 335.849 416.212 336.328 415.146 336.328ZM424.163 336.328C421.944 336.328 420.636 334.892 420.636 332.484V332.471C420.636 330.09 421.937 328.667 424.156 328.667C426.051 328.667 427.184 329.719 427.373 331.243V331.27H425.788L425.781 331.25C425.626 330.535 425.08 330.023 424.163 330.023C423.016 330.023 422.342 330.926 422.342 332.471V332.484C422.342 334.049 423.023 334.966 424.163 334.966C425.033 334.966 425.565 334.568 425.774 333.792L425.788 333.765L427.373 333.759L427.359 333.813C427.116 335.323 426.031 336.328 424.163 336.328ZM431.817 336.213C430.124 336.213 429.43 335.647 429.43 334.224V330.11H428.283V328.809H429.43V327.002H431.136V328.809H432.694V330.11H431.136V333.826C431.136 334.561 431.426 334.871 432.127 334.871C432.363 334.871 432.491 334.865 432.694 334.844V336.139C432.451 336.186 432.141 336.213 431.817 336.213ZM437.334 336.328C435.122 336.328 433.787 334.885 433.787 332.498V332.484C433.787 330.117 435.142 328.667 437.334 328.667C439.532 328.667 440.881 330.11 440.881 332.484V332.498C440.881 334.885 439.539 336.328 437.334 336.328ZM437.334 334.966C438.5 334.966 439.161 334.055 439.161 332.504V332.491C439.161 330.94 438.494 330.023 437.334 330.023C436.167 330.023 435.499 330.94 435.499 332.491V332.504C435.499 334.055 436.167 334.966 437.334 334.966ZM442.419 336.18V328.809H444.098V329.942H444.213C444.462 329.153 445.136 328.688 446.107 328.688C446.364 328.688 446.627 328.721 446.789 328.769V330.272C446.519 330.218 446.242 330.178 445.952 330.178C444.833 330.178 444.098 330.846 444.098 331.898V336.18H442.419ZM448.913 338.769C448.711 338.769 448.475 338.762 448.273 338.742V337.454C448.407 337.468 448.596 337.474 448.772 337.474C449.459 337.474 449.871 337.191 450.053 336.524L450.141 336.186L447.504 328.809H449.338L451.058 334.568H451.186L452.899 328.809H454.665L452.022 336.335C451.388 338.183 450.545 338.769 448.913 338.769ZM462.394 336.213C460.702 336.213 460.007 335.647 460.007 334.224V330.11H458.861V328.809H460.007V327.002H461.713V328.809H463.271V330.11H461.713V333.826C461.713 334.561 462.003 334.871 462.705 334.871C462.941 334.871 463.069 334.865 463.271 334.844V336.139C463.028 336.186 462.718 336.213 462.394 336.213ZM467.884 336.328C465.692 336.328 464.364 334.858 464.364 332.511V332.504C464.364 330.185 465.706 328.667 467.803 328.667C469.9 328.667 471.195 330.137 471.195 332.363V332.916H466.043C466.063 334.238 466.778 335.006 467.918 335.006C468.828 335.006 469.347 334.548 469.509 334.211L469.529 334.163H471.128L471.107 334.224C470.871 335.175 469.887 336.328 467.884 336.328ZM467.823 329.982C466.886 329.982 466.185 330.616 466.056 331.79H469.556C469.442 330.583 468.761 329.982 467.823 329.982ZM471.87 336.18L474.257 332.525L471.85 328.809H473.792L475.255 331.365H475.37L476.826 328.809H478.667L476.287 332.45L478.694 336.18H476.806L475.296 333.617H475.181L473.677 336.18H471.87ZM482.923 336.213C481.23 336.213 480.536 335.647 480.536 334.224V330.11H479.389V328.809H480.536V327.002H482.242V328.809H483.8V330.11H482.242V333.826C482.242 334.561 482.532 334.871 483.233 334.871C483.469 334.871 483.597 334.865 483.8 334.844V336.139C483.557 336.186 483.247 336.213 482.923 336.213Z" fill="black" fill-opacity="0.75"/>
</g>
<rect x="372.249" y="348.565" width="498.176" height="81.2349" rx="3.4527" stroke="black" stroke-opacity="0.75" stroke-width="0.986487"/>
<path d="M391.97 373.195C389.839 373.195 388.463 372.076 388.321 370.491L388.315 370.417H389.528L389.535 370.491C389.623 371.462 390.634 372.076 392.037 372.076C393.359 372.076 394.323 371.395 394.323 370.404V370.397C394.323 369.588 393.763 369.035 392.428 368.738L391.349 368.502C389.4 368.07 388.557 367.173 388.557 365.764V365.757C388.564 364.145 389.973 363.006 391.983 363.006C393.925 363.006 395.281 364.152 395.382 365.602L395.389 365.697H394.175L394.161 365.609C394.026 364.752 393.217 364.119 391.949 364.125C390.736 364.132 389.798 364.705 389.798 365.723V365.73C389.798 366.506 390.331 367.032 391.653 367.322L392.732 367.564C394.761 368.016 395.564 368.832 395.564 370.235V370.242C395.564 372.062 394.141 373.195 391.97 373.195ZM399.873 373.02C398.376 373.02 397.749 372.467 397.749 371.078V366.668H396.603V365.697H397.749V363.815H398.963V365.697H400.555V366.668H398.963V370.781C398.963 371.638 399.26 371.982 400.015 371.982C400.224 371.982 400.339 371.975 400.555 371.955V372.953C400.325 372.993 400.103 373.02 399.873 373.02ZM404.156 373.094C402.774 373.094 401.728 372.258 401.728 370.936V370.923C401.728 369.628 402.686 368.879 404.379 368.778L406.462 368.65V367.989C406.462 367.092 405.916 366.607 404.83 366.607C403.96 366.607 403.387 366.931 403.198 367.497L403.192 367.517H402.018L402.025 367.477C402.214 366.337 403.32 365.568 404.871 365.568C406.644 365.568 407.636 366.479 407.636 367.989V372.966H406.462V371.894H406.354C405.896 372.669 405.134 373.094 404.156 373.094ZM402.929 370.909C402.929 371.644 403.556 372.076 404.399 372.076C405.592 372.076 406.462 371.294 406.462 370.255V369.594L404.52 369.716C403.414 369.783 402.929 370.174 402.929 370.896V370.909ZM409.632 372.966V365.697H410.806V366.775H410.913C411.19 366.013 411.871 365.568 412.856 365.568C413.078 365.568 413.328 365.595 413.442 365.616V366.755C413.199 366.715 412.977 366.688 412.721 366.688C411.601 366.688 410.806 367.396 410.806 368.461V372.966H409.632ZM417.462 373.02C415.965 373.02 415.338 372.467 415.338 371.078V366.668H414.191V365.697H415.338V363.815H416.551V365.697H418.143V366.668H416.551V370.781C416.551 371.638 416.848 371.982 417.603 371.982C417.812 371.982 417.927 371.975 418.143 371.955V372.953C417.914 372.993 417.691 373.02 417.462 373.02ZM426.067 373.02C424.57 373.02 423.943 372.467 423.943 371.078V366.668H422.797V365.697H423.943V363.815H425.157V365.697H426.748V366.668H425.157V370.781C425.157 371.638 425.454 371.982 426.209 371.982C426.418 371.982 426.533 371.975 426.748 371.955V372.953C426.519 372.993 426.297 373.02 426.067 373.02ZM428.974 375.515C428.819 375.515 428.617 375.502 428.455 375.475V374.51C428.597 374.537 428.779 374.544 428.94 374.544C429.608 374.544 430.013 374.241 430.276 373.404L430.411 372.973L427.72 365.697H428.974L430.97 371.678H431.078L433.068 365.697H434.302L431.463 373.411C430.862 375.043 430.262 375.515 428.974 375.515ZM435.705 375.394V365.697H436.878V366.856H436.986C437.431 366.047 438.24 365.568 439.252 365.568C441.093 365.568 442.3 367.059 442.3 369.325V369.338C442.3 371.617 441.099 373.094 439.252 373.094C438.254 373.094 437.384 372.595 436.986 371.82H436.878V375.394H435.705ZM438.982 372.056C440.311 372.056 441.099 371.031 441.099 369.338V369.325C441.099 367.632 440.311 366.607 438.982 366.607C437.66 366.607 436.851 367.645 436.851 369.325V369.338C436.851 371.017 437.66 372.056 438.982 372.056ZM444.607 364.294C444.161 364.294 443.797 363.93 443.797 363.485C443.797 363.04 444.161 362.675 444.607 362.675C445.052 362.675 445.416 363.04 445.416 363.485C445.416 363.93 445.052 364.294 444.607 364.294ZM444.013 372.966V365.697H445.186V372.966H444.013ZM447.25 372.966V365.697H448.424V366.789H448.532C448.896 366.02 449.577 365.568 450.649 365.568C452.281 365.568 453.191 366.533 453.191 368.259V372.966H452.018V368.542C452.018 367.234 451.479 366.607 450.319 366.607C449.159 366.607 448.424 367.389 448.424 368.664V372.966H447.25ZM458.162 375.529C456.409 375.529 455.289 374.74 455.107 373.546L455.121 373.539H456.334L456.341 373.546C456.469 374.099 457.117 374.49 458.162 374.49C459.463 374.49 460.239 373.876 460.239 372.804V371.334H460.131C459.672 372.137 458.85 372.588 457.852 372.588C455.97 372.588 454.804 371.132 454.804 369.095V369.082C454.804 367.045 455.977 365.568 457.879 365.568C458.904 365.568 459.699 366.074 460.144 366.897H460.225V365.697H461.399V372.865C461.399 374.49 460.144 375.529 458.162 375.529ZM458.108 371.55C459.457 371.55 460.266 370.538 460.266 369.095V369.082C460.266 367.639 459.45 366.607 458.108 366.607C456.759 366.607 456.004 367.639 456.004 369.082V369.095C456.004 370.538 456.759 371.55 458.108 371.55ZM470.159 373.094C468.089 373.094 466.808 371.665 466.808 369.338V369.325C466.808 366.991 468.089 365.568 470.159 365.568C472.23 365.568 473.511 366.991 473.511 369.325V369.338C473.511 371.665 472.23 373.094 470.159 373.094ZM470.159 372.056C471.535 372.056 472.311 371.051 472.311 369.338V369.325C472.311 367.605 471.535 366.607 470.159 366.607C468.784 366.607 468.008 367.605 468.008 369.325V369.338C468.008 371.051 468.784 372.056 470.159 372.056ZM475.184 372.966V365.697H476.357V366.775H476.465C476.742 366.013 477.423 365.568 478.407 365.568C478.63 365.568 478.879 365.595 478.994 365.616V366.755C478.751 366.715 478.529 366.688 478.272 366.688C477.153 366.688 476.357 367.396 476.357 368.461V372.966H475.184Z" fill="black" fill-opacity="0.9"/>
<path d="M486.182 373.03C484.334 373.03 483.161 371.567 483.161 369.234V369.22C483.161 366.873 484.314 365.417 486.182 365.417C487.194 365.417 488.036 365.916 488.421 366.712H488.535V362.686H490.221V372.909H488.535V371.756H488.421C488.016 372.558 487.22 373.03 486.182 373.03ZM486.708 371.614C487.854 371.614 488.562 370.711 488.562 369.234V369.22C488.562 367.743 487.848 366.833 486.708 366.833C485.568 366.833 484.867 367.737 484.867 369.22V369.234C484.867 370.717 485.562 371.614 486.708 371.614ZM492.184 372.909V365.538H493.863V366.671H493.978C494.227 365.882 494.902 365.417 495.873 365.417C496.129 365.417 496.392 365.451 496.554 365.498V367.002C496.284 366.948 496.008 366.907 495.718 366.907C494.598 366.907 493.863 367.575 493.863 368.627V372.909H492.184ZM499.697 373.03C498.294 373.03 497.276 372.167 497.276 370.825V370.812C497.276 369.497 498.281 368.728 500.074 368.62L501.969 368.505V367.871C501.969 367.136 501.491 366.732 500.587 366.732C499.818 366.732 499.319 367.008 499.151 367.494L499.144 367.521H497.559L497.566 367.46C497.728 366.219 498.915 365.397 500.668 365.397C502.563 365.397 503.628 366.314 503.628 367.871V372.909H501.969V371.897H501.855C501.45 372.612 500.668 373.03 499.697 373.03ZM498.935 370.744C498.935 371.371 499.468 371.742 500.209 371.742C501.221 371.742 501.969 371.081 501.969 370.205V369.611L500.311 369.719C499.373 369.78 498.935 370.124 498.935 370.731V370.744ZM506.036 372.909V366.84H504.829V365.538H506.036V364.81C506.036 363.34 506.778 362.618 508.423 362.618C508.781 362.618 509.084 362.638 509.354 362.686V363.859C509.226 363.839 509.017 363.825 508.781 363.825C507.992 363.825 507.688 364.203 507.688 364.904V365.538H509.287V366.84H507.715V372.909H506.036ZM513.697 372.943C512.005 372.943 511.31 372.376 511.31 370.953V366.84H510.164V365.538H511.31V363.731H513.016V365.538H514.574V366.84H513.016V370.555C513.016 371.29 513.306 371.601 514.007 371.601C514.243 371.601 514.372 371.594 514.574 371.574V372.868C514.331 372.916 514.021 372.943 513.697 372.943ZM521.035 372.909L519.039 365.538H520.725L521.952 371.075H522.067L523.483 365.538H525.081L526.511 371.075H526.625L527.846 365.538H529.512L527.516 372.909H525.756L524.319 367.568H524.204L522.775 372.909H521.035ZM531.69 364.304C531.137 364.304 530.685 363.866 530.685 363.313C530.685 362.767 531.137 362.322 531.69 362.322C532.236 362.322 532.688 362.767 532.688 363.313C532.688 363.866 532.236 364.304 531.69 364.304ZM530.847 372.909V365.538H532.526V372.909H530.847ZM537.342 372.943C535.649 372.943 534.954 372.376 534.954 370.953V366.84H533.808V365.538H534.954V363.731H536.661V365.538H538.218V366.84H536.661V370.555C536.661 371.29 536.951 371.601 537.652 371.601C537.888 371.601 538.016 371.594 538.218 371.574V372.868C537.976 372.916 537.665 372.943 537.342 372.943ZM539.81 372.909V362.686H541.489V366.664H541.604C541.955 365.875 542.663 365.397 543.728 365.397C545.374 365.397 546.271 366.388 546.271 368.141V372.909H544.591V368.532C544.591 367.386 544.126 366.806 543.108 366.806C542.11 366.806 541.489 367.507 541.489 368.613V372.909H539.81ZM551.093 372.909L554.546 363.178H556.508L559.961 372.909H558.14L557.324 370.394H553.723L552.914 372.909H551.093ZM555.47 364.985L554.161 369.052H556.892L555.584 364.985H555.47ZM561.485 372.909V363.178H563.225V372.909H561.485Z" fill="#004182"/>
<path d="M583.242 368.399C583.242 368.784 582.966 369.09 582.602 369.129C579.703 369.445 577.387 371.773 577.062 374.673C577.022 375.038 576.707 375.314 576.342 375.314H576.332C575.967 375.314 575.652 375.038 575.612 374.673C575.297 371.773 572.971 369.455 570.072 369.129C569.708 369.09 569.432 368.774 569.432 368.409C569.432 368.024 569.708 367.719 570.072 367.679C572.971 367.363 575.287 365.035 575.603 362.145C575.642 361.78 575.958 361.504 576.322 361.504H576.342C576.707 361.504 577.022 361.78 577.062 362.145C577.377 365.045 579.703 367.363 582.602 367.689C582.966 367.728 583.242 368.044 583.242 368.409V368.399Z" fill="#004182"/>
</g>
<path d="M61.9961 102.964H1482.54V158.208H61.9961V102.964Z" fill="white"/>
<path d="M158.67 119.734V141.437C158.67 141.96 158.462 142.462 158.092 142.832C157.722 143.202 157.22 143.41 156.697 143.41H134.994C134.471 143.41 133.969 143.202 133.599 142.832C133.229 142.462 133.021 141.96 133.021 141.437V119.734C133.021 119.211 133.229 118.709 133.599 118.339C133.969 117.969 134.471 117.761 134.994 117.761H156.697C157.22 117.761 157.722 117.969 158.092 118.339C158.462 118.709 158.67 119.211 158.67 119.734ZM140.913 127.626H136.967V139.464H140.913V127.626ZM141.16 123.68C141.17 123.239 141.048 122.805 140.81 122.434C140.572 122.063 140.229 121.77 139.825 121.595C139.42 121.419 138.972 121.368 138.538 121.448C138.105 121.528 137.705 121.736 137.389 122.044C137.074 122.352 136.857 122.748 136.768 123.179C136.678 123.611 136.719 124.06 136.885 124.469C137.052 124.877 137.336 125.227 137.702 125.473C138.068 125.719 138.499 125.85 138.94 125.851C139.23 125.858 139.518 125.808 139.788 125.703C140.057 125.597 140.303 125.438 140.51 125.236C140.717 125.033 140.881 124.791 140.993 124.524C141.105 124.257 141.161 123.97 141.16 123.68ZM154.724 132.125C154.724 128.524 152.465 127.291 150.315 127.291C149.573 127.286 148.842 127.469 148.19 127.823C147.538 128.176 146.986 128.689 146.586 129.313V127.626H142.886V139.464H146.832V133.022C146.789 132.709 146.813 132.39 146.902 132.087C146.991 131.783 147.144 131.502 147.35 131.263C147.556 131.023 147.811 130.83 148.098 130.696C148.384 130.562 148.696 130.491 149.012 130.487C150.098 130.487 150.778 131.069 150.778 132.973V139.464H154.724V132.125Z" fill="#0A66C2"/>
<path d="M171.248 122.948H173.824L179.178 138.761H176.919L175.224 133.611H169.757L168.153 138.761H165.985L171.248 122.948ZM170.3 131.849H174.682L172.536 125.049H172.468L170.3 131.849ZM189.826 129.567V122.044H191.814V138.761H189.826V136.886C189.171 138.129 187.59 139.055 185.828 139.055C182.665 139.055 180.27 136.593 180.27 133.204C180.27 129.838 182.62 127.376 185.783 127.376C187.59 127.376 189.171 128.325 189.826 129.567ZM186.099 129.115C183.862 129.115 182.304 130.9 182.304 133.204C182.304 135.531 183.862 137.316 186.099 137.316C188.335 137.316 189.849 135.531 189.849 133.204C189.849 130.9 188.335 129.115 186.099 129.115ZM198.41 137.406C199.833 137.406 200.646 136.728 200.646 135.915C200.646 135.011 199.991 134.582 198.816 134.198L197.393 133.724C195.541 133.114 194.727 132.188 194.727 130.606C194.727 128.776 196.354 127.376 198.681 127.376C200.059 127.376 201.482 127.828 202.544 128.799L201.505 130.177C200.691 129.477 199.675 129.047 198.658 129.047C197.529 129.047 196.693 129.635 196.693 130.448C196.693 131.058 197.054 131.51 197.98 131.826L199.968 132.526C201.934 133.227 202.724 134.13 202.724 135.734C202.724 137.338 201.301 139.055 198.432 139.055C196.851 139.055 195.315 138.558 194.185 137.541L195.27 136.073C196.06 136.909 197.303 137.406 198.41 137.406Z" fill="#0A66C2"/>
<path opacity="0.6" d="M211.475 138.761H210.255V122.948H211.475V138.761Z" fill="#0A66C2"/>
<path fill-rule="evenodd" clip-rule="evenodd" d="M443.763 134.532L438.83 129.599H448.695L443.763 134.532Z" fill="#0A66C2"/>
<path d="M220.975 130.855C220.975 134.469 223.415 137.225 226.984 137.225C229.605 137.225 231.434 135.802 232.225 133.566H234.439C233.422 136.954 230.531 139.033 227.007 139.033C222.421 139.033 218.829 135.621 218.829 130.855C218.829 126.088 222.421 122.677 227.007 122.677C230.531 122.677 233.422 124.755 234.439 128.144H232.225C231.434 125.907 229.605 124.484 226.984 124.484C223.415 124.484 220.975 127.24 220.975 130.855ZM247.557 138.761H245.569V136.886C244.914 138.129 243.333 139.055 241.571 139.055C238.408 139.055 236.013 136.593 236.013 133.204C236.013 129.838 238.363 127.376 241.525 127.376C243.333 127.376 244.891 128.325 245.569 129.59V127.692H247.557V138.761ZM241.842 129.115C239.605 129.115 238.046 130.9 238.046 133.204C238.046 135.531 239.605 137.316 241.842 137.316C244.078 137.316 245.592 135.531 245.592 133.204C245.592 130.9 244.078 129.115 241.842 129.115ZM260.523 138.761H258.535V131.758C258.535 130.064 257.473 129.206 256.118 129.206C254.966 129.206 253.904 129.838 252.955 130.945V138.761H250.967V127.692H252.933V129.115C253.859 128.054 255.169 127.398 256.524 127.398C258.287 127.398 259.484 128.144 260.071 129.454C261.291 127.963 262.624 127.398 264.07 127.398C266.6 127.398 268.091 128.957 268.091 131.42V138.761H266.103V131.758C266.103 130.042 265.019 129.206 263.708 129.206C262.534 129.206 261.449 129.883 260.5 130.945L260.523 131.939V138.761ZM273.384 136.886V143.076H271.396V127.692H273.384V129.612C274.039 128.325 275.643 127.398 277.382 127.398C280.59 127.398 282.94 129.838 282.94 133.227C282.94 136.615 280.522 139.055 277.36 139.055C275.62 139.055 274.061 138.152 273.384 136.886ZM277.134 129.138C274.875 129.138 273.339 130.9 273.339 133.227C273.339 135.531 274.875 137.316 277.134 137.316C279.325 137.316 280.884 135.531 280.884 133.227C280.884 130.9 279.325 129.138 277.134 129.138ZM296.334 138.761H294.346V136.886C293.691 138.129 292.11 139.055 290.348 139.055C287.185 139.055 284.79 136.593 284.79 133.204C284.79 129.838 287.14 127.376 290.302 127.376C292.11 127.376 293.668 128.325 294.346 129.59V127.692H296.334V138.761ZM290.619 129.115C288.382 129.115 286.824 130.9 286.824 133.204C286.824 135.531 288.382 137.316 290.619 137.316C292.855 137.316 294.369 135.531 294.369 133.204C294.369 130.9 292.855 129.115 290.619 129.115ZM299.835 124.055C299.835 123.264 300.467 122.632 301.258 122.632C302.048 122.632 302.681 123.264 302.681 124.055C302.681 124.846 302.048 125.478 301.258 125.478C300.467 125.478 299.835 124.846 299.835 124.055ZM302.387 138.761H300.399V129.364H298.66V127.692H302.387V138.761ZM314.576 129.545V127.67H316.564V138.558C316.564 142.015 313.808 143.37 310.781 143.37C309.109 143.37 307.438 143.054 306.195 142.376L306.353 140.501C307.776 141.224 309.222 141.608 310.691 141.608C313.04 141.608 314.576 140.591 314.576 138.264V136.841C313.921 138.084 312.385 138.987 310.6 138.987C307.46 138.987 305.066 136.593 305.066 133.182C305.066 129.793 307.415 127.376 310.578 127.376C312.362 127.376 313.944 128.325 314.576 129.545ZM310.871 129.115C308.635 129.115 307.099 130.877 307.099 133.182C307.099 135.508 308.635 137.27 310.871 137.27C313.108 137.27 314.621 135.508 314.621 133.182C314.621 130.877 313.108 129.115 310.871 129.115ZM321.94 130.945V138.761H319.952V127.692H321.918V129.115C322.889 128.031 324.244 127.398 325.622 127.398C328.153 127.398 329.711 128.957 329.711 131.42V138.761H327.723V131.781C327.723 130.019 326.571 129.206 325.238 129.206C324.041 129.206 322.889 129.838 321.94 130.945ZM351.057 125.614L346.697 134.582H344.506L340.191 125.614V138.761H338.203V122.948H341.185L345.613 132.414L350.221 122.948H353.135V138.761H351.057V125.614ZM367.393 138.761H365.405V136.886C364.75 138.129 363.168 139.055 361.406 139.055C358.244 139.055 355.849 136.593 355.849 133.204C355.849 129.838 358.199 127.376 361.361 127.376C363.168 127.376 364.727 128.325 365.405 129.59V127.692H367.393V138.761ZM361.677 129.115C359.441 129.115 357.882 130.9 357.882 133.204C357.882 135.531 359.441 137.316 361.677 137.316C363.914 137.316 365.428 135.531 365.428 133.204C365.428 130.9 363.914 129.115 361.677 129.115ZM372.791 130.945V138.761H370.803V127.692H372.768V129.115C373.74 128.031 375.095 127.398 376.473 127.398C379.003 127.398 380.562 128.957 380.562 131.42V138.761H378.574V131.781C378.574 130.019 377.422 129.206 376.089 129.206C374.892 129.206 373.74 129.838 372.791 130.945ZM394.616 138.761H392.628V136.886C391.973 138.129 390.392 139.055 388.63 139.055C385.467 139.055 383.072 136.593 383.072 133.204C383.072 129.838 385.422 127.376 388.585 127.376C390.392 127.376 391.951 128.325 392.628 129.59V127.692H394.616V138.761ZM388.901 129.115C386.664 129.115 385.106 130.9 385.106 133.204C385.106 135.531 386.664 137.316 388.901 137.316C391.137 137.316 392.651 135.531 392.651 133.204C392.651 130.9 391.137 129.115 388.901 129.115ZM406.791 129.545V127.67H408.779V138.558C408.779 142.015 406.023 143.37 402.996 143.37C401.325 143.37 399.653 143.054 398.41 142.376L398.569 140.501C399.992 141.224 401.438 141.608 402.906 141.608C405.255 141.608 406.791 140.591 406.791 138.264V136.841C406.136 138.084 404.6 138.987 402.816 138.987C399.675 138.987 397.281 136.593 397.281 133.182C397.281 129.793 399.63 127.376 402.793 127.376C404.578 127.376 406.159 128.325 406.791 129.545ZM403.087 129.115C400.85 129.115 399.314 130.877 399.314 133.182C399.314 135.508 400.85 137.27 403.087 137.27C405.323 137.27 406.837 135.508 406.837 133.182C406.837 130.877 405.323 129.115 403.087 129.115ZM420.549 135.283L422.243 136.096C421.136 138.219 419.148 139.033 417.024 139.033C413.704 139.033 411.377 136.638 411.377 133.249C411.377 129.861 413.839 127.376 417.047 127.376C420.029 127.376 422.65 129.432 422.65 133.769V133.837H413.478C413.658 135.802 415.059 137.27 417.07 137.27C418.357 137.27 419.6 136.841 420.549 135.283ZM417.047 129.138C415.127 129.138 413.771 130.471 413.478 132.301H420.413C420.278 130.561 418.945 129.138 417.047 129.138ZM431.057 127.579V129.477C430.808 129.454 430.582 129.409 430.266 129.409C428.413 129.409 427.194 130.516 427.194 133.023V138.761H425.206V127.692H427.148V129.612C427.645 128.46 428.639 127.511 430.198 127.511C430.537 127.511 430.785 127.557 431.057 127.579Z" fill="#0A66C2"/>
<line x1="61.998" y1="157.714" x2="1482.54" y2="157.714" stroke="#EBEBEB" stroke-width="0.986487"/>
<path d="M107.376 124.667V126.64H87.6465V124.667H107.376ZM87.6465 136.505H107.376V134.532H87.6465V136.505ZM87.6465 131.573H107.376V129.6H87.6465V131.573Z" fill="#6E6558"/>
<g clip-path="url(#clip6_3352_39720)">
<mask id="path-46-inside-2_3352_39720" fill="white">
<path d="M62 237.126H332.297V1112.14H62V237.126Z"/>
</mask>
<path d="M62 237.126H332.297V1112.14H62V237.126Z" fill="white"/>
<rect width="270.297" height="53.2703" transform="translate(62 260.802)" fill="#F5F7F9"/>
<rect x="73.8379" y="272.64" width="42.4189" height="29.5946" rx="3.94595" fill="#F3F2F0"/>
<path d="M124.559 291.437L127.518 283.096H129.2L132.16 291.437H130.599L129.9 289.281H126.813L126.119 291.437H124.559ZM128.31 284.645L127.189 288.13H129.53L128.408 284.645H128.31ZM135.374 291.541C133.79 291.541 132.784 290.287 132.784 288.287V288.275C132.784 286.263 133.772 285.015 135.374 285.015C136.241 285.015 136.963 285.443 137.293 286.125H137.391V282.674H138.836V291.437H137.391V290.448H137.293C136.946 291.136 136.264 291.541 135.374 291.541ZM135.824 290.327C136.807 290.327 137.414 289.552 137.414 288.287V288.275C137.414 287.009 136.801 286.229 135.824 286.229C134.848 286.229 134.246 287.003 134.246 288.275V288.287C134.246 289.558 134.842 290.327 135.824 290.327ZM145.836 291.437V284.564H145.737L143.662 286.032V284.628L145.842 283.096H147.327V291.437H145.836Z" fill="black" fill-opacity="0.6"/>
<rect x="73.8379" y="325.302" width="246.622" height="46.5946" rx="3.94595" fill="#F7F7F7"/>
<path d="M154.408 353.342C151.65 353.342 149.937 351.386 149.937 348.244V348.23C149.937 345.074 151.644 343.125 154.402 343.125C156.614 343.125 158.293 344.528 158.522 346.517V346.571H156.816L156.809 346.544C156.56 345.391 155.629 344.629 154.402 344.629C152.749 344.629 151.718 346.011 151.718 348.223V348.237C151.718 350.455 152.749 351.838 154.408 351.838C155.642 351.838 156.56 351.15 156.809 350.078L156.816 350.044H158.522V350.091C158.266 352.04 156.654 353.342 154.408 353.342ZM160.141 353.099V345.728H161.82V346.861H161.935C162.184 346.072 162.858 345.607 163.83 345.607C164.086 345.607 164.349 345.64 164.511 345.688V347.192C164.241 347.138 163.964 347.097 163.674 347.097C162.555 347.097 161.82 347.765 161.82 348.817V353.099H160.141ZM168.706 353.247C166.514 353.247 165.185 351.777 165.185 349.43V349.424C165.185 347.104 166.527 345.587 168.625 345.587C170.722 345.587 172.017 347.057 172.017 349.282V349.835H166.865C166.885 351.157 167.6 351.925 168.739 351.925C169.65 351.925 170.169 351.467 170.331 351.13L170.351 351.083H171.949L171.929 351.143C171.693 352.094 170.708 353.247 168.706 353.247ZM168.645 346.902C167.707 346.902 167.006 347.535 166.878 348.709H170.378C170.263 347.502 169.582 346.902 168.645 346.902ZM175.557 353.22C174.155 353.22 173.136 352.357 173.136 351.015V351.002C173.136 349.687 174.141 348.918 175.935 348.81L177.83 348.695V348.061C177.83 347.326 177.351 346.922 176.448 346.922C175.679 346.922 175.18 347.198 175.011 347.684L175.004 347.711H173.42L173.426 347.65C173.588 346.409 174.775 345.587 176.528 345.587C178.423 345.587 179.489 346.504 179.489 348.061V353.099H177.83V352.087H177.715C177.311 352.802 176.528 353.22 175.557 353.22ZM174.795 350.934C174.795 351.561 175.328 351.932 176.07 351.932C177.081 351.932 177.83 351.271 177.83 350.395V349.801L176.171 349.909C175.234 349.97 174.795 350.314 174.795 350.921V350.934ZM184.257 353.133C182.564 353.133 181.87 352.566 181.87 351.143V347.03H180.723V345.728H181.87V343.921H183.576V345.728H185.134V347.03H183.576V350.745C183.576 351.48 183.866 351.791 184.567 351.791C184.803 351.791 184.931 351.784 185.134 351.764V353.058C184.891 353.106 184.581 353.133 184.257 353.133ZM189.747 353.247C187.555 353.247 186.226 351.777 186.226 349.43V349.424C186.226 347.104 187.568 345.587 189.666 345.587C191.763 345.587 193.058 347.057 193.058 349.282V349.835H187.906C187.926 351.157 188.641 351.925 189.78 351.925C190.691 351.925 191.21 351.467 191.372 351.13L191.392 351.083H192.99L192.97 351.143C192.734 352.094 191.749 353.247 189.747 353.247ZM189.686 346.902C188.749 346.902 188.047 347.535 187.919 348.709H191.419C191.304 347.502 190.623 346.902 189.686 346.902ZM198.123 353.099V345.728H199.802V346.854H199.917C200.267 346.065 200.975 345.587 202.041 345.587C203.686 345.587 204.583 346.578 204.583 348.331V353.099H202.904V348.722C202.904 347.576 202.439 346.996 201.42 346.996C200.422 346.996 199.802 347.697 199.802 348.803V353.099H198.123ZM209.574 353.247C207.382 353.247 206.054 351.777 206.054 349.43V349.424C206.054 347.104 207.396 345.587 209.493 345.587C211.59 345.587 212.885 347.057 212.885 349.282V349.835H207.733C207.753 351.157 208.468 351.925 209.608 351.925C210.518 351.925 211.037 351.467 211.199 351.13L211.219 351.083H212.817L212.797 351.143C212.561 352.094 211.577 353.247 209.574 353.247ZM209.513 346.902C208.576 346.902 207.874 347.535 207.746 348.709H211.246C211.132 347.502 210.45 346.902 209.513 346.902ZM215.724 353.099L213.728 345.728H215.414L216.641 351.265H216.756L218.172 345.728H219.77L221.2 351.265H221.315L222.535 345.728H224.201L222.205 353.099H220.445L219.008 347.758H218.894L217.464 353.099H215.724ZM231.06 353.22C229.657 353.22 228.639 352.357 228.639 351.015V351.002C228.639 349.687 229.644 348.918 231.438 348.81L233.333 348.695V348.061C233.333 347.326 232.854 346.922 231.95 346.922C231.181 346.922 230.682 347.198 230.514 347.684L230.507 347.711H228.922L228.929 347.65C229.091 346.409 230.278 345.587 232.031 345.587C233.926 345.587 234.991 346.504 234.991 348.061V353.099H233.333V352.087H233.218C232.813 352.802 232.031 353.22 231.06 353.22ZM230.298 350.934C230.298 351.561 230.831 351.932 231.572 351.932C232.584 351.932 233.333 351.271 233.333 350.395V349.801L231.674 349.909C230.736 349.97 230.298 350.314 230.298 350.921V350.934ZM239.517 353.22C237.669 353.22 236.496 351.757 236.496 349.424V349.41C236.496 347.063 237.649 345.607 239.517 345.607C240.528 345.607 241.371 346.106 241.756 346.902H241.87V342.876H243.556V353.099H241.87V351.946H241.756C241.351 352.748 240.555 353.22 239.517 353.22ZM240.043 351.804C241.189 351.804 241.897 350.9 241.897 349.424V349.41C241.897 347.933 241.182 347.023 240.043 347.023C238.903 347.023 238.202 347.927 238.202 349.41V349.424C238.202 350.907 238.896 351.804 240.043 351.804Z" fill="#0A66C2"/>
</g>
<path d="M331.311 237.126V1112.14H333.284V237.126H331.311Z" fill="black" fill-opacity="0.08" mask="url(#path-46-inside-2_3352_39720)"/>
</g>
</g>
</g>
<rect x="0.4" y="0.4" width="639.2" height="425.863" rx="5.6" stroke="#C7C7C6" stroke-width="0.8"/>
<defs>
<filter id="filter0_dddd_3352_39720" x="22.8559" y="44.0535" width="1498.83" height="1203.82" filterUnits="userSpaceOnUse" color-interpolation-filters="sRGB">
<feFlood flood-opacity="0" result="BackgroundImageFix"/>
<feColorMatrix in="SourceAlpha" type="matrix" values="0 0 0 0 0 0 0 0 0 0 0 0 0 0 0 0 0 0 127 0" result="hardAlpha"/>
<feOffset dy="6.10262"/>
<feGaussianBlur stdDeviation="6.61117"/>
<feColorMatrix type="matrix" values="0 0 0 0 0.588235 0 0 0 0 0.588235 0 0 0 0 0.588235 0 0 0 0.1 0"/>
<feBlend mode="normal" in2="BackgroundImageFix" result="effect1_dropShadow_3352_39720"/>
<feColorMatrix in="SourceAlpha" type="matrix" values="0 0 0 0 0 0 0 0 0 0 0 0 0 0 0 0 0 0 127 0" result="hardAlpha"/>
<feOffset dy="23.3934"/>
<feGaussianBlur stdDeviation="11.6967"/>
<feColorMatrix type="matrix" values="0 0 0 0 0.588235 0 0 0 0 0.588235 0 0 0 0 0.588235 0 0 0 0.09 0"/>
<feBlend mode="normal" in2="effect1_dropShadow_3352_39720" result="effect2_dropShadow_3352_39720"/>
<feColorMatrix in="SourceAlpha" type="matrix" values="0 0 0 0 0 0 0 0 0 0 0 0 0 0 0 0 0 0 127 0" result="hardAlpha"/>
<feOffset dy="53.9064"/>
<feGaussianBlur stdDeviation="16.2736"/>
<feColorMatrix type="matrix" values="0 0 0 0 0.588235 0 0 0 0 0.588235 0 0 0 0 0.588235 0 0 0 0.05 0"/>
<feBlend mode="normal" in2="effect2_dropShadow_3352_39720" result="effect3_dropShadow_3352_39720"/>
<feColorMatrix in="SourceAlpha" type="matrix" values="0 0 0 0 0 0 0 0 0 0 0 0 0 0 0 0 0 0 127 0" result="hardAlpha"/>
<feOffset dy="95.6077"/>
<feGaussianBlur stdDeviation="19.325"/>
<feColorMatrix type="matrix" values="0 0 0 0 0.588235 0 0 0 0 0.588235 0 0 0 0 0.588235 0 0 0 0.01 0"/>
<feBlend mode="normal" in2="effect3_dropShadow_3352_39720" result="effect4_dropShadow_3352_39720"/>
<feBlend mode="normal" in="SourceGraphic" in2="effect4_dropShadow_3352_39720" result="shape"/>
</filter>
<clipPath id="clip0_3352_39720">
<rect width="640" height="426.663" rx="6" fill="white"/>
</clipPath>
<clipPath id="clip1_3352_39720">
<rect width="96.6757" height="23.6757" fill="white" transform="translate(156.701 64.4908)"/>
</clipPath>
<clipPath id="clip2_3352_39720">
<rect width="51.2973" height="11.8378" fill="white" transform="translate(81.7285 71.3962)"/>
</clipPath>
<clipPath id="clip3_3352_39720">
<rect width="1420.54" height="1010.16" fill="white" transform="translate(62 102.964)"/>
</clipPath>
<clipPath id="clip4_3352_39720">
<rect x="355.973" y="260.802" width="530.73" height="824.703" rx="7.89189" fill="white"/>
</clipPath>
<clipPath id="clip5_3352_39720">
<rect width="114.432" height="17" fill="white" transform="translate(371.756 323.18)"/>
</clipPath>
<clipPath id="clip6_3352_39720">
<path d="M62 237.126H332.297V1112.14H62V237.126Z" fill="white"/>
</clipPath>
</defs>
</svg>
